<?xml version="1.0" encoding="UTF-8" standalone="no"?>
<svg
   xmlns:dc="http://purl.org/dc/elements/1.1/"
   xmlns:cc="http://creativecommons.org/ns#"
   xmlns:rdf="http://www.w3.org/1999/02/22-rdf-syntax-ns#"
   xmlns:svg="http://www.w3.org/2000/svg"
   xmlns="http://www.w3.org/2000/svg"
   id="svg8"
   version="1.1"
   viewBox="0 0 92.604165 16.933334"
   height="64"
   width="350">
  <defs
     id="defs2" />
  <metadata
     id="metadata5">
    <rdf:RDF>
      <cc:Work
         rdf:about="">
        <dc:format>image/svg+xml</dc:format>
        <dc:type
           rdf:resource="http://purl.org/dc/dcmitype/StillImage" />
        <dc:title></dc:title>
      </cc:Work>
    </rdf:RDF>
  </metadata>
  <g
     style="display:inline"
     transform="translate(0,-280.06665)"
     id="layer1">
    <path
       d="m 37.002974,111.33539 c 1.224838,0.0597 2.436629,0.0236 3.651509,-0.12615 1.105651,-0.07 2.183871,-0.26669 3.271716,-0.46121 1.080492,-0.17463 2.180507,-0.17018 3.27216,-0.19171 1.144987,-0.0192 2.290167,-0.007 3.435236,-0.006 0.999519,-0.002 1.999033,-0.006 2.998552,-0.008 0.903348,-0.0321 1.795899,-0.22361 2.697813,-0.31306 0.9436,-0.0633 1.8894,-0.078 2.834783,-0.0862 0.879089,-0.0628 1.730886,0.16703 2.598399,0.27233 0.759378,0.20472 1.515758,0.36953 2.253895,0.63726 0.762143,0.17768 1.281147,0.76591 1.758355,1.34495 0.545748,0.64224 0.939461,1.39316 1.374026,2.11165 0.428017,0.74989 0.761225,1.54059 1.256805,2.24955 0.570537,0.79872 0.935482,1.71753 1.315287,2.61639 0.359624,0.93482 0.603242,1.90201 0.767326,2.88845 0.161178,1.03704 0.183419,2.08791 0.204869,3.13508 0.0541,0.88523 -0.0052,1.75504 -0.148151,2.62782 -0.18511,0.801 -0.521025,1.58422 -0.921763,2.30236 -1.549792,2.21642 -3.865478,2.79644 -6.412664,4.24212 -0.734983,0.10057 -1.45729,0.14874 -2.184574,0.29687 -0.843577,0.0908 -1.660359,0.29087 -2.495738,0.43065 -0.887283,0.14131 -1.785557,0.17768 -2.682269,0.19745 -0.808152,0.0119 -1.61643,0.008 -2.424639,0.007 -0.853671,5.3e-4 -1.707306,-0.006 -2.560974,-0.007 -0.940837,0.0365 -1.873313,0.2228 -2.813941,0.31218 -0.846471,0.15462 -1.64682,0.009 -2.477038,-0.12913 -0.817869,-0.12492 -1.645491,-0.15421 -2.471298,-0.1728 -0.508521,0.0381 -1.057079,-0.11413 -1.547667,0.0725 -0.215651,0.082 -0.411374,0.20945 -0.621731,0.30424 -1.815978,0.76651 -4.747064,2.53589 4.169037,-2.44055 0.09651,-0.0539 -0.174236,0.13665 -0.253799,0.21337 -0.22529,0.21723 -0.23586,0.26617 -0.405241,0.52717 -0.349581,0.68285 -0.37647,1.45544 -0.414573,2.20565 -0.03763,0.82275 -0.05552,1.63649 0.182647,2.43065 0.235209,0.65823 0.656058,1.25041 1.053058,1.82416 0.311229,0.61631 0.701585,1.11928 1.263949,1.5226 0.867597,0.7424 1.714918,1.49967 2.667135,2.13344 0.827775,0.65458 1.78299,1.13376 2.615837,1.77617 0.773827,0.38124 1.188212,0.91429 1.705943,1.57533 0.515385,0.55793 0.825141,1.26002 1.288095,1.85572 0.42526,0.53429 0.888254,0.98846 1.19375,1.61055 0.302212,0.74039 0.341548,1.54214 0.370985,2.33093 0.0077,0.81053 0.03861,1.62301 -0.02487,2.43166 -0.249071,1.02242 -0.589331,2.04492 -1.04602,2.99554 -0.536668,0.87344 -0.953863,1.80912 -1.465747,2.69619 -0.515897,0.88797 -0.845775,1.86568 -1.229595,2.81469 -0.323683,0.80631 -0.795563,1.53867 -1.107231,2.34934 -0.154038,0.46135 -0.360762,0.90196 -0.572283,1.33898 0,0 -5.363639,2.44617 -5.363639,2.44617 v 0 c 0.191865,-0.43348 0.413586,-0.85055 0.605735,-1.28412 0.25205,-0.85388 0.696465,-1.60811 1.119116,-2.38725 0.37361,-0.97472 0.737227,-1.95861 1.19639,-2.89524 0.510172,-0.88265 0.943107,-1.79836 1.459174,-2.67616 0.528045,-0.86189 0.79706,-1.83925 1.12581,-2.78975 0.135837,-0.77349 0.04289,-1.56776 0.06378,-2.35029 -0.01659,-0.7081 -0.02312,-1.43306 -0.262543,-2.10836 -0.279112,-0.58957 -0.775189,-0.97935 -1.140013,-1.51134 -0.438996,-0.60839 -0.760195,-1.29659 -1.270918,-1.85304 -0.492292,-0.63979 -0.919014,-1.02619 -1.618956,-1.4443 -0.83946,-0.61026 -1.72593,-1.15792 -2.554042,-1.78576 -0.943329,-0.66505 -1.840732,-1.38984 -2.732222,-2.12215 -0.589971,-0.46023 -1.039188,-1.01526 -1.374907,-1.68432 -0.416507,-0.62965 -0.877787,-1.25674 -1.130004,-1.97138 -0.291494,-0.85131 -0.302562,-1.72232 -0.264387,-2.61576 0.0086,-0.81773 0.03368,-1.64737 0.286128,-2.4328 1.017881,-2.52021 4.071009,-3.38953 6.499905,-4.37072 0.749572,-0.26376 1.521365,-0.20696 2.306309,-0.17602 0.842955,0.0344 1.685698,0.0915 2.518693,0.23178 0.792763,0.12435 1.574774,0.13045 2.372614,0.0136 0.948561,-0.10647 1.893229,-0.29442 2.851333,-0.26408 0.857514,2.6e-4 1.715008,-0.005 2.572522,-0.001 0.803513,8e-4 1.60722,0.004 2.410487,-0.0196 0.877959,-0.0336 1.756412,-0.0932 2.620573,-0.26114 0.833488,-0.16341 1.668172,-0.30565 2.506345,-0.44314 0.707845,-0.12212 1.455066,-0.10002 2.114619,-0.41721 -1.594832,0.92799 -3.194981,1.8469 -4.7845,2.78396 -0.08445,0.0498 0.183629,-0.0713 0.267909,-0.12132 0.35487,-0.21081 0.614836,-0.59618 0.890193,-0.89149 0.529895,-0.56393 0.72739,-1.37159 1.04398,-2.06124 0.14437,-0.84611 0.281922,-1.67653 0.209788,-2.54086 -0.0067,-1.02315 -0.02127,-2.04897 -0.155104,-3.065 -0.145015,-0.94449 -0.398441,-1.85888 -0.711324,-2.76115 -0.355362,-0.86399 -0.717257,-1.73722 -1.255871,-2.50608 -0.4997,-0.71969 -0.864685,-1.50861 -1.291014,-2.27211 -0.421388,-0.69059 -0.776361,-1.43059 -1.323385,-2.03399 -0.448519,-0.51302 -0.922099,-0.91777 -1.604298,-1.075 -0.701524,-0.24302 -1.434544,-0.39437 -2.159069,-0.55055 -0.849717,-0.11565 -1.693762,-0.26798 -2.556049,-0.20253 -0.933972,0.0114 -1.869898,0.0269 -2.799006,0.13166 -0.910376,0.10876 -1.817857,0.29188 -2.73848,0.26319 -0.989939,-0.003 -1.979864,-0.009 -2.9698,-0.0134 -1.143928,-0.001 -2.287936,0.003 -3.431741,0.0205 -1.082056,0.0266 -2.167511,0.0664 -3.232943,0.27479 -1.086578,0.19191 -2.179262,0.30857 -3.2771,0.4174 -1.239872,0.12257 -2.48198,0.0711 -3.726223,0.10057 0,0 4.766778,-3.46327 4.766778,-3.46327 z"
       id="path3793"
       style="fill:none;stroke-width:0.26458332" />
    <path
       id="path3823"
       d="m 0,280.07974 v 16.92024 H 92.663205 V 279.98021 H 0 Z"
       style="fill:none;stroke:#000000;stroke-width:0.52916667;stroke-linecap:butt;stroke-linejoin:bevel;stroke-opacity:1;stroke-miterlimit:4;stroke-dasharray:none;stroke-dashoffset:0" />
    <path
       id="path4630"
       d="m 0,280.07974 c 0,0.38505 0,0.7701 0,1.15515 0,0.0446 0.01508759,0.26728 0,0.29745 -0.02090298,0.0418 -0.07824856,0.0574 -0.09915154,0.0992 -0.0150876,0.0302 0,0.2528 0,0.29745 0,0.0331 0,0.0661 0,0.0992 0,0.0331 0.03305051,0.0992 0,0.0992 -0.03305051,0 0,-0.0661 0,-0.0992 0,-0.0331 0,-0.0661 0,-0.0992 0,-0.0331 0,-0.0661 0,-0.0992 0,-0.0331 -0.03305051,-0.0991 0,-0.0991 0.03305051,0 0,0.0661 0,0.0991 0,0.0331 0,0.0661 0,0.0992 0,0.1322 0,0.2644 0,0.39661 0,0.3305 0,0.66101 0,0.99151 0,0.069 -0.01792825,0.4599 0,0.49576 0.02090298,0.0418 0.0843709,0.0548 0.09915154,0.0992 0.02090298,0.0627 0,0.1322 0,0.1983 0,0.0331 0.03305051,0.0992 0,0.0992 -0.03305051,0 0,-0.0661 0,-0.0992 0,-0.0331 -0.03305051,-0.0992 0,-0.0992 0.03305051,0 0,0.0661 0,0.0992 0,0.0661 0,0.13221 0,0.19831 0,0.3305 0,0.66101 0,0.99151 0,0.59491 0,1.18982 0,1.78473 0,0.1322 0,0.2644 0,0.39661 0,0.0331 0.03305051,0.0991 0,0.0991 -0.03305051,0 0,-0.0661 0,-0.0991 0,-0.0331 0,-0.0661 0,-0.0992 0,-0.2644 0.03305051,0.0331 -0.09915154,-0.0991 -0.0031887,-0.003 0,-0.2734 0,-0.29745 0,-0.0661 0,-0.1322 0,-0.1983 0,-0.0331 -0.03305051,-0.0992 0,-0.0992 0.03305051,0 0.01478063,0.0696 0,0.0992 -0.02090298,0.0418 -0.09146745,0.053 -0.09915154,0.0992 -0.0271674,0.163 0,0.3305 0,0.49575 0,0.0331 0.0147806,0.0696 0,0.0992 -0.020903,0.0418 -0.0782486,0.0573 -0.0991515,0.0991 -0.0147807,0.0296 0,0.0661 0,0.0992 0,0.0331 0,0.0661 0,0.0992 0,0.16525 0,0.33051 0,0.49576 0,0.76016 0,1.52032 0,2.28048 0,0.23136 0,0.46271 0,0.69406 0,0.0992 0,0.19831 0,0.29746 0,0.0331 0.0330505,0.0992 0,0.0992 -0.0330505,0 0.0233704,-0.0758 0,-0.0992 -0.0233704,-0.0234 -0.0757813,0.0234 -0.0991515,0 -0.0467405,-0.0467 0.0295613,-0.13918 0,-0.1983 -0.0209029,-0.0418 -0.0782485,-0.0573 -0.0991515,-0.0992 -0.0295613,-0.0591 0.0295613,-0.13918 0,-0.1983 -0.20632248,-0.41264 0.006845,0.106 -0.1983031,-0.0992 -0.003189,-0.003 0,-0.27341 0,-0.29745 0,-0.0331 0,-0.0661 0,-0.0992 0,-0.0331 -0.0330505,-0.0992 0,-0.0992 0.0330505,0 0,0.0661 0,0.0992 0,0.0519 -0.0130355,0.37054 0,0.39661 0.0209029,0.0418 0.0782486,0.0574 0.0991515,0.0992 0.0147807,0.0296 -0.0147807,0.0696 0,0.0992 0.0209029,0.0418 0.0782486,0.0573 0.0991516,0.0992 0.0147807,0.0296 -0.0147807,0.0696 0,0.0992 0.0209029,0.0418 0.0782485,0.0573 0.0991515,0.0992 0.0147807,0.0296 0,0.0661 0,0.0992 0,0.0331 0,0.0661 0,0.0992 0,0.23135 0,0.46271 0,0.69406 0,0.0992 -0.0313545,0.20339 0,0.29746 0.0147807,0.0443 0.0843709,0.0548 0.0991515,0.0992 0.0209029,0.0627 0,0.1322 0,0.1983 0,0.0661 0,0.1322 0,0.1983 0,0.33051 0,0.66101 0,0.99152 0,0.0519 -0.0130355,0.37053 0,0.39661 0.0209029,0.0418 0.0782486,0.0573 0.0991515,0.0991 0.0147806,0.0296 -0.008016,0.0671 0,0.0992 0.0253486,0.10139 0.073803,0.19606 0.09915154,0.29745 0.02154621,0.0862 0,0.29857 0,0.39661 0,0.23135 0,0.46271 0,0.69406 0,0.0467 0.0044937,0.49126 0,0.49576 -0.02337025,0.0234 -0.09915154,0.0331 -0.09915154,0 0,-0.0331 0.0757813,-0.0234 0.09915154,0 0.13220205,0.1322 -0.16525257,0.0992 0.09915154,0.0992 0.13220205,0 0.26440411,0 0.39660617,0 0.0330505,0 0.0991515,-0.0331 0.0991515,0 0,0.0331 -0.066101,0 -0.0991515,0 -0.0991515,0 -0.19830309,0 -0.29745463,0 -0.13220205,0 -0.26440411,0 -0.39660616,0 -0.0330505,0 -0.0991515,0.0331 -0.0991515,0 0,-0.0331 0.066101,0 0.0991515,0 0.066101,0 0.13220205,0 0.19830308,0 0.39660616,0 0.79321233,0 1.18981844,0 0.232528,0 -0.04674,0.0234 0.1983031,-0.0992 0.029561,-0.0148 0.06959,0.0148 0.099152,0 0.041806,-0.0209 0.057346,-0.0783 0.099152,-0.0992 0.059123,-0.0296 0.1391805,0.0296 0.1983031,0 0.041806,-0.0209 0.057345,-0.0783 0.099151,-0.0992 0.030175,-0.0151 0.252801,0 0.2974546,0 0.1983031,0 0.3966062,0 0.5949092,0 0.03305,0 0.075782,0.0234 0.099152,0 0.023371,-0.0234 -0.023371,-0.0758 0,-0.0992 0.023371,-0.0234 0.075781,-0.0234 0.099152,0 0.067356,0.0674 -0.1013806,0.19719 0.099152,0.29746 0.025636,0.0128 0.5246304,0 0.5949093,0 0.2974546,0 0.5949093,0 0.8923636,0 0.033051,0 0.066101,0 0.099152,0 0.033051,0 0.075781,0.0234 0.099151,0 0.023371,-0.0234 -0.023371,-0.0758 0,-0.0992 0.00449,-0.005 0.449008,0 0.4957578,0 0.033051,0 0.075781,0.0234 0.099152,0 0.023371,-0.0234 -0.023371,-0.0758 0,-0.0992 0.00962,-0.01 0.457974,0 0.4957578,0 0.03305,0 0.075781,0.0234 0.099151,0 0.023371,-0.0234 -0.029561,-0.0844 0,-0.0992 0.088684,-0.0443 0.1983031,0 0.2974547,0 0.1983031,0 0.3966062,0 0.5949093,0 0.051848,0 0.3705349,0.013 0.3966062,0 0.041806,-0.0209 0.057345,-0.0783 0.099151,-0.0992 0.029561,-0.0148 0.132202,0 0.099151,0 -0.039196,0 -0.4534117,-0.0212 -0.4957575,0 -0.041806,0.0209 -0.057346,0.0782 -0.099151,0.0992 -0.060207,0.0301 -0.5347023,-0.0301 -0.5949093,0 -0.041806,0.0209 -0.057346,0.0782 -0.099152,0.0992 -0.029561,0.0148 -0.067797,-0.0105 -0.099152,0 -0.070111,0.0234 -0.1281925,0.0758 -0.1983031,0.0992 -0.062709,0.0209 -0.1515626,-0.0467 -0.1983031,0 -0.023371,0.0234 0.031354,0.0887 0,0.0992 -0.094063,0.0313 -0.2046161,-0.0348 -0.2974547,0 -0.1804455,0.0677 -0.3233872,0.21127 -0.4957577,0.29745 -0.029561,0.0148 -0.075781,-0.0234 -0.099152,0 -0.023371,0.0234 0.023371,0.0758 0,0.0992 -0.046741,0.0467 -0.1515626,-0.0467 -0.1983031,0 -0.023371,0.0234 0.023371,0.0758 0,0.0992 -0.2644039,0 0.033051,-0.0331 -0.099151,0.0992 -0.00319,0.003 -0.2734078,0 -0.2974547,0 -0.033051,0 -0.1322022,0 -0.099151,0 0.088907,0 0.7460596,-0.0157 0.7932121,0 0.044342,0.0148 0.057346,0.0783 0.099152,0.0992 0.053329,0.0267 0.3174223,-0.0158 0.3966062,0 0.1336247,0.0267 0.2629818,0.0724 0.3966062,0.0992 0.032409,0.006 0.067797,-0.0104 0.099152,0 0.070111,0.0234 0.1266065,0.0812 0.1983031,0.0992 0.073597,0.0184 0.3661722,-0.0304 0.3966062,0 0.084263,0.0843 0.1140404,0.21319 0.1983031,0.29746 0.023371,0.0234 0.066101,0 0.099152,0 0.1983031,0 0.3966062,0 0.5949093,0 0.03305,0 0.075781,-0.0234 0.099151,0 0.046741,0.0467 -0.029561,0.13918 0,0.1983 0.020902,0.0418 0.057346,0.0783 0.099152,0.0992 0.030146,0.0151 0.32814,0 0.3966062,0 0.033051,0 0.066101,0 0.099152,0 0.033051,0 0.06959,0.0148 0.099151,0 0.041806,-0.0209 0.057346,-0.0782 0.099152,-0.0992 0.029561,-0.0148 0.06959,0.0148 0.099151,0 0.041806,-0.0209 0.057346,-0.0782 0.099152,-0.0991 0.054225,-0.0271 0.2299774,0.0169 0.2974546,0 0.1013944,-0.0254 0.1960602,-0.0738 0.2974547,-0.0992 0.081393,-0.0204 0.3383108,0.0291 0.3966061,0 0.412645,-0.20633 -0.1059965,0.007 0.099152,-0.19831 0.023371,-0.0234 0.066101,0 0.099151,0 0.066101,0 0.132202,0 0.1983031,0 0.03305,0 0.132202,0 0.099152,0 -0.5618589,0 -1.1237175,0 -1.6855763,0 -0.1983031,0 -0.3966062,0 -0.5949093,0 -0.023561,0 -0.3743833,-0.0111 -0.3966059,0 -0.041806,0.0209 -0.057346,0.0782 -0.099152,0.0991 -0.035857,0.0179 -0.4267938,0 -0.4957577,0 -0.033051,0 -0.075781,0.0234 -0.099152,0 -0.023371,-0.0234 0,-0.0661 0,-0.0991 0,-0.0468 -0.00449,-0.49126 0,-0.49575 0.023371,-0.0234 0.066101,0 0.099152,0 0.232528,0 -0.046741,0.0234 0.1983031,-0.0992 0.029561,-0.0148 0.06959,0.0148 0.099151,0 0.041806,-0.0209 0.057346,-0.0782 0.099152,-0.0992 0.064926,-0.0325 0.4077673,0.0293 0.4957574,0 0.070111,-0.0234 0.1266066,-0.0812 0.1983031,-0.0992 0.096191,-0.024 0.2033913,0.0314 0.2974547,0 0.070111,-0.0234 0.1266065,-0.0812 0.1983031,-0.0991 0.1282549,-0.0321 0.278361,0.0591 0.3966062,0 0.029561,-0.0148 -0.029561,-0.0844 0,-0.0992 0.088684,-0.0443 0.1983031,0 0.2974546,0 0.2313535,0 0.4627071,0 0.6940608,0 0.5288079,0 1.0576159,0 1.5864239,0 0.132292,0 0.429478,0 0.694061,0 0.03305,0 0.0678,0.0104 0.09915,0 0.07011,-0.0234 0.126606,-0.0812 0.198303,-0.0992 0.09619,-0.024 0.198303,0 0.297454,0 0.264404,0 0.528809,0 0.793213,0 0.198303,0 0.396606,0 0.594909,0 0.03305,0 0.09915,-0.0331 0.09915,0 0,0.0331 -0.0661,0 -0.09915,0 -0.132202,0 -0.264404,0 -0.396606,0 -0.264404,0 0.03305,-0.0331 -0.09915,0.0992 -0.02337,0.0234 -0.0661,0 -0.09915,0 -0.03305,0 -0.0661,0 -0.09915,0 -0.165252,0 -0.330505,0 -0.495757,0 -0.03305,0 -0.0661,0 -0.09915,0 -0.03305,0 -0.06959,-0.0148 -0.09915,0 -0.04181,0.0209 -0.05734,0.0782 -0.09915,0.0992 -0.03586,0.0179 -0.426794,0 -0.495758,0 -0.04465,0 -0.267279,-0.0151 -0.297454,0 -0.04181,0.0209 -0.05735,0.0782 -0.09915,0.0991 -0.02956,0.0148 -0.0661,0 -0.09915,0 -0.03305,0 -0.0661,0 -0.09915,0 -0.0661,0 -0.264404,0 -0.198303,0 0.165252,0 0.330505,0 0.495758,0 0.08116,0 0.565898,0.0145 0.594909,0 0.02956,-0.0148 -0.02337,-0.0758 0,-0.0991 0.02337,-0.0234 0.0661,0 0.09915,0 0.165253,0 0.330505,0 0.495758,0 0.892364,0 1.784728,0 2.677092,0 0.231353,0 0.462707,0 0.69406,0 0.06515,0 0.241514,0.0186 0.297455,0 0.07011,-0.0234 0.128192,-0.0758 0.198303,-0.0992 0.03135,-0.0104 0.0661,0 0.09915,0 0.0661,0 0.132202,0 0.198303,0 0.03305,0 0.09915,-0.0331 0.09915,0 0,0.0331 -0.0661,0 -0.09915,0 -0.09915,0 -0.198303,0 -0.297455,0 -0.03305,0 -0.0661,0 -0.09915,0 -0.03305,0 -0.06959,-0.0148 -0.09915,0 -0.04181,0.0209 -0.05735,0.0782 -0.09915,0.0992 -0.06232,0.0312 -0.334287,-0.0312 -0.396606,0 -0.04181,0.0209 -0.05734,0.0782 -0.09915,0.0991 -0.02956,0.0148 -0.0661,0 -0.09915,0 -0.0661,0 -0.132202,0 -0.198303,0 -0.03305,0 -0.132202,0 -0.09915,0 0.495757,0 0.991515,0 1.487273,0 0.165252,0 0.330505,0 0.495757,0 0.0661,0 0.135595,-0.0209 0.198303,0 0.341797,0.11393 0.07345,0.0992 0.297455,0.0992 0.363556,0 0.727111,0 1.090667,0 0.0974,0 0.529331,-0.0219 0.594909,0 0.07011,0.0234 0.136812,0.0582 0.198303,0.0992 0.15111,0.10074 0.05782,0.15837 0.297455,0.19831 0.130403,0.0217 0.264404,0 0.396606,0 0.03305,0 0.06674,-0.006 0.09915,0 0.575917,0.11518 0.204463,0.0992 0.594909,0.0992 0.09523,0 0.742419,-0.0169 0.793212,0 0.03136,0.0104 -0.02956,0.0844 0,0.0992 0.08868,0.0443 0.198303,0 0.297455,0 0.297454,0 0.594909,0 0.892364,0 0.132202,0 0.264404,0 0.396606,0 0.03305,0 0.09915,-0.0331 0.09915,0 0,0.0331 -0.0661,0 -0.09915,0 -0.132292,0 -0.06601,0 -0.198303,0 -0.297455,0 -0.59491,0 -0.892364,0 -0.132202,0 -0.264404,0 -0.396606,0 -0.03305,0 -0.09915,0.0331 -0.09915,0 0,-0.0661 0.139181,0.0296 0.198303,0 0.412645,-0.20632 -0.105996,0.007 0.09915,-0.1983 0.0045,-0.005 0.449008,0 0.495757,0 0.03305,0 0.07578,0.0234 0.09915,0 0.02337,-0.0234 -0.02337,-0.0758 0,-0.0992 0.02337,-0.0234 0.0678,0.0105 0.09915,0 0.07011,-0.0234 0.128192,-0.0758 0.198303,-0.0992 0.06271,-0.0209 0.151562,0.0467 0.198303,0 0.02337,-0.0234 -0.02337,-0.0758 0,-0.0992 0.03214,-0.0321 0.432826,0.0315 0.495757,0 0.04181,-0.0209 0.05735,-0.0782 0.09915,-0.0992 0.05912,-0.0296 0.135594,0.0209 0.198303,0 0.168849,-0.0563 0.324623,-0.14941 0.495758,-0.1983 0.06356,-0.0182 0.132202,0 0.198303,0 0.09915,0 0.198303,0 0.297454,0 0.03305,0 0.06959,0.0148 0.09915,0 0.04181,-0.0209 0.05481,-0.0844 0.09915,-0.0992 0.06271,-0.0209 0.132203,0 0.198304,0 0.198303,0 0.396606,0 0.594909,0 0.09915,0 0.201263,0.024 0.297454,0 0.04535,-0.0113 0.0661,-0.0661 0.09915,-0.0992 0.0661,0 0.132202,0 0.198303,0 0.65769,0 -0.140221,0.0467 0.297455,-0.0992 0.09406,-0.0314 0.198303,0 0.297455,0 0.165254,0 0.330504,0 0.495758,0 0.03305,0 0.0661,0 0.09915,0 0.03305,0 0.09915,-0.0331 0.09915,0 0,0.0331 -0.0661,0 -0.09915,0 -0.132291,0 -0.06601,0 -0.198305,0 -0.330504,0 -0.661008,0 -0.991515,0 -0.528807,0 -1.057615,0 -1.586424,0 -0.03305,0 -0.0661,0 -0.09915,0 -0.03305,0 -0.07578,-0.0234 -0.09915,0 -0.02337,0.0234 0.02337,0.0758 0,0.0992 -0.004,0.004 -0.360194,0 -0.396606,0 -0.08861,0 -0.464161,-0.0158 -0.495757,0 -0.106585,0.0533 -0.19087,0.14502 -0.297455,0.19831 -0.03017,0.0151 -0.252801,0 -0.297455,0 -0.03305,0 -0.132202,0 -0.09915,0 0.694061,0 1.388121,0 2.082182,0 0.231354,0 0.462707,0 0.694061,0 0.06515,0 0.241513,0.0186 0.297454,0 0.07011,-0.0234 0.128192,-0.0758 0.198304,-0.0992 0.09539,-0.0318 0.292857,0.0259 0.396605,0 0.101396,-0.0254 0.196062,-0.0738 0.297455,-0.0992 0.03206,-0.008 0.0661,0 0.09915,0 0.132201,0 0.264403,0 0.396605,0 0.297455,0 0.59491,0 0.892363,0 0.925414,0 1.850829,0 2.776244,0 0.03305,0 -0.0661,0 -0.09915,0 -0.0661,0 -0.132205,0 -0.198306,0 -0.231351,0 -0.462706,0 -0.69406,0 -0.319164,0 0.169262,-0.0234 -0.198302,0.0992 -0.06271,0.0209 -0.132202,0 -0.198303,0 -0.09915,0 -0.198303,0 -0.297455,0 -0.03305,0 -0.07578,-0.0234 -0.09915,0 -0.02336,0.0234 0.02956,0.0844 0,0.0992 -0.05912,0.0296 -0.132201,0 -0.198302,0 -0.198303,0 -0.396605,0 -0.594908,0 -0.03305,0 -0.0661,0 -0.09915,0 -0.03305,0 -0.06959,-0.0148 -0.09915,0 -0.0418,0.0209 -0.05735,0.0782 -0.09915,0.0992 -0.02956,0.0148 -0.0661,0 -0.09915,0 -0.0661,0.0331 -0.136811,0.0582 -0.198302,0.0991 -0.03889,0.0259 -0.05735,0.0783 -0.09915,0.0992 -0.03586,0.0179 -0.426791,0 -0.495758,0 -0.0661,0 -0.132201,0 -0.198302,0 -0.03305,0 -0.09915,0.0331 -0.09915,0 0,-0.0331 0.0661,0 0.09915,0 0.03305,0 0.0661,0 0.09915,0 1.784729,0 3.569454,0 5.354183,0 0.59491,0 1.189818,0 1.784728,0 0.231355,0 0.462706,0 0.694061,0 0.09915,0 0.198302,0 0.297455,0 0.03305,0 0.09915,-0.0331 0.09915,0 0,0.0331 -0.0661,0 -0.09915,0 -0.198303,0 -0.396608,0 -0.594911,0 -0.198302,0 -0.396605,0 -0.594907,0 -0.03305,0 -0.09915,0.0331 -0.09915,0 0,-0.0331 0.0661,0 0.09915,0 0.03305,0 0.0661,0 0.09915,0 0.132201,0 0.264403,0 0.396607,0 0.03305,0 0.06959,0.0148 0.09915,0 0.04181,-0.0209 0.05241,-0.0992 0.09915,-0.0992 0.04674,0 0.05735,0.12006 0.09915,0.0992 0.0661,-0.0331 0.04689,-0.14604 0.09915,-0.1983 0.04674,-0.0467 0.139181,0.0296 0.198302,0 0.04181,-0.0209 0.05381,-0.0878 0.09915,-0.0992 0.07422,-0.0186 1.055978,0 1.090665,0 0.793213,0 1.586426,0 2.379639,0 0.165251,0 0.333714,0.0324 0.495758,0 0.04583,-0.009 0.05332,-0.09 0.09915,-0.0992 0.114218,-0.0229 0.732438,0 0.892365,0 0.561859,0 1.123717,0 1.685576,0 0.198303,0 0.396605,0 0.594908,0 0.03305,0 0.09915,-0.0331 0.09915,0 0,0.0331 -0.06959,-0.0148 -0.09915,0 -0.04181,0.0209 -0.05735,0.0782 -0.09915,0.0992 -0.02956,0.0148 -0.0661,0 -0.09915,0 -0.03305,0 -0.0661,0 -0.09915,0 -0.165253,0 -0.330507,0 -0.495758,0 -0.06515,0 -0.241514,-0.0187 -0.297455,0 -0.07011,0.0234 -0.128193,0.0758 -0.198302,0.0992 -0.06271,0.0209 -0.139182,-0.0296 -0.198306,0 -0.0418,0.0209 -0.05734,0.0782 -0.09915,0.0991 -0.05379,0.0269 -0.369477,-0.0271 -0.396607,0 -0.02336,0.0234 0.02336,0.0758 0,0.0992 -0.05453,0.0545 -0.396605,-0.0961 -0.396605,0.0992 0,0.0331 0.0661,0 0.09915,0 0.03305,0 0.0661,0 0.09915,0 0.03725,0 0.493284,0.002 0.495758,0 0.02336,-0.0234 -0.02956,-0.0844 0,-0.0992 0.04214,-0.0211 0.412668,0 0.495758,0 0.429657,0 0.859313,0 1.28897,0 0.429657,0 0.859314,0 1.288971,0 0.05713,0 0.459618,0.0181 0.495758,0 0.464674,-0.23234 -0.834943,-0.0394 0.594907,-0.1983 0.218618,-0.0243 0.469586,0 0.694061,0 0.0661,0 0.133487,0.013 0.198305,0 0.102484,-0.0205 0.194969,-0.0787 0.297452,-0.0992 0.108752,-0.0217 0.457523,0 0.594911,0 0.08592,0 0.339169,-0.0192 0.396605,0 0.07011,0.0234 0.128193,0.0758 0.198305,0.0992 0.07981,0.0266 0.333245,-0.0317 0.396605,0 0.04181,0.0209 0.05481,0.0844 0.09915,0.0991 0.09406,0.0314 0.198302,0 0.297452,0 0.264406,0 0.52881,0 0.793213,0 0.285967,0 0.131456,-0.008 0.495758,-0.0991 0.141057,-0.0353 0.363842,0.044 0.495758,0 0.04434,-0.0148 0.05481,-0.0844 0.09915,-0.0992 0.06271,-0.0209 0.132202,0 0.198303,0 0.165253,0 0.330504,0 0.495758,0 0.0661,0 0.132201,0 0.198302,0 0.03305,0 0.0678,0.0104 0.09915,0 0.07011,-0.0234 0.128191,-0.0758 0.198302,-0.0992 0.03135,-0.0105 0.0678,0.0104 0.09915,0 0.07011,-0.0234 0.125836,-0.0847 0.198306,-0.0992 0.09722,-0.0194 0.198302,0 0.297452,0 0.231354,0 0.462709,0 0.694063,0 0.03305,0 0.0661,0 0.09915,0 0.03305,0 0.09915,-0.0331 0.09915,0 0,0.0331 -0.0661,0 -0.09915,0 -0.132202,0 -0.264403,0 -0.396605,0 -0.03641,0 -0.392618,-0.004 -0.396608,0 -0.02336,0.0234 0.02956,0.0844 0,0.0992 -0.08868,0.0443 -0.208769,-0.0444 -0.297452,0 -0.245044,0.12252 0.03422,0.0992 -0.198306,0.0992 -0.198302,0 -0.396605,0 -0.594907,0 -0.03305,0 -0.07578,-0.0234 -0.09915,0 -0.02336,0.0234 -0.02336,0.0758 0,0.0992 0.02336,0.0234 0.0661,0 0.09915,0 0.03305,0 0.0661,0 0.09915,0 0.297455,0 0.59491,0 0.892365,0 0.429657,0 0.859314,0 1.288971,0 0.165251,0 0.330504,0 0.495758,0 0.0661,0 0.132201,0 0.198302,0 0.03305,0 0.0678,-0.0105 0.09915,0 0.625181,0.20839 -0.435774,-0.008 0.59491,0.1983 0.06482,0.013 0.132202,0 0.198303,0 0.198303,0 0.396605,0 0.59491,0 0.0661,0 0.139179,-0.0296 0.198303,0 0.02956,0.0148 -0.02956,0.0844 0,0.0992 0.05912,0.0296 0.132202,0 0.198303,0 0.09915,0 0.201263,-0.024 0.297455,0 0.09069,0.0227 0.114691,0.1565 0.198302,0.19831 0.03018,0.0151 0.252802,0 0.297455,0 0.231355,0 0.462706,0 0.694061,0 0.198302,0 0.396605,0 0.59491,0 0.03305,0 0.09915,-0.0331 0.09915,0 0,0.0331 -0.0661,0 -0.09915,0 -0.09915,0 -0.198305,0 -0.297455,0 -0.231354,0 -0.462709,0 -0.69406,0 -0.330507,0 -0.661012,0 -0.991516,0 -0.0661,0 -0.132202,0 -0.198305,0 -0.03305,0 -0.09915,0.0331 -0.09915,0 0,-0.0331 0.0661,0 0.09915,0 0.03305,0 0.0661,0 0.09915,0 0.231354,0 0.462708,0 0.69406,0 0.393594,0 -0.03481,0.0116 0.892365,-0.29746 0.07929,-0.0264 0.402577,0.0186 0.495758,0 0.102484,-0.0205 0.198303,-0.0661 0.297453,-0.0992 0.264406,-0.0331 0.52838,-0.0697 0.793213,-0.0991 0.228562,-0.0254 0.464965,0.0208 0.69406,0 0.298056,-0.0271 0.593661,-0.0805 0.892365,-0.0992 0.230902,-0.0144 0.462706,0 0.694061,0 0.09915,0 0.20339,0.0313 0.297455,0 0.04434,-0.0148 0.05332,-0.09 0.09915,-0.0992 0.129635,-0.0259 0.264406,0 0.396608,0 0.132201,0 0.264403,0 0.396605,0 0.69406,0 1.38812,0 2.082183,0 0.07579,0 0.666163,-0.014 0.694061,0 0.0418,0.0209 0.09915,0.0524 0.09915,0.0992 0,0.0331 -0.06959,-0.0148 -0.09915,0 -0.04181,0.0209 -0.07825,0.0573 -0.09915,0.0992 -0.02956,0.0591 0.04674,0.15156 0,0.1983 -0.02336,0.0234 -0.07578,-0.0234 -0.09915,0 -0.02336,0.0234 0.02336,0.0758 0,0.0992 -0.05226,0.0523 -0.146047,0.0469 -0.198305,0.0992 -0.02336,0.0234 0.02336,0.0758 0,0.0992 -0.04674,0.0467 -0.135594,-0.0209 -0.198303,0 -0.0661,0.0331 -0.132201,0.0661 -0.198302,0.0992 0,0.0331 0.02336,0.0758 0,0.0992 -0.386961,0.38696 -0.05325,-0.0229 -0.297455,0.0992 -0.118981,0.0595 -0.178473,0.23797 -0.297456,0.29746 -0.05912,0.0296 -0.151561,-0.0467 -0.198302,0 -0.02336,0.0234 0.03305,0.0992 0,0.0992 -0.360164,0 -0.07012,-0.22734 -0.297455,0 -0.113443,0.11344 -0.117372,0.13827 -0.297453,0.1983 -0.0831,0.0277 -0.330896,-0.0328 -0.396608,0 -0.0418,0.0209 -0.05735,0.0783 -0.09915,0.0992 -0.02956,0.0148 -0.132201,0 -0.09915,0 0.07278,0 0.560342,0.0173 0.59491,0 0.0418,-0.0209 0.05735,-0.0782 0.09915,-0.0992 0.05912,-0.0296 0.151564,0.0467 0.198303,0 0.02336,-0.0234 -0.02336,-0.0758 0,-0.0992 9.5e-5,-1e-4 0.297005,1.5e-4 0.297455,0 0.04434,-0.0148 0.06026,-0.0732 0.09915,-0.0991 0.06149,-0.041 0.128191,-0.0758 0.198303,-0.0992 0.06271,-0.0209 0.139181,0.0296 0.198303,0 0.04181,-0.0209 0.05381,-0.0878 0.09915,-0.0992 0.09619,-0.024 0.200229,0.0195 0.297455,0 0.07247,-0.0145 0.125833,-0.0846 0.198303,-0.0991 0.144642,-0.0289 0.562099,0.044 0.69406,0 0.03135,-0.0105 -0.02956,-0.0844 0,-0.0992 0.0286,-0.0143 0.53154,0 0.594911,0 0.528806,0 1.057616,0 1.586423,0 0.231354,0 0.462708,0 0.69406,0 0.09915,0 0.198303,0 0.297455,0 0.03305,0 0.09915,-0.0331 0.09915,0 0,0.0117 -0.282874,-0.0146 -0.297455,0 -0.02336,0.0234 0.02336,0.0758 0,0.0992 -0.02713,0.0271 -0.342818,-0.0269 -0.396608,0 -0.0418,0.0209 -0.05734,0.0782 -0.09915,0.0991 -0.02956,0.0148 -0.0661,0 -0.09915,0 -0.03305,0 -0.0661,0 -0.09915,0 -0.198305,0 -0.396607,0 -0.59491,0 -0.132202,0 -0.264403,0 -0.396605,0 -0.03305,0 -0.09915,0.0331 -0.09915,0 0,-0.033 0.0661,0 0.09915,0 0.03305,0 0.0661,0 0.09915,0 0.232529,0 -0.04674,0.0234 0.198302,-0.0991 0.05912,-0.0296 0.135597,0.0209 0.198306,0 0.07011,-0.0234 0.12819,-0.0758 0.198302,-0.0992 0.08572,-0.0286 0.432665,0.0315 0.495758,0 0.04181,-0.0209 0.05735,-0.0783 0.09915,-0.0992 0.05912,-0.0296 0.135596,0.0209 0.198305,0 0.07011,-0.0234 0.128191,-0.0758 0.198303,-0.0992 0.03135,-0.0104 0.0661,0 0.09915,0 0.0661,0 0.132868,0.009 0.198305,0 0.16683,-0.0238 0.329525,-0.0714 0.495758,-0.0992 0.0978,-0.0163 0.198302,0 0.297452,0 0.03705,0 0.665631,0.009 0.694063,0 0.03135,-0.0104 -0.02956,-0.0844 0,-0.0992 0.0277,-0.0139 0.560189,0.006 0.594908,0 0.103092,-0.0172 0.196061,-0.0738 0.297455,-0.0992 0.03207,-0.008 0.0678,0.0104 0.09915,0 0.07011,-0.0234 0.126605,-0.0812 0.198302,-0.0992 0.06413,-0.016 0.132202,0 0.198303,0 0.231354,0 0.462706,0 0.69406,0 0.59491,0 1.189818,0 1.784728,0 0.297456,0 0.594908,0 0.892363,0 0.132202,0 0.264404,0 0.396608,0 0.03305,0 0.09915,-0.0331 0.09915,0 0,0.0331 -0.0661,0 -0.09915,0 -0.05185,0 -0.370536,-0.013 -0.396608,0 -0.0418,0.0209 -0.05735,0.0783 -0.09915,0.0992 -0.04412,0.0221 -0.351255,-0.0151 -0.396608,0 -0.04434,0.0148 -0.05734,0.0783 -0.09915,0.0992 -0.02956,0.0148 -0.0661,0 -0.09915,0 -0.0991,0 -0.41093,-0.0212 -0.495758,0 -0.101393,0.0254 -0.196059,0.0738 -0.297455,0.0992 -0.06601,0.0165 -0.579385,0 -0.594908,0 -0.231354,0 -0.462708,0 -0.69406,0 -0.04465,0 -0.267279,-0.0151 -0.297455,0 -0.04181,0.0209 -0.05735,0.0783 -0.09915,0.0992 -0.06021,0.0301 -0.534702,-0.0301 -0.594907,0 -0.04181,0.0209 -0.05481,0.0844 -0.09915,0.0992 -0.09164,0.0306 -0.40327,-0.0308 -0.495758,0 -0.07011,0.0234 -0.128193,0.0758 -0.198302,0.0992 -0.05594,0.0186 -0.232302,0 -0.297456,0 -0.165253,0 -0.330504,0 -0.495757,0 -0.09915,0 -0.198303,0 -0.297455,0 -0.03305,0 -0.09915,0.0331 -0.09915,0 0,-0.0331 0.0661,0 0.09915,0 0.03305,0 0.0661,0 0.09915,0 0.132202,0 0.264404,0 0.396605,0 0.286658,0 -0.05706,-0.11318 0.198303,-0.1983 0.06271,-0.0209 0.135596,0.0209 0.198305,0 0.367564,-0.12252 -0.120862,-0.0992 0.198303,-0.0992 0.09915,0 0.198302,0 0.297455,0 0.03305,0 0.0678,0.0104 0.09915,0 0.07011,-0.0234 0.126606,-0.0812 0.198302,-0.0992 0.326988,-0.0817 0.659903,-0.13801 0.991516,-0.19831 0.128074,-0.0233 0.268123,0.0214 0.396608,0 0.166232,-0.0277 0.332263,-0.0583 0.495757,-0.0992 0.598107,-0.14953 -0.01709,-0.10736 0.892363,-0.1983 0.131546,-0.0132 0.264404,0 0.396605,0 0.165254,0 0.330507,0 0.495758,0 0.59491,0 1.189821,0 1.784728,0 0.462709,0 0.925415,0 1.388124,0 0.09915,0 0.198302,0 0.297452,0 0.03305,0 0.09915,-0.0331 0.09915,0 0,0.0331 -0.0661,0 -0.09915,0 -0.09915,0 -0.198302,0 -0.297452,0 -0.231355,0 -0.462709,0 -0.694063,0 -0.231352,0 -0.462706,0 -0.694061,0 -0.09915,0 -0.198302,0 -0.297455,0 -0.03305,0 -0.09915,0.0331 -0.09915,0 0,-0.0331 0.0661,0 0.09915,0 0.132205,0 0.264406,0 0.396608,0 0.297455,0 0.594908,0 0.892363,0 0.495758,0 0.991515,0 1.487273,0 0.477245,0 0.904462,0.002 1.388121,0.0992 0.07247,0.0145 0.126608,0.0812 0.198305,0.0991 0.06413,0.016 0.132202,0 0.198303,0 0.104171,0 0.397364,-0.0197 0.495757,0 0.102484,0.0205 0.194969,0.0787 0.297455,0.0992 0.09722,0.0195 0.198303,0 0.297453,0 0.198305,0 0.396608,0 0.59491,0 0.04465,0 0.26728,-0.0151 0.297456,0 0.0418,0.0209 0.05734,0.0783 0.09915,0.0992 0.02956,0.0148 0.09915,-0.0331 0.09915,0 0,0.0331 -0.0661,0 -0.09915,0 -0.0661,0 -0.132201,0 -0.198302,0 -0.0661,0 -0.135594,-0.0209 -0.198303,0 -0.367564,0.12253 0.120862,0.0992 -0.198302,0.0992 -0.05185,0 -0.370536,-0.013 -0.396608,0 -0.0418,0.0209 -0.05481,0.0844 -0.09915,0.0992 -0.05801,0.0193 -0.509804,0 -0.59491,0 -0.462706,0 -0.925415,0 -1.388121,0 -0.264403,0 -0.528809,0 -0.793213,0 -0.03305,0 -0.0661,0 -0.09915,0 -0.03305,0 -0.07578,-0.0234 -0.09915,0 -0.02336,0.0234 0.02336,0.0758 0,0.0992 -0.02336,0.0234 -0.0661,0 -0.09915,0 -0.03305,0 -0.0661,0 -0.09915,0 -0.09915,0 -0.198303,0 -0.297455,0 -0.03305,0 -0.09915,0.0331 -0.09915,0 0,-0.0118 0.456838,0.013 0.495758,0 0.07011,-0.0234 0.128193,-0.0758 0.198303,-0.0992 0.101597,-0.0339 0.404868,0.0364 0.495757,0 0.110644,-0.0443 0.182489,-0.16695 0.297455,-0.19831 0.257075,-0.0701 0.531927,-0.0469 0.793213,-0.0992 0.07247,-0.0145 0.132202,-0.0661 0.198303,-0.0992 0.495758,-0.0331 0.991272,-0.07 1.487273,-0.0991 0.230955,-0.0136 0.462709,0 0.69406,0 0.165254,0 0.332166,0.0234 0.495758,0 0.07316,-0.0105 0.128194,-0.0758 0.198305,-0.0992 0.05948,-0.0198 0.416637,0 0.495758,0 0.330504,0 0.661009,0 0.991513,0 0.09915,0 0.198305,0 0.297455,0 0.03305,0 0.09915,-0.0331 0.09915,0 0,0.0331 -0.0661,0 -0.09915,0 -0.03305,0 -0.0661,0 -0.09915,0 -0.132201,0 -0.264406,0 -0.396608,0 -0.03305,0 -0.06959,-0.0148 -0.09915,0 -0.08361,0.0418 -0.114691,0.15649 -0.198305,0.1983 -0.03931,0.0197 -0.277183,-0.0203 -0.297452,0 -0.02336,0.0234 0.02336,0.0758 0,0.0992 -0.01929,0.0193 -0.459552,-0.0181 -0.495758,0 -0.02956,0.0148 0.02336,0.0758 0,0.0992 -0.02336,0.0234 -0.07578,-0.0234 -0.09915,0 -0.02336,0.0234 -0.02336,0.0758 0,0.0992 0.02336,0.0234 0.0661,0 0.09915,0 0.198303,0 0.396605,0 0.594908,0 0.363556,0 0.727112,0 1.090668,0 0.112736,0 0.496435,0.0197 0.594908,0 0.102486,-0.0205 0.196061,-0.0738 0.297455,-0.0992 0.03206,-0.008 0.0661,0 0.09915,0 0.198303,0 0.396605,0 0.594908,0 0.709631,0 1.1903,0 1.685578,0 0.198303,0 0.396606,0 0.594908,0 0.0661,0 0.135594,0.0209 0.198303,0 0.07011,-0.0234 0.126608,-0.0812 0.198305,-0.0992 0.102709,-0.0257 0.282911,0 0.396605,0 0.231354,0 0.462706,0 0.69406,0 0.02405,0 0.294267,0.003 0.297456,0 0.02336,-0.0234 -0.02336,-0.0758 0,-0.0992 0.02336,-0.0234 0.0661,0 0.09915,0 0.0661,0 0.139182,-0.0296 0.198306,0 0.02956,0.0148 -0.02956,0.0844 0,0.0992 0.08868,0.0443 0.198302,0 0.297452,0 0.231355,0 0.462709,0 0.694063,0 0.03305,0 0.0661,0 0.09915,0 0.03305,0 0.07578,0.0234 0.09915,0 0.02336,-0.0234 0,-0.0661 0,-0.0992 0,-0.2644 0,-0.52881 0,-0.79321 0,-0.0798 -0.02074,-0.33438 0,-0.39661 0.02336,-0.0701 0.07578,-0.12819 0.09915,-0.1983 0.0195,-0.0585 0,-0.44036 0,-0.49576 0,-0.0331 -0.02336,-0.0758 0,-0.0992 0.02336,-0.0234 0.08437,0.0296 0.09915,0 0.02956,-0.0591 0,-0.1322 0,-0.1983 0,-0.19831 0,-0.39661 0,-0.59491 0,-0.0992 -0.03135,-0.20339 0,-0.29746 0.01479,-0.0443 0.08437,-0.0548 0.09915,-0.0992 0.01775,-0.0533 0,-0.31266 0,-0.3966 0,-0.0661 0,-0.13221 0,-0.19831 0,-0.0331 -0.03305,-0.0992 0,-0.0992 0.03305,0 0.03305,0.0992 0,0.0992 -0.04674,0 -0.05735,-0.0783 -0.09915,-0.0992 -0.08206,-0.041 -0.166055,0.0347 -0.198302,0.0992 -0.02689,0.0538 0.02713,0.36948 0,0.39661 -0.02336,0.0234 -0.07578,-0.0234 -0.09915,0 -0.02336,0.0234 0,0.0661 0,0.0992 0,0.053 0.01418,0.46738 0,0.49576 -0.0209,0.0418 -0.07825,0.0573 -0.09915,0.0992 -0.03116,0.0623 0.03116,0.33429 0,0.39661 -0.0209,0.0418 -0.07825,0.0573 -0.09915,0.0991 -0.01508,0.0301 0,0.32814 0,0.3966 0,0.33051 0,0.66101 0,0.99152 0,0.0661 0,0.1322 0,0.1983 0,0.0331 0.03305,0.0992 0,0.0992 -0.03305,0 0,-0.0661 0,-0.0992 0,-0.0661 0,-0.1322 0,-0.1983 0,-0.0685 0.01508,-0.36646 0,-0.39661 -0.122521,-0.24504 -0.09915,0.0342 -0.09915,-0.1983 0,-0.0446 0.01508,-0.26728 0,-0.29746 -0.0209,-0.0418 -0.07825,-0.0573 -0.09915,-0.0992 -0.02914,-0.0583 0.02209,-0.40736 0,-0.49575 -0.02535,-0.1014 -0.0738,-0.19606 -0.09915,-0.29746 -0.0204,-0.0816 0,-0.50394 0,-0.59491 0,-0.3966 0,-0.79321 0,-1.18982 0,-0.23252 -0.02336,0.0467 0.09915,-0.1983 0.03899,-0.078 -0.08595,-0.39661 0.09915,-0.39661 0.03305,0 0.01479,0.0696 0,0.0992 -0.0209,0.0418 -0.07825,0.0573 -0.09915,0.0992 -0.01479,0.0296 0.01479,0.0696 0,0.0992 -0.122523,0.24504 -0.09915,-0.0342 -0.09915,0.1983 0,0.0519 0.01304,0.37054 0,0.39661 -0.0209,0.0418 -0.07825,0.0573 -0.09915,0.0992 -0.01479,0.0296 0,0.0661 0,0.0992 0,0.0331 0,0.0661 0,0.0992 0,0.0991 0,0.19831 0,0.29746 0,0.0331 0.03305,0.0991 0,0.0991 -0.03305,0 0,-0.0661 0,-0.0991 0,-0.0331 0,-0.0661 0,-0.0992 0,-0.13221 0,-0.26441 0,-0.39661 0,-0.28597 0.0081,-0.13146 0.09915,-0.49576 0.01603,-0.0641 0,-0.1322 0,-0.1983 0,-0.16525 0,-0.33051 0,-0.49576 0,-0.0331 -0.01045,-0.0678 0,-0.0992 0.02336,-0.0701 0.07578,-0.12819 0.09915,-0.1983 0.0266,-0.0798 -0.03168,-0.33325 0,-0.39661 0.0209,-0.0418 0.08437,-0.0548 0.09915,-0.0991 0.01834,-0.055 0,-0.67435 0,-0.79321 0,-0.56186 0,-1.12372 0,-1.68558 0,-0.1983 0,-0.39661 0,-0.59491 0,-0.0331 -0.03305,-0.0992 0,-0.0992 0.03305,0 0,0.0661 0,0.0992 0,0.0661 0,0.1322 0,0.1983 0,0.19831 0,0.39661 0,0.59491 0,0.42966 0,0.85932 0,1.28897 0,0.0331 0,0.0661 0,0.0992 0,0.0331 0.02336,0.0758 0,0.0992 -0.02336,0.0234 -0.07578,0.0234 -0.09915,0 -0.02336,-0.0234 0,-0.0661 0,-0.0992 0,-0.0661 0,-0.1322 0,-0.1983 0,-0.1221 -0.01479,-0.18352 0.09915,-0.29745 0.02336,-0.0234 0.08437,0.0296 0.09915,0 0.02106,-0.0421 0,-0.41267 0,-0.49576 0,-0.49576 0,-0.99152 0,-1.48727 0,-0.29746 0,-0.59491 0,-0.89237 0,-0.1322 0,-0.2644 0,-0.3966 0,-0.0331 -0.03305,-0.0992 0,-0.0992 0.03305,0 0.01479,0.0696 0,0.0992 -0.0209,0.0418 -0.08437,0.0548 -0.09915,0.0992 -0.0209,0.0627 0,0.1322 0,0.1983 0,0.0661 0,0.1322 0,0.1983 0,0.59491 0,1.18982 0,1.78473 0,0.033 0.01479,0.0696 0,0.0991 -0.0209,0.0418 -0.07825,0.0574 -0.09915,0.0992 -0.01479,0.0296 0,0.0661 0,0.0992 0,0.033 -0.01479,0.0696 0,0.0991 0.0209,0.0418 0.07825,0.0573 0.09915,0.0992 0.03966,0.0793 -0.03966,0.21813 0,0.29745 0.0209,0.0418 0.0661,0.13221 0.09915,0.0992 0.04674,-0.0467 0,-0.13221 0,-0.19831 0,-0.23135 0,-0.46271 0,-0.69406 0,-1.58642 0,-3.17285 0,-4.75927 0,-0.59491 0,-1.18982 0,-1.78473 0,-0.23135 0,-0.46271 0,-0.69406 0,-0.0992 0,-0.1983 0,-0.29746 0,-0.0331 -0.03305,-0.0992 0,-0.0992 0.03305,0 0,0.0661 0,0.0992 0,0.0661 0,0.23131 0,0.29746 0,0.3305 0,0.66101 0,0.99151 0,0.0447 0.01508,0.26728 0,0.29746 -0.0209,0.0418 -0.07825,0.0573 -0.09915,0.0992 -0.01807,0.0361 0,0.43863 0,0.49576 0,0.0331 0.02336,0.0758 0,0.0992 -0.02336,0.0234 -0.07578,-0.0234 -0.09915,0 -0.0096,0.01 0,0.45797 0,0.49576 0,0.0331 0,0.1322 0,0.0992 0,-0.0661 0,-0.1322 0,-0.1983 0,-0.0331 -0.02336,-0.0758 0,-0.0992 0.205147,-0.20514 -0.008,0.3135 0.198303,-0.0992 0.01304,-0.0261 0,-0.34475 0,-0.3966 0,-0.23136 0,-0.46271 0,-0.69406 0,-0.56186 0,-1.12372 0,-1.68558 0,-0.1983 0,-0.39661 0,-0.59491 0,-0.0331 -0.03305,-0.0992 0,-0.0992 0.03305,0 0,0.1322 0,0.0992 0,-0.0992 0,-0.1983 0,-0.29745 0,-0.0331 0.02336,-0.0758 0,-0.0992 -0.0045,-0.004 -0.449009,0 -0.495758,0 -0.363556,0 -0.727112,0 -1.090668,0 -0.06896,0 -0.459899,-0.0179 -0.495758,0 -0.0418,0.0209 -0.05734,0.0783 -0.09915,0.0992 -0.02564,0.0128 -0.524632,0 -0.59491,0 -0.297453,0 -0.594908,0 -0.892363,0 -0.09915,0 -0.198303,0 -0.297455,0 -0.03305,0 -0.132202,0 -0.09915,0 0.594907,0 1.189818,0 1.784725,0 0.0661,0 0.132202,0 0.198303,0 0.03305,0 0.0678,0.0104 0.09915,0 0.07011,-0.0234 0.128193,-0.0758 0.198302,-0.0992 0.06223,-0.0207 0.316786,0 0.396608,0 0.03305,0 0.0661,0 0.09915,0 0.03305,0 0.09915,-0.0331 0.09915,0 0,0.0331 -0.0661,0 -0.09915,0 -0.0661,0 -0.132202,0 -0.198303,0 -0.198302,0 -0.396605,0 -0.59491,0 -0.04465,0 -0.267279,-0.0151 -0.297453,0 -0.04181,0.0209 -0.05734,0.0783 -0.09915,0.0992 -0.05912,0.0296 -0.151561,-0.0467 -0.198303,0 -0.02336,0.0234 0.02336,0.0758 0,0.0992 -0.02336,0.0234 -0.0661,0 -0.09915,0 -0.07804,0 -0.487797,-0.008 -0.495758,0 -0.02336,0.0234 0.02956,0.0844 0,0.0992 -0.08868,0.0443 -0.198303,0 -0.297453,0 -0.330506,0 -0.661011,0 -0.991515,0 -0.561859,0 -1.12372,0 -1.685578,0 -0.0661,0 -0.132202,0 -0.198303,0 -0.03305,0 -0.06959,-0.0148 -0.09915,0 -0.04181,0.0209 -0.05735,0.0783 -0.09915,0.0992 -0.02606,0.013 -0.344757,0 -0.396605,0 -0.03305,0 -0.0661,0 -0.09915,0 -0.03305,0 -0.09915,0.0331 -0.09915,0 0,-0.0331 0.0661,0 0.09915,0 0.09915,0 0.198302,0 0.297455,0 0.03305,0 0.0661,0 0.09915,0 0.03305,0 0.06959,0.0148 0.09915,0 0.04181,-0.0209 0.05735,-0.0783 0.09915,-0.0992 0.02956,-0.0148 0.0661,0 0.09915,0 0.165253,0 0.330507,0 0.495758,0 0.03305,0 0.0661,0 0.09915,0 0.03305,0 0.06959,0.0148 0.09915,0 0.04181,-0.0209 0.05735,-0.0783 0.09915,-0.0992 0.02956,-0.0148 0.07578,0.0234 0.09915,0 0.02336,-0.0234 0.02336,-0.0758 0,-0.0992 -0.02336,-0.0234 -0.0661,0 -0.09915,0 -0.231354,0 -0.462706,0 -0.69406,0 -1.454225,0 -2.908446,0 -4.362668,0 -0.05297,0 -0.467381,0.0142 -0.495757,0 -0.04181,-0.0209 -0.05735,-0.0782 -0.09915,-0.0992 -0.04235,-0.0212 -0.456562,0 -0.495758,0 -0.0661,0 -0.132201,0 -0.198302,0 -0.03305,0 -0.09915,0.0331 -0.09915,0 0,-0.0331 0.0661,0 0.09915,0 0.0661,0 0.132202,0 0.198302,0 0.0392,0 0.453412,-0.0212 0.495758,0 0.04181,0.0209 0.05735,0.0783 0.09915,0.0992 0.03017,0.0151 0.252799,0 0.297452,0 0.297455,0 0.594911,0 0.892366,0 0.04675,0 0.491262,0.004 0.495758,0 0.02336,-0.0234 -0.02336,-0.0758 0,-0.0992 0.02336,-0.0234 0.0661,0 0.09915,0 0.03305,0 0.132202,0 0.09915,0 -0.09915,0 -0.198302,0 -0.297455,0 -0.06896,0 -0.459901,-0.0179 -0.495758,0 -0.04181,0.0209 -0.05735,0.0783 -0.09915,0.0992 -0.02956,0.0148 -0.0661,0 -0.09915,0 -0.03305,0 -0.0661,0 -0.09915,0 -0.198303,0 -0.396605,0 -0.594908,0 -0.03305,0 -0.07165,-0.0183 -0.09915,0 -0.07778,0.0519 -0.120521,0.14645 -0.198303,0.1983 -0.04106,0.0274 -0.414853,-0.0202 -0.495758,0 -0.101393,0.0254 -0.196059,0.0738 -0.297455,0.0992 -0.09133,0.0228 -0.208372,-0.0297 -0.297455,0 -0.07011,0.0234 -0.125833,0.0847 -0.198303,0.0992 -0.09184,0.0184 -0.61206,-0.0273 -0.69406,0 -0.04434,0.0148 -0.05735,0.0782 -0.09915,0.0992 -0.04375,0.0219 -0.73592,0 -0.892363,0 -0.661012,0 -1.32202,0 -1.983031,0 -0.264404,0 -0.528807,0 -0.793213,0 -0.09915,0 -0.203391,-0.0314 -0.297453,0 -0.367567,0.12253 0.120859,0.0992 -0.198305,0.0992 -0.132202,0 -0.264403,0 -0.396605,0 -0.03305,0 -0.09915,0.0331 -0.09915,0 0,-0.0331 0.0661,0 0.09915,0 0.03641,0 0.392615,0.004 0.396605,0 0.02336,-0.0234 -0.02336,-0.0758 0,-0.0992 0.02336,-0.0234 0.0661,0 0.09915,0 0.104407,0 0.413591,0.0205 0.495757,0 0.268381,0.16852 0.256384,-0.15156 0.396606,-0.1983 0.105359,-0.0351 0.291248,0.0351 0.396607,0 0.07011,-0.0234 0.128191,-0.0758 0.198303,-0.0992 0.0542,-0.0181 0.616556,0 0.69406,0 0.03305,0 0.06959,0.0148 0.09915,0 0.453776,-0.22689 -0.420743,0.0411 0.297455,-0.1983 0.03858,-0.0129 0.282067,0.0154 0.297453,0 0.02336,-0.0234 0.02336,-0.0758 0,-0.0992 -0.0032,-0.003 -0.273408,0 -0.297453,0 -0.462709,0 -0.925415,0 -1.388123,0 -0.231355,0 -0.462706,0 -0.694061,0 -0.0661,0 -0.135593,-0.0209 -0.198302,0 -0.07011,0.0234 -0.128193,0.0758 -0.198303,0.0992 -0.03136,0.0104 -0.0661,0 -0.09915,0 -0.0661,0 -0.132202,0 -0.198303,0 -0.231354,0 -0.462709,0 -0.69406,0 -0.727112,0 -1.454224,0 -2.181334,0 -0.330507,0 -0.661011,0 -0.991515,0 -0.05185,0 -0.370536,-0.013 -0.396608,0 -0.04181,0.0209 -0.05735,0.0782 -0.09915,0.0992 -0.02956,0.0148 -0.0661,0 -0.09915,0 -0.03305,0 -0.0661,0 -0.09915,0 -0.03305,0 -0.09915,0.0331 -0.09915,0 0,-0.0331 0.0661,0 0.09915,0 0.165253,0 0.330507,0 0.495758,0 0.03305,0 0.0661,0 0.09915,0 0.03305,0 0.06959,0.0148 0.09915,0 0.0418,-0.0209 0.05734,-0.0782 0.09915,-0.0992 0.02956,-0.0148 0.0661,0 0.09915,0 0.0661,0 0.132202,0 0.198303,0 0.198302,0 0.396605,0 0.59491,0 0.561859,0 1.123717,0 1.685576,0 0.03641,0 0.392615,-0.004 0.396605,0 0.132202,0.1322 -0.165253,0.0992 0.09915,0.0992 0.03305,0 0.0661,0 0.09915,0 0.03305,0 0.09915,-0.0331 0.09915,0 0,0.0331 -0.0661,0 -0.09915,0 -0.0661,0 -0.132202,0 -0.198303,0 -0.165253,0 -0.330504,0 -0.495758,0 -0.561858,0 -1.123717,0 -1.685575,0 -0.08303,0 -0.420357,-0.0188 -0.495758,0 -0.0717,0.0179 -0.128193,0.0758 -0.198303,0.0992 -0.06558,0.0219 -0.497506,0 -0.59491,0 -0.462706,0 -0.925415,0 -1.388121,0 -0.198302,0 -0.396607,0 -0.59491,0 -0.0661,0 -0.135594,-0.0209 -0.198303,0 -0.04434,0.0148 -0.05481,0.0844 -0.09915,0.0992 -0.09406,0.0314 -0.198303,0 -0.297453,0 -0.165253,0 -0.330507,0 -0.495757,0 -0.561859,0 -1.123718,0 -1.685576,0 -0.405802,0 0.291782,-0.0234 -0.198305,0.0992 -0.09619,0.024 -0.198303,0 -0.297453,0 -0.09915,0 -0.198305,0 -0.297455,0 -0.462709,0 -0.925415,0 -1.388123,0 -0.224007,0 0.04434,0.0148 -0.297453,-0.0992 -0.06271,-0.0209 -0.132204,0 -0.198305,0 -0.03305,0 -0.09915,-0.0331 -0.09915,0 0,0.0946 0.139046,0.1189 0.198302,0.0992 0.07011,-0.0234 0.136811,-0.0582 0.198303,-0.0992 0.03889,-0.0259 0.05481,-0.0844 0.09915,-0.0992 0.06271,-0.0209 0.135593,0.0209 0.198302,0 0.04434,-0.0148 0.05735,-0.0783 0.09915,-0.0992 0.03017,-0.0151 0.252799,0 0.297452,0 0.132205,0 0.264406,0 0.396608,0 0,-0.0331 -0.03136,-0.0887 0,-0.0992 0.09406,-0.0314 0.198303,0 0.297455,0 0.264404,0 0.528807,0 0.793211,0 0.727112,0 1.454224,0 2.181333,0 0.03305,0 0.0661,0 0.09915,0 0.03305,0 0.09915,-0.0331 0.09915,0 0,0.0331 -0.0661,0 -0.09915,0 -0.0661,0 -0.132202,0 -0.198303,0 -0.462708,0 -0.925414,0 -1.38812,0 -0.0959,0 -0.565505,-0.0147 -0.594911,0 -0.04181,0.0209 -0.05735,0.0782 -0.09915,0.0992 -0.05912,0.0296 -0.134176,-0.016 -0.198303,0 -0.101394,0.0254 -0.196059,0.0738 -0.297455,0.0992 -0.198303,0.0496 0,-0.0992 -0.297453,0 -0.04434,0.0148 -0.05735,0.0783 -0.09915,0.0992 -0.02956,0.0148 -0.0661,0 -0.09915,0 -0.03305,0 -0.0661,0 -0.09915,0 -0.231354,0 -0.462709,0 -0.69406,0 -0.0661,0 -0.134176,-0.016 -0.198305,0 -0.0717,0.0179 -0.126606,0.0812 -0.198303,0.0992 -0.06413,0.016 -0.132202,0 -0.198303,0 -0.0661,0 -0.132201,0 -0.198302,0 -0.198303,0 -0.396608,0 -0.59491,0 -0.661009,0 -1.32202,0 -1.983031,0 -0.07982,0 -0.334373,-0.0207 -0.396606,0 -0.07011,0.0234 -0.128193,0.0758 -0.198302,0.0992 -0.03136,0.0105 -0.0661,0 -0.09915,0 -0.09915,0 -0.198302,0 -0.297455,0 -0.363553,0 -0.727109,0 -1.090665,0 -0.132202,0 -0.264404,0 -0.396608,0 -0.03305,0 -0.0661,0 -0.09915,0 -0.03305,0 -0.09915,0.033 -0.09915,0 0,-0.0331 0.0661,0 0.09915,0 0.132202,0 0.264403,0 0.396605,0 0.561859,0 1.123717,0 1.685576,0 0.06218,0 0.38436,0.0122 0.396608,0 0.02336,-0.0234 -0.02336,-0.0758 0,-0.0992 0.02336,-0.0234 0.0661,0 0.09915,0 0.03305,0 0.0661,0 0.09915,0 0.297455,0 0.594911,0 0.892363,0 0.09915,0 0.198303,0 0.297455,0 0.03305,0 0.09915,-0.0331 0.09915,0 0,0.0331 -0.0661,0 -0.09915,0 -0.198302,0 -0.396605,0 -0.594907,0 -0.561862,0 -1.12372,0 -1.685579,0 -0.396605,0 -0.79321,0 -1.189818,0 -1.255919,0 -2.511838,0 -3.767757,0 -0.59491,0 -1.18982,0 -1.784728,0 -0.132202,0 -0.264403,0 -0.396608,0 -0.03305,0 -0.09915,0.0331 -0.09915,0 0,-0.0331 0.0661,0 0.09915,0 0.09915,0 0.198305,0 0.297455,0 0.0661,0 0.134176,0.016 0.198303,0 0.514853,-0.12871 -0.105847,-0.0992 0.396608,-0.0992 0.224173,0 0.477583,0.024 0.69406,0 0.167494,-0.0186 0.329525,-0.0715 0.495758,-0.0992 0.123867,-0.0206 0.27079,0 0.396605,0 0.363556,0 0.727112,0 1.090668,0 0.495758,0 0.991515,0 1.487273,0 0.594908,0 1.189818,0 1.784729,0 0.03919,0 0.453411,0.0212 0.495757,0 0.0418,-0.0209 0.05734,-0.0783 0.09915,-0.0992 0.02956,-0.0148 0.0661,0 0.09915,0 0.03305,0 0.0661,0 0.09915,0 0.03305,0 0.132202,0 0.09915,0 -0.528809,0 -1.057616,0 -1.586425,0 -0.198303,0 -0.396606,0 -0.594908,0 -0.0661,0 -0.134176,-0.016 -0.198303,0 -0.101396,0.0254 -0.194971,0.0786 -0.297455,0.0992 -0.09723,0.0194 -0.198302,0 -0.297455,0 -0.297455,0 -0.59491,0 -0.892363,0 -0.528809,0 -1.057616,0 -1.586426,0 -0.198302,0 -0.396605,0 -0.594907,0 -0.0661,0 -0.132205,0 -0.198306,0 -0.03305,0 -0.06709,-0.008 -0.09915,0 -0.101396,0.0254 -0.196061,0.0738 -0.297455,0.0992 -0.03206,0.008 -0.0661,0 -0.09915,0 -0.132202,0 -0.264404,0 -0.396606,0 -0.132291,0 -0.462618,0 -0.59491,0 -0.05903,0 -0.557712,-0.0186 -0.594908,0 -0.02956,0.0148 0.02956,0.0844 0,0.0992 -0.01021,0.005 -0.585157,0 -0.59491,0 -0.264403,0 -0.528807,0 -0.793213,0 -0.03305,0 -0.07578,-0.0234 -0.09915,0 -0.02336,0.0234 0.02336,0.0758 0,0.0992 -0.02336,0.0234 -0.0661,0 -0.09915,0 -0.264404,0 -0.528807,0 -0.793211,0 -0.03305,0 -0.0661,0 -0.09915,0 -0.03305,0 -0.06959,0.0148 -0.09915,0 -0.0418,-0.0209 -0.05735,-0.0782 -0.09915,-0.0992 -0.02956,-0.0148 -0.09915,0.0331 -0.09915,0 0,-0.0331 0.0661,0 0.09915,0 0.03305,0 0.0661,0 0.09915,0 0.231354,0 0.462709,0 0.69406,0 0.08415,0 0.540251,0.0182 0.594911,0 0.04434,-0.0148 0.0538,-0.0878 0.09915,-0.0992 0.09619,-0.024 0.198303,0 0.297453,0 0.198305,0 0.396608,0 0.59491,0 0.304657,0 0.264795,-0.0378 0.694061,-0.0992 0.09815,-0.014 0.198302,0 0.297455,0 0.198302,0 0.396605,0 0.59491,0 0.132202,0 0.264404,0 0.396605,0 0.03305,0 0.09915,-0.0331 0.09915,0 0,0.0331 -0.0661,0 -0.09915,0 -0.09915,0 -0.198302,0 -0.297455,0 -0.165251,0 -0.330504,0 -0.495758,0 -0.0661,0 -0.132201,0 -0.198302,0 -0.03305,0 -0.06959,0.0148 -0.09915,0 -0.0418,-0.0209 -0.05481,-0.0844 -0.09915,-0.0992 -0.0533,-0.0178 -0.312661,0 -0.396608,0 -0.528806,0 -1.057616,0 -1.586423,0 -0.198302,0 -0.396608,0 -0.59491,0 -0.0661,0 -0.135594,0.0209 -0.198303,0 -0.04434,-0.0148 -0.05734,-0.0782 -0.09915,-0.0992 -0.02956,-0.0148 -0.0661,0 -0.09915,0 -0.165254,0 -0.330505,0 -0.495758,0 -0.330504,0 -0.661011,0 -0.991515,0 -0.561859,0 -1.123718,0 -1.685576,0 -0.264584,0 -0.132025,0 -0.396608,0 -0.0661,0 -0.134176,0.016 -0.198303,0 -0.101393,-0.0254 -0.194968,-0.0787 -0.297455,-0.0992 -0.09722,-0.0194 -0.198302,0 -0.297452,0 -0.594911,0 -1.189818,0 -1.784729,0 -0.132201,0 -0.264403,0 -0.396605,0 -0.03305,0 -0.09915,0.0331 -0.09915,0 0,-0.0331 0.0661,0 0.09915,0 0.03305,0 0.0661,0 0.09915,0 0.231354,0 0.462709,0 0.69406,0 0.495758,0 0.991516,0 1.487274,0 1.454224,0 2.908445,0 4.362669,0 0.03305,0 -0.0661,0 -0.09915,0 -0.09915,0 -0.198303,0 -0.297455,0 -0.264404,0 -0.528807,0 -0.793213,0 -0.165251,0 -0.330505,0 -0.495758,0 -0.09915,0 -0.198303,0 -0.297453,0 -0.03305,0 -0.06959,-0.0148 -0.09915,0 -0.04181,0.0209 -0.05735,0.0783 -0.09915,0.0992 -0.04511,0.0226 -0.474138,-0.005 -0.495758,0 -0.04534,0.0113 -0.05481,0.0844 -0.09915,0.0992 -0.06271,0.0209 -0.132201,0 -0.198302,0 -0.198305,0 -0.396608,0 -0.59491,0 -0.495758,0 -0.991516,0 -1.487274,0 -1.255919,0 -2.511837,0 -3.767759,0 -0.102944,0 -0.312663,0.021 -0.396605,0 -0.101394,-0.0254 -0.194363,-0.082 -0.297455,-0.0992 -0.121095,-0.0202 -0.450557,0 -0.594908,0 -0.429657,0 -0.859314,0 -1.288971,0 -0.462708,0 -0.925414,0 -1.38812,0 -0.03641,0 -0.392618,-0.004 -0.396608,0 -0.02336,0.0234 -0.02336,0.0758 0,0.0992 0.02336,0.0234 0.0661,0 0.09915,0 0.03305,0 0.0661,0 0.09915,0 0.363556,0 0.727113,0 1.090669,0 0.627959,0 1.255918,0 1.883878,0 0.165253,0 0.330507,0 0.495758,0 0.132201,0 0.266202,0.0217 0.396607,0 0.166233,-0.0277 0.328534,-0.0782 0.495758,-0.0992 0.09839,-0.0123 0.198303,0 0.297453,0 0.198305,0 0.396607,0 0.59491,0 0.495758,0 0.991516,0 1.487273,0 0.363556,0 0.727112,0 1.090666,0 0.198305,0 0.396607,0 0.59491,0 0.03305,0 0.09915,-0.0331 0.09915,0 0,0.0331 -0.0661,0 -0.09915,0 -0.03305,0 -0.0661,0 -0.09915,0 -0.132201,0 -0.264403,0 -0.396605,0 -0.03305,0 -0.0678,-0.0105 -0.09915,0 -0.07011,0.0234 -0.126606,0.0812 -0.198303,0.0992 -0.09619,0.024 -0.198302,0 -0.297452,0 -0.198306,0 -0.396608,0 -0.594911,0 -0.198302,0 -0.397819,-0.0219 -0.59491,0 -0.199808,0.0222 -0.395891,0.0707 -0.594908,0.0992 -0.06544,0.009 -0.132201,0 -0.198302,0 -0.198306,0 -0.396608,0 -0.594911,0 -0.330504,0 -0.661011,0 -0.991515,0 -0.186415,0 -0.413401,-0.0181 -0.594911,0 -2.400932,0.24009 0.645645,-0.0311 -1.189818,0.1983 -0.163975,0.0205 -0.330504,0 -0.495757,0 -0.495758,0 -0.991516,0 -1.487274,0 -0.561858,0 -1.123717,0 -1.685575,0 -0.165251,0 -0.330505,0 -0.495758,0 -0.03305,0 -0.0661,0 -0.09915,0 -0.03305,0 -0.06959,0.0148 -0.09915,0 -0.04181,-0.0209 -0.05735,-0.0783 -0.09915,-0.0992 -0.02926,-0.0146 -0.591913,0 -0.694061,0 -0.16525,0 -0.330504,0 -0.495757,0 -0.0661,0 -0.132202,0 -0.198303,0 -0.03305,0 -0.09915,0.0331 -0.09915,0 0,-0.0331 0.0661,0 0.09915,0 0.03305,0 0.0661,0 0.09915,0 0.132201,0 0.264403,0 0.396605,0 0.325911,0 -0.272206,0.0148 0.297455,-0.0992 0.09723,-0.0195 0.198303,0 0.297455,0 0.330504,0 0.661009,0 0.991516,0 0.113691,0 0.293894,0.0257 0.396605,0 0.0717,-0.0179 0.128193,-0.0758 0.198302,-0.0992 0.05366,-0.0179 0.362829,0 0.396608,0 0.330504,0 0.661009,0 0.991516,0 0.0661,0 0.135593,0.0209 0.198302,0 0.04434,-0.0148 0.05735,-0.0782 0.09915,-0.0992 0.02606,-0.013 0.344758,0 0.396608,0 0.03305,0 0.0661,0 0.09915,0 0.03305,0 0.09915,-0.0331 0.09915,0 0,0.0331 -0.0661,0 -0.09915,0 -0.0661,0 -0.132202,0 -0.198303,0 -0.09607,0 -0.535786,0.0197 -0.594907,0 -0.341797,-0.11394 -0.07345,-0.0992 -0.297456,-0.0992 -0.627959,0 -1.255918,0 -1.883881,0 -0.16525,0 -0.330504,0 -0.495757,0 -0.09915,0 -0.198909,-0.0109 -0.297453,0 -0.264832,0.0294 -0.528381,0.0697 -0.793213,0.0992 -0.224451,0.0249 -0.466905,0 -0.69406,0 -0.429657,0 -0.859314,0 -1.288971,0 -0.396605,0 -0.793213,0 -1.189818,0 -0.165253,0 -0.330507,0 -0.495757,0 -0.0661,0 -0.132202,0 -0.198303,0 -0.03305,0 -0.0678,0.0104 -0.09915,0 -0.07011,-0.0234 -0.126605,-0.0812 -0.198302,-0.0992 -0.09619,-0.024 -0.198303,0 -0.297455,0 -0.295551,0 -0.597488,0.0164 -0.892363,0 -0.529027,-0.0294 -1.0575,-0.068 -1.586426,-0.0992 -0.229527,-0.0135 -0.46408,0 -0.694061,0 -0.03305,0 -0.09915,0.0331 -0.09915,0 0,-0.0331 0.0661,0 0.09915,0 0.132203,0 0.264405,0 0.396607,0 0.396606,0 0.793212,0 1.189817,0 0.06847,0 0.366461,-0.0151 0.396608,0 0.04181,0.0209 0.05735,0.0783 0.09915,0.0992 0.03017,0.0151 0.252801,0 0.297455,0 0.727112,0 1.454224,0 2.181333,0 0.132205,0 0.264406,0 0.396608,0 0.03305,0 0.0661,0 0.09915,0 0.03305,0 0.09915,-0.0331 0.09915,0 0,0.0331 -0.0661,0 -0.09915,0 -0.132202,0 -0.264403,0 -0.396605,0 -0.198303,0 -0.396605,0 -0.59491,0 -0.09915,0 -0.203391,-0.0313 -0.297453,0 -0.04434,0.0148 -0.0661,0.0661 -0.09915,0.0992 -0.03305,0.0331 -0.05734,0.0782 -0.09915,0.0992 -0.02956,0.0148 -0.0661,0 -0.09915,0 -0.09915,0 -0.198303,0 -0.297455,0 -0.03305,0 -0.0661,0 -0.09915,0 -0.03305,0 -0.06959,-0.0148 -0.09915,0 -0.04181,0.0209 -0.05381,0.0878 -0.09915,0.0992 -0.117803,0.0294 -0.353411,0 -0.495757,0 -0.429657,0 -0.859314,0 -1.28897,0 -0.09915,0 -0.201263,-0.024 -0.297454,0 -0.0717,0.0179 -0.125406,0.087 -0.198303,0.0992 -0.151946,0.0253 -0.596431,0 -0.793213,0 -0.760161,0 -1.520323,0 -2.280485,0 -0.892364,0 -1.784728,0 -2.677092,0 -0.231353,0 -0.462707,0 -0.69406,0 -0.03305,0 -0.0661,0 -0.09915,0 -0.03305,0 -0.06959,-0.0148 -0.09915,0 -0.245043,0.12252 0.03423,0.0992 -0.198302,0.0992 -0.03305,0 -0.132203,0 -0.09915,0 0.793212,0 1.586425,0 2.379637,0 0.198303,0 0.396606,0 0.594909,0 0.0661,0 0.135594,0.0209 0.198303,0 0.04434,-0.0148 0.0527,-0.094 0.09915,-0.0992 0.262787,-0.0292 0.528808,0 0.793212,0 0.198303,0 0.396606,0 0.594909,0 0.62796,0 1.25592,0 1.883879,0 0.231354,0 0.462708,0 0.694061,0 0.08742,0 0.212971,0.0211 0.297455,0 0.101394,-0.0254 0.194363,-0.082 0.297455,-0.0992 0.155138,-0.0259 0.420611,0 0.594908,0 0.363556,0 0.727112,0 1.090668,0 0.661011,0 1.322019,0 1.983031,0 0.132201,0 0.264403,0 0.396605,0 0.03305,0 0.0661,0 0.09915,0 0.03305,0 0.09915,-0.0331 0.09915,0 0,0.0331 -0.0661,0 -0.09915,0 -0.03305,0 -0.0661,0 -0.09915,0 -0.231352,0 -0.462706,0 -0.694061,0 -0.727112,0 -1.454221,0 -2.181333,0 -0.132202,0 -0.266973,-0.0259 -0.396605,0 -0.102487,0.0205 -0.196062,0.0738 -0.297455,0.0992 -0.03206,0.008 -0.0661,0 -0.09915,0 -0.132202,0.0331 -0.265578,0.0617 -0.396605,0.0992 -0.100494,0.0287 -0.19497,0.0787 -0.297455,0.0992 -0.06482,0.013 -0.132202,0 -0.198303,0 -0.396606,0 -0.793213,0 -1.189819,0 -0.892363,0 -1.784727,0 -2.677091,0 -0.793212,0 -1.586425,0 -2.379637,0 -0.231354,0 -0.462707,0 -0.694061,0 -0.06515,0 -0.241513,0.0186 -0.297454,0 -0.07011,-0.0234 -0.128193,-0.0758 -0.198304,-0.0992 -0.06223,-0.0207 -0.316785,0 -0.396606,0 -0.198303,0 -0.396606,0 -0.594909,0 -0.132202,0 -0.265425,0.0164 -0.396606,0 -0.135219,-0.0169 -0.262982,-0.0724 -0.396606,-0.0992 -0.111693,-0.0223 -0.276545,0 -0.396607,0 -0.231353,0 -0.462707,0 -0.69406,0 -0.03305,0 -0.07578,-0.0234 -0.09915,0 -0.02337,0.0234 -0.02337,0.0758 0,0.0992 0.02337,0.0234 0.0661,0 0.09915,0 0.363555,0 0.727111,0 1.090667,0 0.627959,0 1.255919,0 1.883879,0 0.165252,0 0.330505,0 0.495758,0 0.09915,0 0.203391,0.0314 0.297454,0 0.04434,-0.0148 0.05735,-0.0783 0.09915,-0.0992 0.03017,-0.0151 0.252801,0 0.297454,0 0.03305,0 0.132202,0 0.09915,0 -0.462707,0 -0.925414,0 -1.388122,0 -0.09308,0 -0.438944,-0.0189 -0.495757,0 -0.04434,0.0148 -0.05481,0.0844 -0.09915,0.0992 -0.05461,0.0182 -0.560853,-0.006 -0.594909,0 -0.845745,0.14096 0.341956,0.0992 -0.694061,0.0992 -0.521099,0 -0.02615,-0.007 -1.090667,0.0992 -0.191595,0.0191 -0.404203,0 -0.594909,0 -0.0661,0 -0.132866,-0.009 -0.198303,0 -0.166832,0.0238 -0.328926,0.0753 -0.495758,0.0992 -0.145218,0.0207 -0.348998,0 -0.495758,0 -0.330505,0 -0.66101,0 -0.991515,0 -0.129751,0 -0.268489,-0.0183 -0.396606,0 -0.199018,0.0284 -0.3951,0.0769 -0.594909,0.0992 -0.197091,0.0219 -0.396606,0 -0.59491,0 -0.429656,0 -0.859313,0 -1.288969,0 -0.066102,0 -0.1322024,0 -0.1983032,0 -0.033051,0 -0.075781,0.0234 -0.099152,0 -0.023371,-0.0234 0.029561,-0.0844 0,-0.0992 -0.059123,-0.0296 -0.1322022,0 -0.1983031,0 -0.1983031,0 -0.3966061,0 -0.5949092,0 -0.132202,0 -0.2644043,0 -0.3966062,0 -0.03305,0 -0.099152,0.0331 -0.099152,0 0,-0.0331 0.066101,0 0.099152,0 0.03305,0 0.066101,0 0.099151,0 0.132202,0 0.2644042,0 0.3966062,0 0.3966062,0 0.7932124,0 1.1898175,0 0.132203,0 0.264405,0 0.396607,0 0.0661,0 0.135594,0.0209 0.198303,0 0.04434,-0.0148 0.05277,-0.0934 0.09915,-0.0992 0.229567,-0.0287 0.463856,0.023 0.694061,0 0.103996,-0.0104 0.19606,-0.0738 0.297455,-0.0992 0.08023,-0.0201 0.481199,0 0.495757,0 0.264404,0 0.528809,0 0.793213,0 0.198303,0 0.396606,0 0.594909,0 0.03305,0 0.09915,-0.0331 0.09915,0 0,0.033 -0.0661,0 -0.09915,0 -0.0661,0 -0.132202,0 -0.198303,0 -0.330505,0 -0.66101,0 -0.991515,0 -0.793213,0 -1.586425,0 -2.379638,0 -0.7932113,0 -1.5864237,0 -2.3796361,0 -0.2974546,0 -0.594909,0 -0.8923636,0 -0.1322023,0 -0.2644043,0 -0.3966062,0 -0.033051,0 -0.099152,0.033 -0.099152,0 0,-0.0331 0.066101,0 0.099152,0 0.1322916,0 0.066011,0 0.1983031,0 0.052968,0 0.4673801,0.0142 0.4957577,0 0.041806,-0.0209 0.057346,-0.0782 0.099151,-0.0992 0.03909,-0.0195 0.3978248,0 0.4957577,0 0.3635558,0 0.7271113,0 1.0906671,0 0.1029456,0 0.3126636,0.021 0.3966061,0 0.1013945,-0.0254 0.1949694,-0.0787 0.2974547,-0.0992 0.064817,-0.013 0.132202,0 0.1983031,0 0.099151,0 0.1983034,0 0.2974544,0 0.297455,0 0.594909,0 0.892364,0 0.462707,0 0.925414,0 1.388121,0 0.06725,0 0.609922,0.021 0.694061,0 0.0717,-0.0179 0.128193,-0.0758 0.198303,-0.0992 0.03135,-0.0104 0.0661,0 0.09915,0 0.0661,0 0.132202,0 0.198303,0 0.165252,0 0.330505,0 0.495758,0 0.528808,0 1.057616,0 1.586424,0 0.462707,0 0.925415,0 1.388122,0 0.297454,0 0.597899,-0.0421 0.892364,0 0.04627,0.007 0.0661,0.0661 0.09915,0.0992 0.09915,0 0.198303,0 0.297455,0 0.4058,0 -0.291784,-0.0234 0.198303,0.0992 0.09619,0.024 0.200228,-0.0194 0.297455,0 0.56966,0.11393 -0.02846,0.0992 0.297454,0.0992 0.132202,0 0.264404,0 0.396606,0 0.03305,0 0.0661,0 0.09915,0 0.03305,0 0.09915,-0.0331 0.09915,0 0,0.033 -0.0661,0 -0.09915,0 -0.198303,0 -0.396606,0 -0.59491,0 -0.03305,0 -0.0661,0 -0.09915,0 -0.03305,0 -0.06959,-0.0148 -0.09915,0 -0.04181,0.0209 -0.05735,0.0782 -0.09915,0.0992 -0.03017,0.0151 -0.252801,0 -0.297455,0 -0.264404,0 -0.528808,0 -0.793212,0 -0.129169,0 -0.385447,-0.0221 -0.495758,0 -0.102485,0.0205 -0.194969,0.0786 -0.297454,0.0992 -0.275421,0.0551 -0.165253,-0.0826 -0.495758,0 -0.04535,0.0113 -0.05381,0.0878 -0.09915,0.0992 -0.09619,0.024 -0.198303,0 -0.297454,0 -0.231354,0 -0.462707,0 -0.694061,0 -0.694061,0 -1.388122,0 -2.082182,0 -0.134363,0 -0.628455,-0.0219 -0.694061,0 -0.04434,0.0148 -0.05481,0.0844 -0.09915,0.0991 -0.04539,0.0151 -0.440415,0 -0.495757,0 -0.363556,0 -0.727112,0 -1.090667,0 -0.727112,0 -1.4542227,0 -2.181334,0 -0.2313535,0 -0.462707,0 -0.6940608,0 -0.065153,0 -0.2415136,0.0187 -0.2974547,0 -0.070111,-0.0234 -0.1281922,-0.0758 -0.1983031,-0.0991 -0.064547,-0.0215 -0.6110507,0 -0.6940605,0 -0.070279,0 -0.5692736,0.0128 -0.5949093,0 -0.041806,-0.0209 -0.057346,-0.0783 -0.099152,-0.0992 -0.062319,-0.0312 -0.3342873,0.0312 -0.3966062,0 -0.041806,-0.0209 -0.057346,-0.0783 -0.099152,-0.0992 -0.062319,-0.0312 -0.3342873,0.0311 -0.3966062,0 -0.041806,-0.0209 -0.057345,-0.0783 -0.099152,-0.0992 -0.029561,-0.0148 -0.066101,0 -0.099151,0 -0.03305,0 -0.066101,0 -0.099152,0 -0.1983031,0 -0.3966062,0 -0.594909,0 -0.033051,0 -0.066101,0 -0.099151,0 -0.033051,0 -0.075782,0.0234 -0.099152,0 -0.023371,-0.0234 0,-0.0661 0,-0.0992 0,-0.0331 -0.023371,-0.0758 0,-0.0992 0.00319,-0.003 0.2734077,0 0.2974547,0 0.1652524,0 0.330505,0 0.4957574,0 0.033051,0 0.075781,-0.0234 0.099152,0 0.023371,0.0234 -0.023371,0.0758 0,0.0992 0.00319,0.003 0.2734077,0 0.2974546,0 0.6610104,0 1.3220206,0 1.983031,0 0.2313535,0 0.462707,0 0.6940606,0 0.033051,0 0.067797,0.0104 0.099151,0 0.070111,-0.0234 0.1266066,-0.0812 0.1983031,-0.0992 0.096191,-0.024 0.1983031,0 0.2974547,0 0.1983031,0 0.3966062,0 0.5949093,0 0.03305,0 0.067797,0.0104 0.099151,0 0.070111,-0.0234 0.125835,-0.0847 0.1983031,-0.0992 0.2123551,-0.0425 0.5626717,0.0329 0.7932113,0 0.199018,-0.0284 0.394869,-0.0792 0.59491,-0.0992 0.326524,-0.0326 0.664303,0.0252 0.991515,0 0.431916,-0.0332 0.711713,-0.0992 1.090667,-0.0992 0.330505,0 0.66101,0 0.991515,0 0.132203,0 0.264405,0 0.396607,0 0.03305,0 0.09915,-0.0331 0.09915,0 0,0.0331 -0.0661,0 -0.09915,0 -0.09915,0 -0.198303,0 -0.297455,0 -0.231354,0 -0.462707,0 -0.694061,0 -0.594909,0 -1.189818,0 -1.784727,0 -0.297455,0 -0.59491,0 -0.892364,0 -0.08742,0 -0.212971,-0.0211 -0.297455,0 -0.101394,0.0253 -0.194969,0.0787 -0.297454,0.0992 -0.077727,0.0155 -0.5507863,-0.0221 -0.5949093,0 -0.041806,0.0209 -0.05481,0.0844 -0.099152,0.0992 -0.094063,0.0313 -0.198303,0 -0.2974546,0 -0.2974546,0 -0.5949093,0 -0.8923639,0 -0.8923637,0 -1.7847276,0 -2.6770916,0 -0.9584648,0 -1.9169298,0 -2.8753946,0 -0.3635556,0 -0.7271113,0 -1.0906669,0 -0.1322021,0 -0.2644041,0 -0.3966062,0 -0.033051,0 -0.066101,0 -0.0991515,0 -0.0330505,0 -0.0991515,0.0331 -0.0991515,0 0,-0.0331 0.066101,0 0.0991515,0 0.132202,0 0.2644041,0 0.3966061,0 0.5288083,0 1.0576165,0 1.5864247,0 0.5288082,0 1.0576163,0 1.5864245,0 0.1322022,0 0.2644042,0 0.3966062,0 0.033051,0 0.099151,-0.0331 0.099151,0 0,0.0331 -0.066101,0 -0.099151,0 -0.03305,0 -0.066101,0 -0.099152,0 -0.1322019,0 -0.2644039,0 -0.3966062,0 -0.330505,0 -0.6610101,0 -0.9915152,0 -0.6610104,0 -1.3220206,0 -1.9830308,0 -0.2313536,0 -0.4627072,0 -0.69406079,0 -0.0936302,0 -0.31625253,-0.0217 -0.39660614,0 -0.1347512,0.0352 -0.26445172,0.088 -0.39665377,0.13262 z"
       style="fill:none;stroke:#000000;stroke-width:0.26458335px;stroke-linecap:butt;stroke-linejoin:miter;stroke-opacity:1" />
    <path
       id="path4851"
       d="m -4.735476,285.38434 c -3.270076,-0.40399 -1.790324,3.0471 0.463021,0.79375 0.360476,-0.36047 -0.190124,-0.67679 -0.463021,-0.79375 z"
       style="fill:none;stroke:#000000;stroke-width:0.26458335px;stroke-linecap:butt;stroke-linejoin:miter;stroke-opacity:1" />
    <path
       id="path4853"
       d="m -5.46308,286.97184 c -0.114249,1.28952 0.370763,2.24113 0.06615,3.30729 -0.896597,1.82781 -1.65365,3.15078 -1.65365,5.55625"
       style="fill:none;stroke:#000000;stroke-width:0.26458335px;stroke-linecap:butt;stroke-linejoin:miter;stroke-opacity:1" />
    <path
       id="path4855"
       d="m -5.376067,290.28352 1.016604,5.61362"
       style="fill:none;stroke:#000000;stroke-width:0.29817653px;stroke-linecap:butt;stroke-linejoin:miter;stroke-opacity:1" />
    <path
       id="path4865"
       d="m -5.448957,288.41729 c -0.185543,-0.0352 -0.673863,-0.0277 -0.771741,0.0702 -0.03048,0.0305 -0.262047,0 -0.304019,0 -0.370013,0 -1.157411,0.22237 -1.403165,-0.0234 -0.01169,-0.0117 0.01169,-0.0585 0,-0.0702 -0.0975,-0.0975 -0.0023,-0.23847 -0.07016,-0.37418 -0.155839,-0.31168 -0.07016,-0.8944 -0.07016,-1.28623"
       style="fill:none;stroke:#000000;stroke-width:0.26458335px;stroke-linecap:butt;stroke-linejoin:miter;stroke-opacity:1" />
    <path
       id="path4867"
       d="m -5.448957,288.41729 c 0.296349,-0.073 0.253423,0.0689 0.467722,0.14032 0.03508,0.0117 0.02339,-0.0234 0.07016,0 0.01394,0.007 -0.01103,0.0358 0,0.0468 0.02339,0.0234 0.09354,0 0.11693,0.0234 0.06384,0.0638 0.155156,0.15515 0.210475,0.21047 0.08937,0.0894 0.113037,0.72108 0.257247,0.86529 0.01484,0.0148 -0.0097,0.0741 0,0.0935 0.02376,0.0475 0.110117,0.28745 0.09354,0.30402 -0.02075,0.0208 -0.257247,1.22247 -0.257247,1.35639"
       style="fill:none;stroke:#000000;stroke-width:0.26458335px;stroke-linecap:butt;stroke-linejoin:miter;stroke-opacity:1" />
  </g>
</svg>
