<?xml version="1.0" encoding="UTF-8" standalone="no"?>
<!-- Created with Inkscape (http://www.inkscape.org/) -->

<svg
   xmlns:dc="http://purl.org/dc/elements/1.1/"
   xmlns:cc="http://creativecommons.org/ns#"
   xmlns:rdf="http://www.w3.org/1999/02/22-rdf-syntax-ns#"
   xmlns:svg="http://www.w3.org/2000/svg"
   xmlns="http://www.w3.org/2000/svg"
   xmlns:sodipodi="http://sodipodi.sourceforge.net/DTD/sodipodi-0.dtd"
   xmlns:inkscape="http://www.inkscape.org/namespaces/inkscape"
   width="64"
   height="64"
   viewBox="0 0 16.933333 16.933334"
   version="1.1"
   id="svg8"
   inkscape:version="0.92.5 (2060ec1f9f, 2020-04-08)"
   sodipodi:docname="elevator.svg">
  <defs
     id="defs2" />
  <sodipodi:namedview
     id="base"
     pagecolor="#ffffff"
     bordercolor="#666666"
     borderopacity="1.0"
     inkscape:pageopacity="0.0"
     inkscape:pageshadow="2"
     inkscape:zoom="7.9195959"
     inkscape:cx="25.475044"
     inkscape:cy="42.537867"
     inkscape:document-units="px"
     inkscape:current-layer="layer1"
     showgrid="false"
     units="px"
     inkscape:window-width="1280"
     inkscape:window-height="974"
     inkscape:window-x="0"
     inkscape:window-y="0"
     inkscape:window-maximized="1" />
  <metadata
     id="metadata5">
    <rdf:RDF>
      <cc:Work
         rdf:about="">
        <dc:format>image/svg+xml</dc:format>
        <dc:type
           rdf:resource="http://purl.org/dc/dcmitype/StillImage" />
        <dc:title></dc:title>
      </cc:Work>
    </rdf:RDF>
  </metadata>
  <g
     inkscape:label="Layer 1"
     inkscape:groupmode="layer"
     id="layer1"
     transform="translate(0,-280.06665)">
    <path
       style="fill:none;stroke:#000000;stroke-width:0.26458335px;stroke-linecap:butt;stroke-linejoin:miter;stroke-opacity:1"
       d="m 0,280.99722 c 0.22272461,0 0.44544923,0 0.66817385,0 0.0157522,0 0.16552931,-0.002 0.16704344,0 0.007875,0.008 -0.007875,0.0255 0,0.0334 0.007875,0.008 0.0222724,0 0.0334087,0 0.0111363,0 0.0222724,0 0.0334087,0 0.13363471,0 0.26726951,0 0.40090431,0 0.08909,0 0.1781797,0 0.2672695,0 0.011136,0 0.022272,0 0.033409,0 0.011136,0 0.025534,0.008 0.033409,0 0.00787,-0.008 -0.00787,-0.0255 0,-0.0334 0.026116,-0.0261 0.058119,0.0291 0.066817,0.0334 0.00996,0.005 0.022272,0 0.033409,0 0.011136,0 0.023448,0.005 0.033409,0 0.082566,-0.0413 -0.011532,-0.0334 0.066817,-0.0334 0.1670434,0 0.3340869,0 0.5011303,0 0.011136,0 0.022272,0 0.033409,0 0.011136,0 0.025534,0.008 0.033409,0 0.00787,-0.008 -0.00787,-0.0255 0,-0.0334 0.00787,-0.008 0.025534,-0.008 0.033409,0 0.00787,0.008 -0.00787,0.0255 0,0.0334 0.00787,0.008 0.022272,0 0.033409,0 0.022272,0 0.044545,0 0.066817,0 0.040844,0 0.3186474,0.008 0.3340869,0 0.014086,-0.007 0.019323,-0.0264 0.033409,-0.0334 0.010279,-0.005 0.089946,-0.005 0.100226,0 0.014086,0.007 0.019322,0.0264 0.033409,0.0334 0.019717,0.01 0.077771,0 0.100226,0 0.08909,0 0.1781797,0 0.2672697,0 0.2338607,0 0.4677217,0 0.7015824,0 0.012269,0 0.1322903,-0.001 0.1336349,0 0.00787,0.008 -0.00787,0.0255 0,0.0334 0.010345,0.0103 0.1566985,-0.0103 0.1670434,0 0.00787,0.008 -0.00787,0.0255 0,0.0334 0.00787,0.008 0.022273,0 0.033409,0 0.011136,0 0.022273,0 0.033409,0 0.08909,0 0.1781796,0 0.2672696,0 0.1893157,0 0.3786317,0 0.5679477,0 0.012269,0 0.1322904,10e-4 0.1336347,0 0.00787,-0.008 -0.00787,-0.0255 0,-0.0334 0.012959,-0.013 0.187492,0.013 0.2004523,0 0.00787,-0.008 -0.00787,-0.0255 0,-0.0334 0.00787,-0.008 0.022273,0 0.033409,0 0.011136,0 0.022273,0 0.033409,0 0.1113623,0 0.2227244,0 0.3340867,0 0.013756,0 0.091383,0.009 0.1002263,0 0.00787,-0.008 -0.00787,-0.0255 0,-0.0334 0.00884,-0.009 0.08647,0 0.100226,0 0.1781797,0 0.3563594,0 0.5345391,0 0.08909,0 0.1781797,0 0.2672694,0 0.022273,0 0.044545,0 0.066818,0 0.011136,0 0.023447,-0.005 0.033409,0 0.014086,0.007 0.019323,0.0264 0.033409,0.0334 0.019717,0.01 0.077771,0 0.100226,0 0.08909,0 0.1781797,0 0.2672694,0 0.2227247,0 0.4454494,0 0.668174,0 0.04398,0 0.2771627,-0.0118 0.3006781,0 0.014086,0.007 0.019322,0.0264 0.033409,0.0334 0.015439,0.008 0.2932423,0 0.3340868,0 0.1781797,0 0.3563593,0 0.534539,0 0.037573,0 0.1667169,-0.0112 0.2004523,0 0.023622,0.008 0.043194,0.0255 0.066817,0.0334 0.035286,0.0118 0.2173174,0 0.2672694,0 0.013208,0 0.1527751,0.007 0.1670441,0 0.01409,-0.007 0.01932,-0.0264 0.03341,-0.0334 0.0161,-0.008 0.11053,0 0.133635,0 0.08909,0 0.17818,0 0.26727,0 0.23386,0 0.467721,0 0.701582,0 0.08909,0 0.17818,0 0.26727,0 0.02245,0 0.08051,0.01 0.100226,0 0.01409,-0.007 0.01932,-0.0264 0.03341,-0.0334 0.0161,-0.008 0.11053,0 0.133635,0 0.111363,0 0.222725,0 0.334087,0 0.02246,0 0.08051,0.01 0.100226,0 0.01409,-0.007 0.01932,-0.0264 0.03341,-0.0334 0.0295,-0.0148 0.255126,0.0121 0.26727,0 0.0079,-0.008 -0.0079,-0.0255 0,-0.0334 0.0088,-0.009 0.08647,0 0.100226,0 0.08909,0 0.178179,0 0.267269,0 0.02246,0 0.08051,0.01 0.100226,0 0.01409,-0.007 0.01932,-0.0264 0.03341,-0.0334 0.02119,-0.0106 0.136954,0 0.167043,0 0.122499,0 0.244997,0 0.367496,0 0.01906,0 0.198734,-0.002 0.200452,0 0.0079,0.008 -0.0079,0.0255 0,0.0334 0.01671,0.0167 0.08352,-0.0167 0.100226,0 0.04455,0.0445 -0.05568,0.0334 0.03341,0.0334 0.04454,0 0.08909,0 0.133635,0 0.01114,0 0.03341,-0.0111 0.03341,0 0,0.0111 -0.03341,-0.0111 -0.03341,0 0,0.0157 0.02637,0.0193 0.03341,0.0334 0.0106,0.0212 0,0.13695 0,0.16704 0,0.14477 0,0.28955 0,0.43432 0,0.0137 0.0088,0.0914 0,0.10022 -0.0079,0.008 -0.02553,-0.008 -0.03341,0 -0.01568,0.0157 0.01568,0.21818 0,0.23386 -0.0079,0.008 -0.02553,-0.008 -0.03341,0 -0.0015,0.002 0,0.1513 0,0.16705 0,0.31181 0,0.62363 0,0.93544 0,0.17818 0,0.35636 0,0.53454 0,0.0557 0,0.11136 0,0.16704 0,0.0223 -0.01,0.0469 0,0.0668 0.07645,0.1529 -0.01385,-0.14177 0.06682,0.10023 0.01022,0.0307 0,0.19038 0,0.23386 0,0.17818 0,0.35636 0,0.53454 0,0.0223 -0.002,0.23187 0,0.23386 0.0079,0.008 0.02553,-0.008 0.03341,0 0.0088,0.009 0,0.0865 0,0.10022 0,0.21159 0,0.42318 0,0.63477 0,0.20045 0,0.4009 0,0.60135 0,0.0408 0.0077,0.31865 0,0.33409 -0.007,0.0141 -0.02637,0.0193 -0.03341,0.0334 -0.01005,0.0201 0,0.26504 0,0.30068 0,0.245 0,0.48999 0,0.73499 0,0.0338 0.009,0.21589 0,0.23386 -0.007,0.0141 -0.02637,0.0193 -0.03341,0.0334 -0.0099,0.0197 0,0.0778 0,0.10023 0,0.0891 0,0.17818 0,0.26727 0,0.21158 0,0.42317 0,0.63476 0,0.32295 0,0.6459 0,0.96885 0,0.10023 0,0.20045 0,0.30068 0,0.0314 -0.01141,0.11082 0,0.13364 0.007,0.0141 0.02637,0.0193 0.03341,0.0334 0.008,0.0161 0,0.11053 0,0.13364 0,0.1225 0,0.245 0,0.36749 0,0.0158 -0.0015,0.16553 0,0.16705 0.0079,0.008 0.02553,-0.008 0.03341,0 0.0079,0.008 0,0.0223 0,0.0334 0,0.0111 0,0.0223 0,0.0334 0,0.12249 0,0.24499 0,0.36749 0,0.0966 -0.01063,0.21564 0,0.30068 0.002,0.0156 0.02637,0.0193 0.03341,0.0334 0.01038,0.0208 0,0.22834 0,0.26727 0,0.21159 0,0.42317 0,0.63476 0,0.37863 0,0.75727 0,1.1359 0,0.0157 -0.0015,0.16553 0,0.16704 0.0079,0.008 0.02554,-0.008 0.03341,0 0.0079,0.008 0,0.0223 0,0.0334 0,0.0111 0,0.0223 0,0.0334 0,0.13363 0,0.26727 0,0.4009 0,0.14477 0,0.28955 0,0.43432 0,0.0138 -0.0088,0.0914 0,0.10022 0.0079,0.008 0.02553,-0.008 0.03341,0 0.01575,0.0158 -0.01575,0.0511 0,0.0668 0.0079,0.008 0.02553,-0.008 0.03341,0 0.01034,0.0103 -0.01035,0.1567 0,0.16704 0.0079,0.008 0.02553,-0.008 0.03341,0 0.0015,0.002 0,0.15129 0,0.16705 0,0.0784 -0.0079,-0.0157 0.03341,0.0668 0.01154,0.0231 -0.01173,0.15532 0,0.16705 0.0079,0.008 0.02553,-0.008 0.03341,0 0.01671,0.0167 -0.0167,0.0835 0,0.10022 0.0079,0.008 0.02553,-0.008 0.03341,0 0.0014,0.001 0,0.12137 0,0.13364 0,0.1225 0,0.245 0,0.36749 0,0.0301 -0.0106,0.14585 0,0.16705 0.007,0.0141 0.02637,0.0193 0.03341,0.0334 0.005,0.01 0,0.0223 0,0.0334 0,0.0111 0.005,0.0235 0,0.0334 -0.007,0.0141 -0.02637,0.0193 -0.03341,0.0334 -0.008,0.0161 0,0.11053 0,0.13364 0,0.0779 0,0.1559 0,0.23386 0,0.0334 0,0.0668 0,0.10022 0,0.0111 0.01114,0.0334 0,0.0334 -0.01114,0 0.01114,-0.0334 0,-0.0334 -0.01575,0 -0.01766,0.0334 -0.03341,0.0334 -0.01575,0 -0.01932,-0.0264 -0.03341,-0.0334 -0.05939,-0.0297 -0.01856,0.0186 -0.03341,0.0334 -0.01448,0.0145 -0.172302,-0.0141 -0.200452,0 -0.01409,0.007 -0.01932,0.0264 -0.03341,0.0334 -0.03516,0.0176 -0.23211,-0.0176 -0.26727,0 -0.01409,0.007 -0.01932,0.0264 -0.03341,0.0334 -0.01028,0.005 -0.08995,0.005 -0.100226,0 -0.01409,-0.007 -0.01766,-0.0334 -0.03341,-0.0334 -0.01575,0 -0.01932,0.0264 -0.03341,0.0334 -0.008,0.004 -0.326045,0.004 -0.334087,0 -0.01409,-0.007 -0.01932,-0.0264 -0.03341,-0.0334 -0.03564,-0.0178 -0.098,0.0178 -0.133634,0 -0.01,-0.005 0.01114,-0.0334 0,-0.0334 -0.01575,0 -0.01932,0.0264 -0.03341,0.0334 -0.0161,0.008 -0.11053,0 -0.133635,0 -0.01114,0 -0.02553,0.008 -0.03341,0 -0.0079,-0.008 0.0079,-0.0255 0,-0.0334 -0.0079,-0.008 -0.02227,0 -0.03341,0 -0.03009,0 -0.14585,-0.0106 -0.167044,0 -0.01409,0.007 -0.01932,0.0264 -0.03341,0.0334 -0.01544,0.008 -0.293243,0 -0.334087,0 -0.17818,0 -0.35636,0 -0.534539,0 -0.122499,0 -0.244998,0 -0.367496,0 -0.01114,0 -0.02227,0 -0.03341,0 -0.01114,0 -0.02553,-0.008 -0.03341,0 -0.0079,0.008 0.0079,0.0255 0,0.0334 -0.0013,10e-4 -0.121365,0 -0.133634,0 -0.122499,0 -0.244997,0 -0.367496,0 -0.02311,0 -0.117535,-0.008 -0.133635,0 -0.01409,0.007 -0.01932,0.0264 -0.03341,0.0334 -0.0161,0.008 -0.11053,0 -0.133635,0 -0.08909,0 -0.17818,0 -0.26727,0 -0.100226,0 -0.200452,0 -0.3006781,0 -0.023103,0 -0.1175356,0.008 -0.1336347,0 -0.014086,-0.007 -0.019322,-0.0264 -0.033409,-0.0334 -0.015097,-0.008 -0.1718294,0 -0.200452,0 -0.08909,0 -0.1781797,0 -0.2672697,0 -0.022455,0 -0.080509,-0.01 -0.100226,0 -0.014086,0.007 -0.019322,0.0264 -0.033409,0.0334 -0.020765,0.0104 -0.2283389,0 -0.2672696,0 -0.1893158,0 -0.3786318,0 -0.5679478,0 -0.040844,0 -0.3186475,0.008 -0.334087,0 -0.014086,-0.007 -0.019323,-0.0264 -0.033409,-0.0334 -0.026727,-0.0134 -0.073499,0.0134 -0.1002261,0 -0.1390388,-0.0695 0.035715,0.002 -0.033409,-0.0668 -0.00135,-10e-4 -0.121366,0 -0.1336347,0 -0.2449971,0 -0.4899944,0 -0.7349914,0 -0.08909,0 -0.1781797,0 -0.2672694,0 -0.022455,0 -0.08051,0.01 -0.100226,0 -0.014086,-0.007 -0.019323,-0.0264 -0.033409,-0.0334 -0.035636,-0.0178 -0.097999,0.0178 -0.1336347,0 -0.014086,-0.007 -0.019322,-0.0264 -0.033409,-0.0334 -0.023077,-0.0115 -0.1553162,0.0117 -0.1670434,0 -0.00787,-0.008 0.00787,-0.0255 0,-0.0334 -0.00787,-0.008 -0.022273,0 -0.033409,0 -0.011136,0 -0.022273,0 -0.033409,0 -0.08909,0 -0.1781797,0 -0.2672697,0 -0.045769,0 -0.2804924,0.0101 -0.3006783,0 -0.014086,-0.007 -0.019323,-0.0264 -0.033409,-0.0334 -0.03516,-0.0176 -0.2321094,0.0176 -0.2672694,0 -0.014086,-0.007 -0.019323,-0.0264 -0.033409,-0.0334 -0.00996,-0.005 -0.025535,0.008 -0.033409,0 -0.00787,-0.008 0.00787,-0.0255 0,-0.0334 -0.00172,-0.002 -0.1813915,0 -0.2004523,0 -0.011136,0 -0.025535,0.008 -0.033409,0 -0.00787,-0.008 0.00787,-0.0255 0,-0.0334 -0.00787,-0.008 -0.022273,0 -0.033409,0 -0.011136,0 -0.025535,-0.008 -0.033409,0 -0.015748,0.0157 0.015748,0.0511 0,0.0668 -0.00151,0.002 -0.1512914,0 -0.1670434,0 -0.4899943,0 -0.9799884,0 -1.4699824,0 -0.1447711,0 -0.2895421,0 -0.4343131,0 -0.038931,0 -0.2465049,0.0104 -0.2672695,0 -0.014087,-0.007 -0.019322,-0.0264 -0.033409,-0.0334 -0.020732,-0.0104 -0.1187737,0 -0.1336348,0 -0.1002261,0 -0.2004521,0 -0.3006782,0 -0.3229507,0 -0.6459014,0 -0.9688521,0 -0.24499705,0 -0.4899941,0 -0.73499118,0 -0.11136231,0 -0.22272462,0 -0.33408692,0 -0.02227247,0 -0.04454493,0 -0.06681739,0 -0.01113623,0 -0.03340869,0.0111 -0.03340869,0 0,-0.0111 0.02227246,0 0.03340869,0 0.01113624,0 0.02227247,0 0.03340869,0 0.01113624,0 0.02227247,0 0.0334087,0 0.0111362,0 0.0255342,-0.008 0.0334087,0 0.007874,0.008 -0.007875,0.0255 0,0.0334 0.0167043,0.0167 0.0835217,-0.0167 0.10022607,0 0.007875,0.008 -0.007874,0.0255 0,0.0334 0.002327,0.002 0.24167062,0 0.26726953,0 0.0890898,0 -0.0111363,-0.0111 0.0334087,0.0334 0.007875,0.008 0.0222724,0 0.0334087,0 0.0111363,0 0.0222724,0 0.0334087,0 0.15590724,0 0.31181445,0 0.4677216,0 0.011136,0 0.023448,-0.005 0.033409,0 0.014086,0.007 0.019322,0.0264 0.033409,0.0334 0.00996,0.005 0.022272,0 0.033409,0 0.011136,0 0.023448,0.005 0.033409,0 0.014086,-0.007 0.019322,-0.0264 0.033409,-0.0334 0.016099,-0.008 0.1105298,0 0.1336348,0 0.100226,0 0.2004521,0 0.3006782,0 0.013756,0 0.091383,-0.009 0.1002261,0 0.00787,0.008 -0.00996,0.0284 0,0.0334 0.012199,0.006 0.1605407,-0.007 0.1670434,0 0.00787,0.008 -0.00787,0.0255 0,0.0334 0.010345,0.0104 0.1566986,-0.0103 0.1670435,0 0.00787,0.008 -0.00787,0.0255 0,0.0334 0.00233,0.002 0.2416706,0 0.2672695,0 0.011136,0 0.022272,0 0.033409,0 0.011136,0 0.025534,-0.008 0.033409,0 0.00787,0.008 -0.00787,0.0255 0,0.0334 0.015444,0.0154 0.080055,-0.0101 0.1002261,0 0.014086,0.007 0.019322,0.0264 0.033409,0.0334 0.019921,0.01 0.051068,-0.0158 0.066817,0 0.00787,0.008 -0.00787,0.0255 0,0.0334 0.017286,0.0173 0.2005985,-0.0166 0.2338608,0 0.014086,0.007 0.019323,0.0264 0.033409,0.0334 0.00996,0.005 0.022273,0 0.033409,0 0.022273,0 0.044545,0 0.066817,0 0.022328,0 0.2318711,0.002 0.233861,0 0.00787,-0.008 -0.00787,-0.0255 0,-0.0334 0.015444,-0.0154 0.080055,0.0101 0.100226,0 0.082566,-0.0413 -0.011531,-0.0334 0.066817,-0.0334 0.022273,0 0.045688,-0.007 0.066817,0 0.00978,0.003 0.039932,0.0603 0.066817,0.0334 0.00787,-0.008 -0.00787,-0.0255 0,-0.0334 0.00787,-0.008 0.022273,0 0.033409,0 0.011136,0 0.023447,-0.005 0.033409,0 0.014086,0.007 0.019322,0.0264 0.033409,0.0334 0.021193,0.0106 0.1369547,0 0.1670436,0 0.1336347,0 0.2672694,0 0.4009044,0 0.200452,0 0.4009041,0 0.6013564,0 0.052974,0 0.1968121,0.0123 0.2338607,0 0.010565,-0.004 -0.010565,-0.0299 0,-0.0334 1.833e-4,-6e-5 0.2890822,-0.006 0.3006783,0 0.014086,0.007 0.019322,0.0264 0.033409,0.0334 0.03299,0.0165 0.1674625,-0.0165 0.200452,0 0.082566,0.0413 -0.011533,0.0334 0.066818,0.0334 0.013756,0 0.091383,0.009 0.1002261,0 0.00787,-0.008 -0.011136,-0.0334 0,-0.0334 0.0249,0 0.043194,0.0255 0.066817,0.0334 0.029491,0.01 0.1078558,0 0.1336347,0 0.08909,0 0.1781797,0 0.2672697,0 0.033409,0 0.066817,0 0.100226,0 0.011136,0 0.033409,-0.0111 0.033409,0 0,0.0111 -0.022273,0 -0.033409,0 -0.078349,0 0.015748,0.008 -0.066817,-0.0334 -0.019717,-0.01 -0.077771,0 -0.100226,0 -0.052704,0 -0.1960674,0.0126 -0.233861,0 -0.023625,-0.008 -0.043194,-0.0255 -0.066817,-0.0334 -0.028571,-0.01 -0.1891599,0.0113 -0.2004521,0 -0.00787,-0.008 0.00787,-0.0255 0,-0.0334 -0.024902,-0.0249 -0.066818,0.0223 -0.1002262,0.0334 -0.033416,0.0111 -0.1580103,0 -0.2004521,0 -0.6013564,0 -1.202713,0 -1.8040694,0 -0.4788578,0 -0.9577158,0 -1.4365737,0 -0.077954,0 -0.1559072,0 -0.2338609,0 -0.011136,0 -0.025534,0.008 -0.033409,0 -0.00787,-0.008 0.00787,-0.0255 0,-0.0334 -0.00787,-0.008 -0.022272,0 -0.033409,0 -0.022272,0 -0.044545,0 -0.066817,0 -0.08909,0 -0.1781797,0 -0.2672696,0 -0.022455,0 -0.080509,0.01 -0.100226,0 -0.014086,-0.007 -0.018468,-0.0284 -0.033409,-0.0334 -0.033588,-0.0112 -0.3091539,0 -0.36749558,0 -0.21158838,0 -0.42317677,0 -0.63476515,0 -0.025599,0 -0.26494238,0.002 -0.26726954,0 -0.0078745,-0.008 0.0078745,-0.0255 0,-0.0334 -0.0078745,-0.008 -0.02553419,0.008 -0.03340869,0 -0.06912377,-0.0691 0.10563028,0.003 -0.03340869,-0.0668 -0.00996055,-0.005 -0.02553419,0.008 -0.03340869,0 -0.01544365,-0.0155 0.01008564,-0.0801 0,-0.10023 -0.0070432,-0.0141 -0.03340869,-0.0177 -0.03340869,-0.0334 0,-0.0158 0.02636551,-0.0193 0.03340869,-0.0334 0.0089847,-0.018 0,-0.20003 0,-0.23386 0,-0.20045 0,-0.4009 0,-0.60135 0,-0.43432 0,-0.86863 0,-1.30294 0,-0.14477 0,-0.28955 0,-0.43432 0,-0.0301 0.01059666,-0.14585 0,-0.16704 -0.0070432,-0.0141 -0.02636552,-0.0193 -0.03340869,-0.0334 -0.0075483,-0.0151 0,-0.17183 0,-0.20045 0,-0.245 0,-0.48999 0,-0.73499 0,-0.10023 0,-0.20045 0,-0.30068 0,-0.0223 0,-0.0445 0,-0.0668 0,-0.0111 -0.01113624,-0.0334 0,-0.0334 0.01113623,0 -0.0078745,0.0255 0,0.0334 0.0078745,0.008 0.02553419,-0.008 0.03340869,0 0.0172859,0.0173 -0.01663118,0.2006 0,0.23386 0.0070432,0.0141 0.02636552,0.0193 0.03340869,0.0334 0.00498027,0.01 -0.00498027,0.0234 0,0.0334 0.00704317,0.0141 0.02842842,0.0185 0.03340869,0.0334 0.01056476,0.0317 0,0.0668 0,0.10023 0,0.0111 0,0.0223 0,0.0334 0,0.0111 0.01113624,0.0334 0,0.0334 -0.02227246,0 0.0099606,-0.0469 0,-0.0668 -0.0070449,-0.014 -0.02843017,-0.0183 -0.03341044,-0.0333 -0.0090754,-0.0272 0,-0.16575 0,-0.20046 0,-0.13363 0,-0.26726 0,-0.4009 0,-0.15591 0,-0.31181 0,-0.46772 0,-0.0347 -0.0090754,-0.17323 0,-0.20045 0.00498027,-0.0149 0.02636552,-0.0193 0.03340869,-0.0334 0.0075483,-0.0151 0,-0.17183 0,-0.20045 0,-0.15591 0,-0.31182 0,-0.46773 0,-0.10022 0,-0.20045 0,-0.30067 0,-0.008 0.0059665,-0.18852 0,-0.20046 C 0.02636552,290.60484 0.00704317,290.5996 0,290.58551 c -0.00771969,-0.0154 0,-0.29324 0,-0.33408 0,-0.28954 0,-0.57909 0,-0.86863 0,-0.10022 0,-0.20045 0,-0.30068 0,-0.0445 0,-0.0891 0,-0.13363 0,-0.0111 -0.01113623,-0.0334 0,-0.0334 0.01113623,0 0,0.0223 0,0.0334 0,0.0111 0,0.0223 0,0.0334 0,0.0779 0,0.1559 0,0.23386 0,0.21159 0,0.42318 0,0.63476 0,0.0111 0.01113623,0.0334 0,0.0334 -0.01113623,0 0.0078745,-0.0413 0,-0.0334 -0.01760793,0.0176 -0.01580077,0.0492 -0.03340869,0.0668 -0.0078745,0.008 0,-0.0223 0,-0.0334 0,-0.0445 0,-0.0891 0,-0.13363 0,-0.0301 0.01059666,-0.14585 0,-0.16705 -0.0070432,-0.0141 -0.02636552,-0.0193 -0.03340869,-0.0334 -0.01059667,-0.0212 0,-0.13696 0,-0.16705 0,-0.33408 0,-0.66817 0,-1.00226 0,-0.8909 0,-1.7818 0,-2.67269 0,-0.26727 0,-0.53454 0,-0.80181 0,-0.10023 0,-0.20045 0,-0.30068 0,-0.0446 0,-0.0891 0,-0.13364 0,-0.0111 -0.01113624,-0.0334 0,-0.0334 0.01113623,0 0,0.0223 0,0.0334 0,0.0446 0,0.0891 0,0.13364 0,0.18931 0,0.37863 0,0.56795 0,0.1225 0,0.24499 0,0.36749 0,0.0301 -0.01059667,0.14585 0,0.16705 0.0070432,0.0141 0.02636551,0.0193 0.03340869,0.0334 0.0075483,0.0151 0,0.17183 0,0.20046 0,0.1559 0,0.31181 0,0.46772 0,0.11136 0,0.22272 0,0.33409 0,0.0231 -0.0080496,0.11753 0,0.13363 0.0070432,0.0141 0.02636552,0.0193 0.03340869,0.0334 0.00996055,0.0199 -0.02227246,0.0668 0,0.0668 0.01574901,0 0.02636552,-0.0193 0.03340869,-0.0334 0.01004576,-0.0201 0,-0.26504 0,-0.30068 0,-0.43431 0,-0.86863 0,-1.30294 0,-0.18932 0,-0.37863 0,-0.56795 0,-0.0565 -0.01259243,-0.22949 0,-0.26727 0.0078745,-0.0236 0.02736923,-0.0427 0.03340869,-0.0668 0.0088445,-0.0354 -0.01334203,-0.17377 0,-0.20046 0.0070432,-0.0141 0.029589,-0.0181 0.0334087,-0.0334 0.008074,-0.0323 -0.0064129,-0.19403 0,-0.20045 0.007875,-0.008 0.0284284,0.01 0.0334087,0 0.0103663,-0.0207 0,-0.10403 0,-0.13363 0,-0.0891 0,-0.17818 0,-0.26727 0,-0.0334 -0.005492,-0.0673 0,-0.10023 0.005789,-0.0347 0.0248676,-0.0661 0.0334087,-0.10022 0.0114397,-0.0458 0,-0.20947 0,-0.26727 0,-0.0111 0,-0.0223 0,-0.0334 0,-0.0111 -0.007875,-0.0255 0,-0.0334 0.007875,-0.008 0.0284284,0.01 0.0334087,0 0.006529,-0.0131 0,-0.20176 0,-0.23386 0,-0.16705 0,-0.33409 0,-0.50113 0,-0.0391 0.008482,-0.2169 0,-0.23386 -0.007043,-0.0141 -0.0222725,-0.0223 -0.0334087,-0.0334 -0.0111362,-0.0111 -0.0263655,-0.0193 -0.0334087,-0.0334 -0.0103823,-0.0208 0,-0.22834 0,-0.26727 0,-0.20045 0,-0.4009 0,-0.60136 0,-0.0779 0,-0.1559 0,-0.23386 0,-0.0111 0,-0.0223 0,-0.0334 0,-0.0111 -0.0111362,-0.0334 0,-0.0334 0.0111362,0 0,0.0223 0,0.0334 0,0.0334 0,0.0668 0,0.10023 0,0.0779 0,0.15591 0,0.23386 0,0.20045 0,0.40091 0,0.60136 0,0.16704 0,0.33408 0,0.50113 0,0.041 0.0102507,0.23652 0,0.26727 -0.0330073,0.099 -0.0334087,0.0389 -0.0334087,0.13363 0,0.0334 0,0.0668 0,0.10023 0,0.0111 0.0111362,0.0334 0,0.0334 -0.01113624,0 0.00498,-0.0235 0,-0.0334 -0.0070432,-0.0141 -0.02636552,-0.0193 -0.0334087,-0.0334 -0.01008565,-0.0202 0.01544365,-0.0848 0,-0.10023 -0.0078745,-0.008 -0.02553419,0.008 -0.03340869,0 -0.0026827,-0.003 0,-0.14074 0,-0.16704 0,-0.16704 0,-0.33409 0,-0.50113 0,-0.0727 0.01071854,-0.23637 0,-0.30068 C -0.00996055,281.472 0,281.84546 0,281.59858 c 0,-0.0891 0,-0.17818 0,-0.26727 0,-0.0111 0,-0.0223 0,-0.0334 0,-0.0111 -0.01113623,-0.0334 0,-0.0334 0.01113623,0 0,0.0445 0,0.0334 0,-0.0334 0,-0.0668 0,-0.10023 0,-0.0111 -0.01113623,-0.0334 0,-0.0334 0.01113623,0 0,0.0223 0,0.0334 0,0.0111 0,0.0223 0,0.0334 0,0.0111 0,0.0223 0,0.0334 0,0.0111 0.0078745,0.0255 0,0.0334 -0.0078745,0.008 -0.02553419,-0.008 -0.03340869,0 -0.0078745,0.008 0,0.0223 0,0.0334 0,0.0891 0,0.17818 0,0.26727 0,0.0947 -4.0138e-4,0.0346 -0.03340869,0.13363 -0.0070432,0.0211 0,0.0446 0,0.0668 0,0.16704 0,0.33409 0,0.50113 0,0.4009 0,0.80181 0,1.20271 0,0.17818 0,0.35636 0,0.53454 0,0.0445 0,0.0891 0,0.13364 0,0.0111 0.01113623,0.0334 0,0.0334 -0.01113624,0 0,-0.0223 0,-0.0334 0,-0.0334 0,-0.0668 0,-0.10023 0,-0.078 0,-0.15591 0,-0.23386 0,-0.20045 0,-0.40091 0,-0.60136 0,-0.32295 0,-0.6459 0,-0.96885 0,-0.0125 8.337e-4,-0.16621 0,-0.16704 -0.0078745,-0.008 -0.0255342,0.008 -0.0334087,0 -0.008917,-0.009 0.008917,-0.29176 0,-0.30068 -0.007875,-0.008 -0.0255342,0.008 -0.0334087,0 -0.007874,-0.008 0,-0.0223 0,-0.0334 0,-0.0111 0,-0.0223 0,-0.0334 0,-0.16704 0,-0.33409 0,-0.50113 0,-0.0123 -0.001344,-0.13229 0,-0.13363 0.03937252,-0.0394 0.08908985,-0.0668 0.13363478,-0.10023 z"
       id="path24"
       inkscape:connector-curvature="0" />
    <path
       style="fill:none;stroke:#000000;stroke-width:0.26458335px;stroke-linecap:butt;stroke-linejoin:miter;stroke-opacity:1"
       d="m 13.764391,280.89702 c 0.212938,0.0938 0.293482,0.1002 0.467712,0.1002 0.01114,0 0.02553,0.008 0.03341,0 0.0079,-0.008 -0.0079,-0.0255 0,-0.0334 0.0079,-0.008 0.02227,0 0.03341,0 0.01114,0 0.02227,0 0.03341,0 0.01227,0 0.13229,10e-4 0.133635,0 0.0079,-0.008 -0.0079,-0.0255 0,-0.0334 0.01575,-0.0158 0.0469,0.01 0.06682,0 0.01409,-0.007 0.01932,-0.0264 0.03341,-0.0334 0.01972,-0.01 0.07777,0 0.100226,0 0.04179,0 0.310882,0.0116 0.334087,0 0.01409,-0.007 0.01932,-0.0264 0.03341,-0.0334 0.01,-0.005 0.02553,0.008 0.03341,0 0.0079,-0.008 -0.0079,-0.0255 0,-0.0334 0.0167,-0.0167 0.08352,0.0167 0.100226,0 0.0079,-0.008 -0.0079,-0.0255 0,-0.0334 0.008,-0.008 0.125596,0.008 0.133635,0 0.0079,-0.008 -0.0079,-0.0255 0,-0.0334 0.008,-0.008 0.125595,0.008 0.133635,0 0.01575,-0.0157 -0.01575,-0.0511 0,-0.0668 0.0013,-10e-4 0.121365,0 0.133634,0 0.02311,0 0.117536,0.008 0.133635,0 0.01409,-0.007 0.01932,-0.0264 0.03341,-0.0334 0.01992,-0.01 0.05107,0.0157 0.06682,0 0.0079,-0.008 -0.0079,-0.0255 0,-0.0334 0.01575,-0.0157 0.05107,0.0157 0.06682,0 0.0079,-0.008 -0.0079,-0.0255 0,-0.0334 0.01035,-0.0104 0.156698,0.0103 0.167043,0 0.0079,-0.008 -0.0079,-0.0255 0,-0.0334 0.0079,-0.008 0.02553,0.008 0.03341,0 0.0079,-0.008 -0.0079,-0.0255 0,-0.0334 0.0079,-0.008 0.02554,0.008 0.03341,0 0.0079,-0.008 -0.0079,-0.0255 0,-0.0334 0.01575,-0.0157 0.05107,0.0158 0.06682,0 0.0079,-0.008 -0.0079,-0.0255 0,-0.0334 0.0079,-0.008 0.02554,0.008 0.03341,0 0.0079,-0.008 -0.0079,-0.0255 0,-0.0334 0.01575,-0.0157 0.05107,0.0158 0.06682,0 0.0079,-0.008 -0.0079,-0.0255 0,-0.0334 0.01671,-0.0167 0.08352,0.0167 0.100226,0 0.0079,-0.008 -0.0079,-0.0255 0,-0.0334 0.008,-0.008 0.125596,0.008 0.133635,0 0.0079,-0.008 -0.0079,-0.0255 0,-0.0334 0.0079,-0.008 0.02227,0 0.03341,0 0.01114,0 0.03341,-0.0111 0.03341,0 0,0.0111 -0.02227,0 -0.03341,0 -0.02227,0 -0.04455,0 -0.06682,0 -0.03142,0 -0.110822,-0.0114 -0.133635,0 -0.01409,0.007 -0.01766,0.0334 -0.03341,0.0334 -0.01575,0 -0.01932,-0.0264 -0.03341,-0.0334 -0.0161,-0.008 -0.11053,0 -0.133635,0 -0.07835,0 0.01575,-0.008 -0.06682,0.0334 -0.01,0.005 -0.02553,-0.008 -0.03341,0 -0.0079,0.008 0.01,0.0284 0,0.0334 -0.02038,0.0102 -0.189938,-0.0105 -0.200452,0 -0.0079,0.008 0.0079,0.0255 0,0.0334 -0.01448,0.0145 -0.172302,-0.0141 -0.200452,0 -0.01409,0.007 -0.01932,0.0264 -0.03341,0.0334 -0.01,0.005 -0.02345,-0.005 -0.03341,0 -0.01409,0.007 -0.01932,0.0264 -0.03341,0.0334 -0.03564,0.0178 -0.098,-0.0178 -0.133635,0 -0.01409,0.007 -0.01932,0.0264 -0.03341,0.0334 -0.02017,0.0101 -0.08478,-0.0154 -0.100226,0 -0.06912,0.0691 0.105631,-0.003 -0.03341,0.0668 -0.02815,0.0141 -0.185968,-0.0145 -0.200452,0 -0.0079,0.008 0.0079,0.0255 0,0.0334 -0.01575,0.0157 -0.05107,-0.0157 -0.06682,0 -0.0079,0.008 0.0079,0.0255 0,0.0334 -0.0167,0.0167 -0.08352,-0.0167 -0.100226,0 -0.0079,0.008 0.0079,0.0255 0,0.0334 -0.01575,0.0157 -0.0469,-0.01 -0.06682,0 -0.01409,0.007 -0.01847,0.0284 -0.03341,0.0334 -1.52e-4,5e-5 -0.100194,-3e-5 -0.100226,0 -0.06912,0.0691 0.10563,-0.003 -0.03341,0.0668 -0.01812,0.009 -0.124493,-0.009 -0.133635,0 -0.0079,0.008 0.0079,0.0255 0,0.0334 -0.01575,0.0158 -0.05107,-0.0157 -0.06682,0 -0.0079,0.008 0.0079,0.0255 0,0.0334 -0.0088,0.009 -0.08647,0 -0.100226,0 -0.01114,0 -0.02227,0 -0.03341,0 -0.01114,0 -0.02554,-0.008 -0.03341,0 -0.0079,0.008 0.0079,0.0255 0,0.0334 -0.0017,0.002 -0.181391,0 -0.200452,0 -0.02227,0 -0.04454,0 -0.06682,0 -0.01114,0 -0.03341,0.0111 -0.03341,0 0,-0.0111 0.02227,0 0.03341,0 0.01114,0 0.02227,0 0.03341,0 0.02246,0 0.08051,-0.01 0.100226,0 0.01409,0.007 0.01932,0.0264 0.03341,0.0334 0.0161,0.008 0.11053,0 0.133635,0 0.04084,0 0.318648,0.008 0.334087,0 0.01409,-0.007 0.01932,-0.0264 0.03341,-0.0334 0.01797,-0.009 0.200035,0 0.23386,0 0.01575,0 0.16553,0.002 0.167044,0 0.0079,-0.008 -0.0079,-0.0255 0,-0.0334 0.0167,-0.0167 0.08352,0.0167 0.100226,0 0.0079,-0.008 -0.0079,-0.0255 0,-0.0334 0.01544,-0.0154 0.08005,0.0101 0.100226,0 0.01409,-0.007 0.01932,-0.0264 0.03341,-0.0334 0.02308,-0.0115 0.155316,0.0117 0.167043,0 0.0079,-0.008 -0.0079,-0.0255 0,-0.0334 0.0167,-0.0167 0.08352,0.0167 0.100226,0 0.06912,-0.0691 -0.10563,0.003 0.03341,-0.0668 0.01992,-0.01 0.05107,0.0157 0.06682,0 0.01575,-0.0158 -0.01575,-0.0511 0,-0.0668 0.0079,-0.008 0.02227,0 0.03341,0 0,-0.0111 -0.0079,-0.0255 0,-0.0334 0.0227,-0.0227 0.06644,0.0342 0.100226,-0.0334 0,-0.0891 -0.01114,0.0111 0.03341,-0.0334 0.0079,-0.008 -0.0079,-0.0255 0,-0.0334 0.01671,-0.0167 0.08352,0.0167 0.100226,0 0.0079,-0.008 -0.0079,-0.0255 0,-0.0334 0.0079,-0.008 0.02553,0.008 0.03341,0 0.0079,-0.008 -0.01,-0.0284 0,-0.0334 0.01992,-0.01 0.0469,0.01 0.06682,0 0.01,-0.005 -0.0079,-0.0255 0,-0.0334 0.0091,-0.009 0.115511,0.009 0.133635,0 0.01409,-0.007 0.01932,-0.0264 0.03341,-0.0334 0.03501,-0.0175 0.299072,0.0175 0.334087,0 0.08257,-0.0413 -0.01153,-0.0334 0.06682,-0.0334 0.01114,0 0.02227,0 0.03341,0 0.01114,0 0.02553,0.008 0.03341,0 0.0079,-0.008 -0.0079,-0.0255 0,-0.0334 0.0014,-10e-4 0.121366,0 0.133635,0 0.08909,0 -0.01114,0.0111 0.03341,-0.0334 0.0079,-0.008 0.03341,-0.0111 0.03341,0 0,0.0111 -0.02227,0 -0.03341,0"
       id="path26"
       inkscape:connector-curvature="0" />
    <path
       style="fill:none;stroke:#000000;stroke-width:0.26458335px;stroke-linecap:butt;stroke-linejoin:miter;stroke-opacity:1"
       d="m 16.838,280.26242 c 0.01113,0.0222 0.0556,0.0555 0.03339,0.0666 -0.02221,0.0111 -0.03339,-0.0915 -0.03339,-0.0666 0,0.0677 0.02381,0.13327 0.03339,0.20026 0.01153,0.0807 0,0.21434 0,0.30068 0,0.21159 0,0.42318 0,0.63476 0,0.0191 -0.0017,0.19874 0,0.20046 0.0079,0.008 0.02553,-0.008 0.03341,0 0.01569,0.0157 -0.01568,0.21817 0,0.23386 0.0079,0.008 0.02554,-0.008 0.03341,0 0.0079,0.008 0,0.0223 0,0.0334 0,0.0111 0,0.0223 0,0.0334 0,0.11136 0,0.22272 0,0.33408 0,0.0286 -0.0075,0.18536 0,0.20045 0.007,0.0141 0.02637,0.0193 0.03341,0.0334 0.008,0.0161 0,0.11053 0,0.13364 0,0.11136 0,0.22272 0,0.33408 0,0.28955 0,0.57909 0,0.86863 0,0.25613 0,0.51227 0,0.7684 0,0.10023 0,0.20045 0,0.30068 0,0.0111 0,0.0223 0,0.0334 0,0.0111 -0.0079,0.0255 0,0.0334 0.0079,0.008 0.02553,-0.008 0.03341,0 0.0017,0.002 0,0.18139 0,0.20045 0,0.41204 0,0.82408 0,1.23612 0,0.35636 0,0.71272 0,1.06908 0,0.0157 -0.0015,0.16553 0,0.16704 0.0079,0.008 0.02554,-0.008 0.03341,0 0.01296,0.013 -0.01296,0.18749 0,0.20045 0.0079,0.008 0.02553,-0.008 0.03341,0 0.0079,0.008 0,0.0223 0,0.0334 0,0.0223 0.01,0.0469 0,0.0668 -0.005,0.01 -0.02554,-0.008 -0.03341,0 -0.0013,0.001 0,0.12137 0,0.13363 0,0.23387 0,0.46773 0,0.70159 0,0.13363 0,0.26727 0,0.4009 0,0.0111 0,0.0223 0,0.0334 0,0.0111 0.0079,0.0255 0,0.0334 -0.0079,0.008 -0.02554,-0.008 -0.03341,0 -0.0013,10e-4 0,0.12136 0,0.13363 0,0.26727 0,0.53454 0,0.80181 0,0.38977 0,0.77954 0,1.16931 0,0.0191 0.0017,0.19873 0,0.20045 -0.0079,0.008 -0.02553,-0.008 -0.03341,0 -0.0079,0.008 0,0.0223 0,0.0334 0,0.0111 0,0.0223 0,0.0334 0,0.1559 0,0.31181 0,0.46772 0,0.0256 -0.0023,0.26494 0,0.26727 0.0079,0.008 0.02553,-0.008 0.03341,0 0.01035,0.0103 -0.01034,0.1567 0,0.16704 0.0079,0.008 0.02554,-0.008 0.03341,0 0.01544,0.0154 -0.01009,0.0801 0,0.10023 0.007,0.0141 0.02637,0.0193 0.03341,0.0334 0.008,0.0161 0,0.11053 0,0.13363 0,0.10023 0,0.20045 0,0.30068 0,0.30068 0,0.60135 0,0.90203 0,0.0191 0.0017,0.19874 0,0.20045 -0.0079,0.008 -0.02554,-0.008 -0.03341,0 -0.0079,0.008 0,0.0223 0,0.0334 0,0.0111 0,0.0223 0,0.0334 0,0.10023 0,0.20045 0,0.30068 0,0.4009 0,0.80181 0,1.20271 0,0.0191 -0.0017,0.19874 0,0.20046 0.0079,0.008 0.02553,-0.008 0.03341,0 0.0079,0.008 0,0.0223 0,0.0334 0,0.0111 0,0.0223 0,0.0334 0,0.13364 0,0.26727 0,0.40091 0,0.0389 0.01038,0.2465 0,0.26727 -0.007,0.0141 -0.02637,0.0193 -0.03341,0.0334 -0.005,0.01 0.0079,0.0255 0,0.0334 -0.0079,0.008 -0.02554,-0.008 -0.03341,0 -0.008,0.008 0.008,0.1256 0,0.13364 -0.0079,0.008 -0.02227,0 -0.03341,0 -0.01114,0 -0.02227,0 -0.03341,0 -0.100226,0 -0.200452,0 -0.300678,0 -0.01114,0 -0.02227,0 -0.03341,0 -0.01114,0 -0.02554,-0.008 -0.03341,0 -0.0079,0.008 0.0079,0.0255 0,0.0334 -0.0079,0.008 -0.02227,0 -0.03341,0 -0.01114,0 -0.02227,0 -0.03341,0 -0.08909,0 -0.17818,0 -0.26727,0 -0.02246,0 -0.08051,-0.01 -0.100226,0 -0.01409,0.007 -0.02227,0.0223 -0.03341,0.0334 -0.02227,0 -0.04569,-0.007 -0.06682,0 -0.01494,0.005 -0.01932,0.0264 -0.03341,0.0334 -0.03299,0.0165 -0.167462,-0.0165 -0.200452,0 -0.01409,0.007 -0.01932,0.0264 -0.03341,0.0334 -0.0161,0.008 -0.110529,0 -0.133634,0 -0.122499,0 -0.244997,0 -0.367496,0 -0.189316,0 -0.378632,0 -0.567948,0 -0.08909,0 -0.178179,0 -0.267269,0 -0.01114,0 -0.02227,0 -0.03341,0 -0.01114,0 -0.03341,0.0111 -0.03341,0 0,-0.0111 0.02227,0 0.03341,0 0.01114,0 0.02227,0 0.03341,0 0.04454,0 0.08909,0 0.133635,0 0.122498,0 0.244997,0 0.367495,0 0.200452,0 0.400904,0 0.601357,0 0.01375,0 0.09138,-0.009 0.100226,0 0.0079,0.008 -0.0079,0.0255 0,0.0334 0.0088,0.009 0.08647,0 0.100226,0 0.01227,0 0.13229,10e-4 0.133635,0 0.0079,-0.008 -0.0079,-0.0255 0,-0.0334 0.0079,-0.008 0.02227,0 0.03341,0 0.0231,0 0.117536,-0.008 0.133635,0 0.08257,0.0413 -0.01153,0.0334 0.06682,0.0334 0.0256,0 0.264943,0.002 0.26727,0 0.0079,-0.008 -0.0079,-0.0255 0,-0.0334 0.0047,-0.005 0.09337,-0.003 0.100226,0 0.01409,0.007 0.01932,0.0264 0.03341,0.0334 0.0735,0.0367 -0.0067,-0.0702 0.06682,-0.0334 0.01409,0.007 0.01932,0.0264 0.03341,0.0334 0.01972,0.01 0.07777,0 0.100226,0 0.01114,0 0.02227,0 0.03341,0 0.01114,0 0.03341,-0.0111 0.03341,0 0,0.0111 -0.02227,0 -0.03341,0"
       id="path28"
       inkscape:connector-curvature="0" />
    <path
       style="fill:none;stroke:#000000;stroke-width:0.26458335px;stroke-linecap:butt;stroke-linejoin:miter;stroke-opacity:1"
       d="m 0,280.99719 c 0.03498379,-0.24485 0.03340869,-0.1551 0.03340869,-0.26724 0,-0.0111 -0.0078745,-0.0255 0,-0.0334 0.0078745,-0.008 0.0255342,0.008 0.03340869,0 0.01574901,-0.0158 -0.015749,-0.0511 0,-0.0668 0.0078745,-0.008 0.0255342,0.008 0.0334087,0 0.007875,-0.008 -0.0078745,-0.0255 0,-0.0334 0.007875,-0.008 0.0255342,0.008 0.0334087,0 0.015749,-0.0157 -0.015749,-0.0511 0,-0.0668 0.007874,-0.008 0.0255342,0.008 0.0334087,0 0.007875,-0.008 -0.007875,-0.0255 0,-0.0334 0.015749,-0.0157 0.0510684,0.0158 0.0668174,0 0.0167043,-0.0167 -0.0167043,-0.0835 0,-0.10023 0.007875,-0.008 0.0255342,0.008 0.0334087,0 0.007875,-0.008 -0.007875,-0.0255 0,-0.0334 0.0157491,-0.0158 0.0510684,0.0157 0.0668174,0 0.0167042,-0.0167 -0.0167045,-0.0835 0,-0.10023 0.007875,-0.008 0.0234482,0.005 0.0334087,0 0.0281727,-0.0141 0.0386447,-0.0527 0.0668174,-0.0668 0.00996,-0.005 0.0255341,0.008 0.0334087,0 0.0157491,-0.0157 -0.0157491,-0.0511 0,-0.0668 0.0157491,-0.0157 0.0510684,0.0158 0.0668174,0 0.0157491,-0.0157 -0.0157491,-0.0511 0,-0.0668 0.007875,-0.008 0.0234482,0.005 0.0334087,0 0.0140864,-0.007 0.0193223,-0.0264 0.0334087,-0.0334 0.00996,-0.005 0.0255341,0.008 0.0334087,0 0.0157491,-0.0157 -0.0157491,-0.0511 0,-0.0668 0.007875,-0.008 0.0255341,0.008 0.0334087,0 0.007875,-0.008 -0.007875,-0.0255 0,-0.0334 0.007875,-0.008 0.0222724,0 0.0334087,0 0.0111363,0 0.0255341,-0.008 0.0334087,0 0.0157491,0.0158 -0.0157491,0.0511 0,0.0668 0.0167045,0.0167 0.0835217,-0.0167 0.10022607,0 0.0157491,0.0158 -0.0157491,0.0511 0,0.0668 0.0157491,0.0158 0.0510684,-0.0158 0.0668174,0 0.007875,0.008 -0.007875,0.0255 0,0.0334 0.00172,0.002 0.18139145,0 0.20045215,0 0.022328,0 0.2318711,-0.002 0.2338609,0 0.00787,0.008 -0.00787,0.0255 0,0.0334 0.00787,0.008 0.022272,0 0.033409,0 0.011136,0 0.022272,0 0.033409,0 0.1224985,0 0.244997,0 0.3674956,0 0.036923,0 0.2113863,0.0112 0.2338608,0 0.014086,-0.007 0.019322,-0.0264 0.033409,-0.0334 0.030546,-0.0153 0.1631107,0.0124 0.2004522,0 0.1042792,-0.0348 -0.011136,-0.0223 0.033409,-0.0668 0.015444,-0.0154 0.080055,0.0101 0.1002261,0 0.014087,-0.007 0.019322,-0.0264 0.033409,-0.0334 0.02815,-0.0141 0.1859685,0.0145 0.2004522,0 0.00787,-0.008 -0.00787,-0.0255 0,-0.0334 0.015684,-0.0157 0.2181764,0.0157 0.2338609,0 0.00787,-0.008 -0.00787,-0.0255 0,-0.0334 0.00787,-0.008 0.022273,0 0.033409,0 0.035639,0 0.2805867,-0.01 0.3006781,0 0.014086,0.007 0.019323,0.0264 0.033409,0.0334 0.020172,0.0101 0.084782,-0.0154 0.1002261,0 0.00787,0.008 -0.00787,0.0255 0,0.0334 0.017285,0.0173 0.2005983,-0.0166 0.2338607,0 0.014086,0.007 0.019322,0.0264 0.033409,0.0334 0.019921,0.01 0.051069,-0.0157 0.066817,0 0.00787,0.008 -0.00787,0.0255 0,0.0334 0.00787,0.008 0.023447,-0.005 0.033409,0 0.014086,0.007 0.019323,0.0264 0.033409,0.0334 0.013888,0.007 0.2338607,-0.006 0.2338607,0 0,0.0111 -0.044545,0 -0.033409,0 0.077954,0 0.1559074,0 0.2338608,0 0.2004523,0 0.4009043,0 0.6013566,0 0.08909,0 0.1781797,0 0.2672694,0 0.011136,0 0.025535,0.008 0.033409,0 0.00787,-0.008 -0.00787,-0.0255 0,-0.0334 0.00787,-0.008 0.022273,0 0.033409,0 0.011136,0 0.022273,0 0.033409,0 0.1559074,0 0.3118147,0 0.4677217,0 0.038931,0 0.2465049,-0.0104 0.2672697,0 0.014086,0.007 0.019322,0.0264 0.033409,0.0334 0.034866,0.0174 0.1317394,-0.0177 0.1670433,0 0.014086,0.007 0.019323,0.0264 0.033409,0.0334 0.034441,0.0172 0.1327973,-0.0171 0.1670436,0 0.00996,0.005 -0.00787,0.0255 0,0.0334 0.00787,0.008 0.022273,0 0.033409,0 0.011136,0 0.022273,0 0.033409,0 0.035097,0 0.104144,0.01 0.1336347,0 0.014941,-0.005 0.019323,-0.0264 0.033409,-0.0334 0.020764,-0.0104 0.2283389,0 0.2672697,0 0.2561333,0 0.5122667,0 0.7683998,0 0.08909,0 -0.011136,0.0111 0.033409,-0.0334 0.00334,-0.003 0.096885,-0.003 0.1002263,0 0.069124,0.0691 -0.1056304,-0.003 0.033409,0.0668 0.020765,0.0104 0.2283389,0 0.2672694,0 0.038931,0 0.2465049,0.0104 0.2672696,0 0.014087,-0.007 0.019323,-0.0264 0.033409,-0.0334 0.023077,-0.0115 0.1553163,0.0117 0.1670434,0 0.00787,-0.008 -0.00787,-0.0255 0,-0.0334 0.00787,-0.008 0.022273,0 0.033409,0 0.011136,0 0.022273,0 0.033409,0 0.8686261,0 1.7372527,0 2.6058787,0 0.133634,0 0.267269,0 0.400904,0 0.01114,0 0.02227,0 0.03341,0 0.01114,0 0.02553,0.008 0.03341,0 0.0079,-0.008 -0.0079,-0.0255 0,-0.0334 0.0088,-0.009 0.08647,0 0.100226,0 0.08909,0 0.17818,0 0.26727,0 0.02311,0 0.117535,-0.008 0.133635,0 0.01409,0.007 0.01932,0.0264 0.03341,0.0334 0.02352,0.0118 0.256698,0 0.300678,0 0.01114,0 0.02227,0 0.03341,0 0.01114,0 0.02554,-0.008 0.03341,0 0.0079,0.008 -0.0079,0.0255 0,0.0334 0.0079,0.008 0.02227,0 0.03341,0 0.01114,0 0.02227,0 0.03341,0 0.111362,0 0.222724,0 0.334086,0 0.0256,0 0.264943,-0.002 0.26727,0 0.0079,0.008 -0.0079,0.0255 0,0.0334 0.01296,0.013 0.187492,-0.013 0.200452,0 0.0079,0.008 -0.01114,0.0334 0,0.0334 0.01575,0 0.01932,-0.0264 0.03341,-0.0334 0.02076,-0.0104 0.228339,0 0.267269,0 0.01227,0 0.132291,0.001 0.133635,0 0.01485,-0.0148 -0.02599,-0.0631 0.03341,-0.0334 0.01409,0.007 0.01766,0.0334 0.03341,0.0334 0.01575,0 0.01932,-0.0264 0.03341,-0.0334 0.01,-0.005 0.02345,0.005 0.03341,0 0.01409,-0.007 0.01932,-0.0264 0.03341,-0.0334 0.01,-0.005 0.02227,0 0.03341,0 0.02227,0 0.04454,0 0.06682,0 0.08909,0 0.178179,0 0.267269,0 0.02311,0 0.117536,0.008 0.133635,0 0.07235,-0.0362 -0.01175,-0.0334 0.100226,-0.0334 0.08909,0 -0.01114,0.0111 0.03341,-0.0334 0.0047,-0.005 0.09337,-0.003 0.100226,0 0.01409,0.007 0.01932,0.0264 0.03341,0.0334 0.02119,0.0106 0.136955,0 0.167044,0 0.133635,0 0.267269,0 0.400904,0 0.01376,0 0.09138,-0.009 0.100226,0 0.0079,0.008 -0.0079,0.0255 0,0.0334 0.0088,0.009 0.08647,0 0.100226,0 0.111363,0 0.222725,0 0.334087,0 0.02311,0 0.117536,0.008 0.133635,0 0.110803,-0.11081 -0.0315,0.0157 0.06682,-0.0334 0.01409,-0.007 0.01932,-0.0264 0.03341,-0.0334 0.03053,-0.0153 0.203333,0.0153 0.233861,0 0.01409,-0.007 0.01932,-0.0264 0.03341,-0.0334 0.02076,-0.0104 0.228338,0 0.267269,0 0.03341,0 0.06682,0 0.100226,0 0.01114,0 0.03341,-0.0111 0.03341,0 0,0.0111 -0.04454,0 -0.03341,0 0.03341,0 0.06682,0 0.100226,0 0.01114,0 0.03341,-0.0111 0.03341,0 0,0.0111 -0.04454,0 -0.03341,0 0.02227,0 0.04454,0 0.06682,0 0.01114,0 0.02554,-0.008 0.03341,0 0.0079,0.008 -0.0079,0.0255 0,0.0334 0.0079,0.008 0.02227,0 0.03341,0 -0.02227,0.078 -0.04453,0.15603 -0.0668,0.23405"
       id="path34"
       inkscape:connector-curvature="0" />
    <path
       style="fill:none;stroke:#000000;stroke-width:0.26458335px;stroke-linecap:butt;stroke-linejoin:miter;stroke-opacity:1"
       d="m 15.702091,280.62982 c -0.03242,0.11167 -0.03341,0.19647 -0.03341,0.30058 0,0.0111 0.005,0.0234 0,0.0334 -0.007,0.0141 -0.02637,0.0193 -0.03341,0.0334 -0.01782,0.0356 0.01782,0.098 0,0.13364 -0.007,0.0141 -0.02637,0.0193 -0.03341,0.0334 -0.008,0.0161 0,0.11053 0,0.13364 0,0.11136 0,0.22272 0,0.33409 0,0.0389 -0.01038,0.2465 0,0.26727 0.007,0.0141 0.02637,0.0193 0.03341,0.0334 0.0099,0.0197 0,0.0778 0,0.10023 0,0.11136 0,0.22272 0,0.33409 0,0.0231 -0.008,0.11753 0,0.13363 0.007,0.0141 0.02637,0.0193 0.03341,0.0334 0.0075,0.0151 0,0.17183 0,0.20045 0,0.15591 0,0.31182 0,0.46772 0,0.10023 0,0.20046 0,0.30068 0,0.0231 -0.008,0.11754 0,0.13364 0.007,0.0141 0.02637,0.0193 0.03341,0.0334 0.0106,0.0212 0,0.13695 0,0.16704 0,0.1225 0,0.245 0,0.36749 0,0.15591 0,0.31182 0,0.46773 0,0.0286 -0.0075,0.18535 0,0.20045 0.007,0.0141 0.02637,0.0193 0.03341,0.0334 0.0106,0.0212 0,0.13695 0,0.16704 0,0.13364 0,0.26727 0,0.4009 0,0.37864 0,0.75727 0,1.1359 0,0.11136 0,0.22273 0,0.33409 0,0.0111 0,0.0223 0,0.0334 0,0.0111 -0.0079,0.0255 0,0.0334 0.0079,0.008 0.02554,-0.008 0.03341,0 0.0079,0.008 0,0.0223 0,0.0334 0,0.0111 0,0.0223 0,0.0334 0,0.10023 0,0.20045 0,0.30068 0,0.20045 0,0.4009 0,0.60136 0,0.33408 0,0.66817 0,1.00226 0,0.1559 0,0.31181 0,0.46772 0,0.0111 0,0.0223 0,0.0334 0,0.0111 0.0079,0.0255 0,0.0334 -0.01761,0.0176 -0.04921,0.0158 -0.06682,0.0334 -0.0167,0.0167 0.0167,0.0835 0,0.10022 -0.0079,0.008 -0.02553,-0.008 -0.03341,0 -0.0017,0.002 0,0.18139 0,0.20045 0,0.13364 0,0.26727 0,0.40091 0,0.0111 0,0.0223 0,0.0334 0,0.0111 0.0079,0.0255 0,0.0334 -0.0079,0.008 -0.02553,-0.008 -0.03341,0 -0.0079,0.008 0,0.0223 0,0.0334 0,0.0111 0,0.0223 0,0.0334 0,0.0208 0.0037,0.2636 0,0.26727 -0.0079,0.008 -0.02553,-0.008 -0.03341,0 -0.0079,0.008 0,0.0223 0,0.0334 0,0.0111 0,0.0223 0,0.0334 0,0.10023 0,0.20045 0,0.30068 0,0.28954 0,0.57908 0,0.86862 0,0.0891 0,0.17818 0,0.26727 0,0.0225 -0.0099,0.0805 0,0.10023 0.007,0.0141 0.02637,0.0193 0.03341,0.0334 0.01038,0.0208 0,0.22834 0,0.26727 0,0.14477 0,0.28954 0,0.43431 0,0.20045 0,0.40091 0,0.60136 0,0.0389 -0.01038,0.2465 0,0.26727 0.007,0.0141 0.02637,0.0193 0.03341,0.0334 0.0106,0.0212 0,0.13695 0,0.16704 0,0.13363 0,0.26727 0,0.4009 0,0.17818 0,0.35636 0,0.53454 0,0.0338 -0.009,0.21589 0,0.23386 0.007,0.0141 0.02637,0.0193 0.03341,0.0334 0.009,0.018 0,0.20004 0,0.23386 0,0.0567 -0.01185,0.26512 0,0.30068 0.0079,0.0236 0.02553,0.0432 0.03341,0.0668 0.01148,0.0344 -0.01373,0.13958 0,0.16704 0.007,0.0141 0.02843,0.0185 0.03341,0.0334 0.0094,0.0282 0,0.12964 0,0.16704 0,0.1225 0,0.245 0,0.3675 0,0.0301 -0.0106,0.14585 0,0.16704 0.01409,0.0282 0.05273,0.0387 0.06682,0.0668 0.01336,0.0267 -0.01336,0.0735 0,0.10023 0.007,0.0141 0.02637,0.0193 0.03341,0.0334 0.0048,0.01 1.3e-5,0.16106 -8e-6,0.0666"
       id="path36"
       inkscape:connector-curvature="0" />
    <path
       style="fill:none;stroke:#000000;stroke-width:0.26458335px;stroke-linecap:butt;stroke-linejoin:miter;stroke-opacity:1"
       d="m 16.838,280.26242 c -3.5e-5,0.61243 -1.9e-5,1.22486 -1.9e-5,1.83729 0,0.0779 0,0.1559 0,0.23386 0,0.0334 0,0.0668 0,0.10022 0,0.0111 0.01114,0.0334 0,0.0334 -0.01114,0 0,-0.0223 0,-0.0334 0,-0.0668 0,-0.13363 0,-0.20045 0,-0.0668 0,-0.13363 0,-0.20045 0,-0.0111 -0.01114,-0.0334 0,-0.0334 0.01114,0 0,0.0223 0,0.0334 0,0.0445 0,0.0891 0,0.13363 0,0.10023 0,0.20046 0,0.30068 0,0.10023 0,0.20045 0,0.30068 0,0.0258 -0.0098,0.10415 0,0.13364 0.0079,0.0236 0.02737,0.0427 0.03341,0.0668 0.0131,0.0524 -0.0131,0.11464 0,0.16705 0.03839,0.15355 0.03341,0.008 0.03341,0.10022 0,0.0891 -0.01114,-0.0111 0.03341,0.0334 0.0079,0.008 0,0.0223 0,0.0334 0,0.0668 0,0.13363 0,0.20045 0,0.10023 0,0.20045 0,0.30068 0,0.0446 0,0.0891 0,0.13364 0,0.0111 0.01114,0.0334 0,0.0334 -0.01114,0 0,-0.0223 0,-0.0334 0,-0.0111 0,-0.0223 0,-0.0334 0,-0.0223 0.002,-0.23187 0,-0.23386 -0.0079,-0.008 -0.02553,0.008 -0.03341,0 -0.0079,-0.008 0.0079,-0.0255 0,-0.0334 -0.0079,-0.008 -0.02553,0.008 -0.03341,0 -0.0099,-0.01 0.01035,-0.11294 0,-0.13364 -0.007,-0.0141 -0.02637,-0.0193 -0.03341,-0.0334 -0.0106,-0.0212 0,-0.13695 0,-0.16704 0,-0.0111 0,-0.0223 0,-0.0334 0,-0.0111 0.0079,-0.0255 0,-0.0334 -0.0079,-0.008 -0.02553,0.008 -0.03341,0 -0.0079,-0.008 -0.01114,-0.0334 0,-0.0334 0.01114,0 0,0.0223 0,0.0334 0,0.0111 0,0.0223 0,0.0334 0,0.078 0,0.15591 0,0.23386 0,0.14477 0,0.28954 0,0.43432 0,0.0424 -0.01114,0.16703 0,0.20045 0.0079,0.0236 0.02737,0.0427 0.03341,0.0668 0.01196,0.0478 -0.01478,0.30453 0,0.33409 0.007,0.0141 0.02843,0.0185 0.03341,0.0334 0.0126,0.0378 -0.01519,0.28549 0,0.30068 0.0079,0.008 0.02553,0.008 0.03341,0 0.0014,-10e-4 0,-0.12137 0,-0.13364 0,-0.0784 0.0079,0.0158 -0.03341,-0.0668 -0.01009,-0.0202 0.01544,-0.0848 0,-0.10023 -0.0079,-0.008 -0.02554,0.008 -0.03341,0 -0.0015,-0.002 0,-0.15129 0,-0.16704 0,-0.0668 0,-0.13364 0,-0.20046 0,-0.0111 -0.01114,-0.0334 0,-0.0334 0.01114,0 0,0.0223 0,0.0334 0,0.54568 0,1.09136 0,1.63703 0,0.16704 0,0.33409 0,0.50113 0,0.0668 0,0.13364 0,0.20045 0,0.0223 0,0.0891 0,0.0668 0,-0.0322 0.0087,-0.099 0,-0.13363 -0.0085,-0.0342 -0.02487,-0.0661 -0.03341,-0.10023 -0.0027,-0.0108 0.0079,-0.0255 0,-0.0334 -0.0079,-0.008 -0.02554,0.008 -0.03341,0 -0.01173,-0.0117 0.01154,-0.14397 0,-0.16704 -0.007,-0.0141 -0.02637,-0.0193 -0.03341,-0.0334 -0.0099,-0.0197 0,-0.0778 0,-0.10023 0,-0.0445 0,-0.0891 0,-0.13363 0,-0.0111 -0.01114,-0.0334 0,-0.0334 0.01114,0 0,0.0223 0,0.0334 0,0.0111 0,0.0223 0,0.0334 0,0.0779 0,0.1559 0,0.23386 0,0.0351 -0.0098,0.10414 0,0.13363 0.005,0.0149 0.02636,0.0193 0.03341,0.0334 0.0082,0.0164 0,0.243 0,0.26727 0,0.22273 0,0.44545 0,0.66817 0,0.11137 0,0.22273 0,0.33409 0,0.0446 0,0.0891 0,0.13364 0,0.0111 0,0.0445 0,0.0334 0,-0.18931 0,-0.37863 0,-0.56794 0,-0.0557 0,-0.11137 0,-0.16705 0,-0.0223 0,-0.0445 0,-0.0668 0,-0.0111 -0.01114,-0.0334 0,-0.0334 0.06237,0 0.02027,0.10736 0.03341,0.13363 0.007,0.0141 0.02637,0.0193 0.03341,0.0334 0.008,0.0161 0,0.11053 0,0.13364 0,0.0533 -0.0118,0.15324 0,0.20045 0.006,0.0242 0.02554,0.0432 0.03341,0.0668 0.0035,0.0106 -0.0022,0.0225 0,0.0334 0.009,0.045 0.0244,0.0886 0.03341,0.13364 0.0044,0.0218 -0.01,0.0469 0,0.0668 0.007,0.0141 0.02843,0.0185 0.03341,0.0334 0.0096,0.0288 0,0.16636 0,0.20046 0,0.1225 0,0.24499 0,0.36749 0,0.0366 -0.01119,0.31171 0,0.33409 0.007,0.0141 0.02637,0.0193 0.03341,0.0334 0.01,0.0199 -0.01575,0.0511 0,0.0668 0.0079,0.008 0.02553,-0.008 0.03341,0 0.0033,0.003 -0.01559,0.11581 0.03341,0.0668 0.0079,-0.008 0,-0.0223 0,-0.0334 0,-0.0445 0,-0.0891 0,-0.13363 0,-0.11685 0.01357,-0.0198 -0.06682,-0.10023 -0.0015,-0.001 0,-0.15129 0,-0.16704 0,-0.30068 0,-0.60136 0,-0.90203 0,-0.0891 0,-0.17818 0,-0.26727 0,-0.0111 0,-0.0223 0,-0.0334 0,-0.0111 -0.01114,-0.0334 0,-0.0334 0.01114,0 0,0.0223 0,0.0334 0,0.0223 0,0.0445 0,0.0668 0,0.10023 0,0.20046 0,0.30068 0,0.13364 0,0.26727 0,0.40091 0,0.0231 0.008,0.11753 0,0.13363 -0.007,0.0141 -0.02637,0.0193 -0.03341,0.0334 -0.0092,0.0183 0,0.1309 0,0.16704 0,0.13364 0,0.26727 0,0.40091 0,0.0124 0.0052,0.26205 0,0.26727 -0.0079,0.008 -0.02553,-0.008 -0.03341,0 -0.0079,0.008 0.01114,0.0334 0,0.0334 -0.0059,0 0.0061,-0.12147 0,-0.13364 -0.01409,-0.0282 -0.05273,-0.0386 -0.06682,-0.0668 -0.01743,-0.0349 0.01765,-0.13174 0,-0.16704 -0.007,-0.0141 -0.02637,-0.0193 -0.03341,-0.0334 -0.01334,-0.0267 0.0088,-0.16507 0,-0.20045 -0.006,-0.0242 -0.02554,-0.0432 -0.03341,-0.0668 -0.01171,-0.0351 0,-0.1265 0,-0.16704 0,-0.13364 0,-0.26727 0,-0.40091 0,-0.0891 0,-0.17817 0,-0.26726 0,-0.0111 0,-0.0223 0,-0.0334 0,-0.0111 -0.01114,-0.0334 0,-0.0334 0.01114,0 0,0.0223 0,0.0334 0,0.0111 0,0.0223 0,0.0334 0,0.11136 0,0.22272 0,0.33408 0,0.0405 -0.01171,0.13193 0,0.16705 0.0079,0.0236 0.02852,0.0424 0.03341,0.0668 0.01092,0.0546 0,0.11137 0,0.16705 0,0.10022 0,0.20045 0,0.30067 0,0.0891 0,0.17818 0,0.26727 0,0.0334 -0.0066,0.0675 0,0.10023 0.0049,0.0244 0.02737,0.0427 0.03341,0.0668 0.0081,0.0324 0,0.0668 0,0.10022 0,0.078 0,0.15591 0,0.23386 0,0.0445 0,0.0891 0,0.13364 0,0.0111 0.01114,0.0334 0,0.0334 -0.01114,0 0,-0.0223 0,-0.0334 0,-0.0223 0,-0.0445 0,-0.0668 0,-0.0557 0,-0.11136 0,-0.16704 0,-0.27841 0,-0.55681 0,-0.83522 0,-0.0223 0,-0.0445 0,-0.0668 0,-0.0111 -0.01114,-0.0334 0,-0.0334 0.01114,0 0,0.0223 0,0.0334 0,0.0668 0,0.13364 0,0.20046 0,0.13363 0,0.26727 0,0.4009 0,0.26727 0,0.53454 0,0.80181 0,0.0185 0.008,0.34341 0,0.36749 -0.005,0.0149 -0.02637,0.0193 -0.03341,0.0334 -0.0099,0.0197 0,0.0778 0,0.10023 0,0.11136 0,0.22272 0,0.33409 0,0.011 -0.01828,0.15191 0.03341,0.10022 0.0079,-0.008 0,-0.0223 0,-0.0334 0,-0.0111 0,-0.0223 0,-0.0334 0,-0.13363 0,-0.26726 0,-0.4009 0,-0.0445 0,-0.0891 0,-0.13363 0,-0.0111 -0.01114,-0.0334 0,-0.0334 0.01114,0 0,0.0223 0,0.0334 0,0.0445 0,0.0891 0,0.13363 0,0.17818 0,0.35636 0,0.53454 0,0.23386 0,0.46772 0,0.70158 0,0.0891 0,0.17818 0,0.26727 0,0.0271 -0.0085,0.0747 0,0.10023 0.0079,0.0236 0.02554,0.0432 0.03341,0.0668 0.0117,0.0351 0,0.0963 0,0.13363 0,0.0779 0,0.15591 0,0.23386 0,0.0111 0,0.0223 0,0.0334 0,0.0111 0.01114,0.0334 0,0.0334 -0.01114,0 0,-0.0223 0,-0.0334 0,-0.0223 0,-0.0445 0,-0.0668 0,-0.0557 0,-0.11136 0,-0.16704 0,-0.0891 0.01114,0.0111 -0.03341,-0.0334 -0.0167,-0.0167 0.01671,-0.0835 0,-0.10023 -0.0079,-0.008 -0.02227,0 -0.03341,0 -0.01114,-0.0223 -0.02554,-0.0432 -0.03341,-0.0668 -0.01114,-0.0334 0,-0.15801 0,-0.20046 0,-0.11197 0.0028,-0.0279 -0.03341,-0.10022 -0.0099,-0.0197 0,-0.0778 0,-0.10023 0,-0.0111 0,-0.0223 0,-0.0334 0,-0.0111 -0.01114,-0.0334 0,-0.0334 0.01114,0 0,0.0223 0,0.0334 0,0.0111 0,0.0223 0,0.0334 0,0.0446 0,0.0891 0,0.13364 0,0.10754 -0.0079,-0.057 0.03341,0.0668 0.01184,0.0355 -0.01591,0.13523 0,0.16705 0.03618,0.0724 0.03341,-0.0118 0.03341,0.10022 0,0.30068 0,0.60136 0,0.90204 0,0.13363 0,0.26727 0,0.4009 0,0.0223 0,0.0446 0,0.0668 0,0.0111 0.01114,0.0334 0,0.0334 -0.01114,0 0,-0.0223 0,-0.0334 0,-0.0223 0,-0.0445 0,-0.0668 0,-0.10022 0,-0.20045 0,-0.30068 0,-0.10022 0,-0.20045 0,-0.30067 0,-0.0111 0,-0.0223 0,-0.0334 0,-0.0111 -0.0079,-0.0255 0,-0.0334 0.0079,-0.008 0.02554,0.008 0.03341,0 0.01308,-0.0131 -0.0119,-0.13364 0,-0.13364 0.01114,0 0,0.0223 0,0.0334 0,0.0668 0,0.13364 0,0.20046 0,0.13363 0,0.26726 0,0.4009 0,0.17818 0,0.35636 0,0.53454 0,0.0445 0,0.0891 0,0.13363 0,0.0111 0.01114,0.0334 0,0.0334 -0.01114,0 0,-0.0223 0,-0.0334 0,-0.0334 0,-0.0668 0,-0.10022 0,-0.15591 0,-0.31182 0,-0.46772 0,-0.16705 0,-0.33409 0,-0.50113 0,-0.0334 0,-0.0668 0,-0.10023 0,-0.0111 -0.01114,-0.0334 0,-0.0334 0.02227,0 -0.01,0.0469 0,0.0668 0.007,0.0141 0.02637,0.0193 0.03341,0.0334 0.01369,0.0274 -0.01059,0.10185 0,0.13363 0.0079,0.0236 0.02553,0.0432 0.03341,0.0668 0.01932,0.058 -0.01896,0.21038 0,0.26727 0.005,0.0149 0.02843,0.0185 0.03341,0.0334 0.01409,0.0423 0,0.0891 0,0.13363 0,0.1225 0,0.245 0,0.3675 0,0.0557 0,0.11136 0,0.16704 0,0.0223 0,0.0446 0,0.0668 0,0.0111 0.01114,0.0334 0,0.0334 -0.01114,0 0,-0.0223 0,-0.0334 0,-0.0334 0,-0.0668 0,-0.10023 0,-0.15591 0,-0.31181 0,-0.46772 0,-0.3675 0,-0.73499 0,-1.10249 0,-0.0111 0,-0.0223 0,-0.0334 0,-0.0111 -0.01114,-0.0334 0,-0.0334 0.01114,0 0,0.0223 0,0.0334 0,0.0445 0,0.0891 0,0.13364 0,0.0334 -0.01056,0.0685 0,0.10023 0.04916,0.14747 0.03341,-0.12138 0.03341,0.10022 0,0.34522 0,0.69045 0,1.03567 0,0.0668 0,0.13364 0,0.20045 0,0.11137 0,0.22273 0,0.33409 0,0.0223 0,0.0446 0,0.0668 0,0.0111 0.01114,0.0334 0,0.0334 -0.0119,0 0.01308,-0.12056 0,-0.13364 -0.0079,-0.008 -0.02554,0.008 -0.03341,0 -0.0079,-0.008 0,-0.0223 0,-0.0334 0,-0.0111 0,-0.0223 0,-0.0334 0,-0.0369 0.01124,-0.21138 0,-0.23386 -0.007,-0.0141 -0.02843,-0.0185 -0.03341,-0.0334 -0.0098,-0.0295 0,-0.0985 0,-0.13363 0,-0.0446 0,-0.0891 0,-0.13363 0,-0.0111 -0.01114,-0.0334 0,-0.0334 0.01114,0 0,0.0223 0,0.0334 0,0.0783 0.0079,-0.0157 -0.03341,0.0668 -0.0099,0.0197 0,0.0778 0,0.10023 0,0.0891 0,0.17818 0,0.26727 0,0.15591 0,0.31181 0,0.46772 0,0.0364 0.0082,0.184 0,0.20045 -0.007,0.0141 -0.02637,0.0193 -0.03341,0.0334 -0.0082,0.0165 0,0.16402 0,0.20045 0,0.0668 0,0.13364 0,0.20045 0,0.0111 0,0.0223 0,0.0334 0,0.0111 0.01114,0.0334 0,0.0334 -0.01114,0 0,-0.0223 0,-0.0334 0,-0.0111 0,-0.0223 0,-0.0334 0,-0.0445 0,-0.0891 0,-0.13363 0,-0.1225 0,-0.245 0,-0.3675 0,-0.1559 0,-0.31181 0,-0.46772 0,-0.0238 -0.01403,-0.10022 0.03341,-0.10022 0.01114,0 0,0.0223 0,0.0334 0,0.0223 0,0.0445 0,0.0668 0,0.10023 0,0.20045 0,0.30068 0,0.37863 0,0.75726 0,1.1359 0,0.0223 -0.002,0.23187 0,0.23386 0.05581,0.0558 0.03341,-0.15248 0.03341,-0.16705 0,-0.0225 0.0099,-0.0805 0,-0.10022 -0.007,-0.0141 -0.02843,-0.0185 -0.03341,-0.0334 -0.01773,-0.0532 0.01783,-0.14695 0,-0.20045 -0.0079,-0.0236 -0.02554,-0.0432 -0.03341,-0.0668 -0.0117,-0.0351 0,-0.0963 0,-0.13364 0,-0.0137 0.0088,-0.0914 0,-0.10022 -0.0079,-0.008 -0.02553,0.008 -0.03341,0 -0.0079,-0.008 -0.01114,-0.0334 0,-0.0334 0.01114,0 0,0.0223 0,0.0334 0,0.0111 0,0.0223 0,0.0334 0,0.0779 0,0.1559 0,0.23386 0,0.32295 0,0.6459 0,0.96885 0,0.0157 -0.0015,0.16553 0,0.16704 0.0079,0.008 0.02554,0.008 0.03341,0 0.0017,-0.002 0,-0.18139 0,-0.20045 0,-0.0138 -0.0088,-0.0914 0,-0.10022 0.0079,-0.008 0.02554,0.008 0.03341,0 0.0017,-0.002 0,-0.1814 0,-0.20046 0,-0.0445 0,-0.0891 0,-0.13363 0,-0.0111 -0.01114,-0.0334 0,-0.0334 0.01114,0 0,0.0223 0,0.0334 0,0.0111 0,0.0223 0,0.0334 0,0.0445 0,0.0891 0,0.13363 0,0.1225 0,0.245 0,0.3675 0,0.0286 -0.0075,0.18535 0,0.20045 0.007,0.0141 0.02843,0.0185 0.03341,0.0334 0.0094,0.0281 0,0.12964 0,0.16704 0,0.0111 0,0.0223 0,0.0334 0,0.0111 0.01114,0.0334 0,0.0334 -0.01114,0 0,-0.0223 0,-0.0334 0,-0.0111 0,-0.0223 0,-0.0334 0,-0.0111 -0.0079,-0.0255 0,-0.0334 0.0079,-0.008 0.02554,0.008 0.03341,0 0.002,-0.002 0,-0.21153 0,-0.23386 0,-0.0242 -0.01023,-0.17999 0,-0.20045 0.007,-0.0141 0.02637,-0.0193 0.03341,-0.0334 0.01,-0.0199 -0.01,-0.0469 0,-0.0668 0.007,-0.0141 0.02636,-0.0193 0.03341,-0.0334 0.0069,-0.0139 -0.0062,-0.23387 0,-0.23387 0.0039,0 -0.0049,0.0953 0,0.10023 0.0079,0.008 0.02554,-0.008 0.03341,0 0.0088,0.009 0,0.0865 0,0.10023 0,0.1559 0,0.31181 0,0.46772 0,0.044 0.01176,0.27716 0,0.30068 -0.007,0.0141 -0.02637,0.0193 -0.03341,0.0334 -0.01008,0.0202 0.01544,0.0848 0,0.10022 -0.08371,0.0836 -0.178177,0.15577 -0.267266,0.23365"
       id="path65"
       inkscape:connector-curvature="0" />
    <path
       style="fill:none;stroke:#000000;stroke-width:0.26458335px;stroke-linecap:butt;stroke-linejoin:miter;stroke-opacity:1"
       d="m 5.9467471,296.89976 c 0.044545,0 0.089955,0.009 0.1336347,0 0.015444,-0.003 0.026366,-0.0193 0.033409,-0.0334 0.00498,-0.01 -0.00787,-0.0413 0,-0.0334 0.017608,0.0176 0.025535,0.0432 0.033409,0.0668 0.00352,0.0106 -0.00787,0.0255 0,0.0334 0.016703,0.0167 0.083522,-0.0167 0.100226,0 0.00787,0.008 -0.00787,0.0255 0,0.0334 0.00884,0.009 0.08647,0 0.1002261,0 0.1670433,0 0.334087,0 0.5011303,0 0.077954,0 0.1559073,0 0.2338607,0 0.011136,0 0.022273,0 0.033409,0 0.011136,0 0.033409,-0.0111 0.033409,0 0,0.0111 -0.022273,0 -0.033409,0 -0.044545,0 -0.08909,0 -0.133635,0 -0.078349,0 0.015748,-0.008 -0.066817,0.0334 -0.015097,0.008 -0.1718294,0 -0.2004521,0 -0.1559073,0 -0.3118146,0 -0.4677217,0 -0.015753,0 -0.1655294,0.002 -0.1670436,0 -0.00787,-0.008 -0.00498,-0.0234 0,-0.0334 0.033784,-0.0676 0.077531,-0.0107 0.1002263,-0.0334 0.00787,-0.008 -0.00787,-0.0255 0,-0.0334 0.055424,-0.0554 0.1959999,-0.0334 0.2672694,-0.0334 0.023106,0 0.1175356,0.008 0.1336347,0 0.014086,-0.007 0.019323,-0.0264 0.033409,-0.0334 0.033251,-0.0166 0.216726,0.0171 0.2338607,0 0.00787,-0.008 -0.00787,-0.0255 0,-0.0334 0.00135,-10e-4 0.193833,0 0.2004521,0 0.1336349,0 0.2672696,0 0.4009043,0 0.042442,0 0.1670362,-0.0111 0.2004523,0 0.023625,0.008 0.043194,0.0255 0.066817,0.0334 0.02553,0.009 0.073121,0 0.100226,0 0.08909,0 0.1781797,0 0.2672696,0 0.1336347,0 0.2672694,0 0.4009041,0 0.011136,0 0.022273,0 0.033409,0 0.011136,0 0.025535,-0.008 0.033409,0 0.00787,0.008 -0.00787,0.0255 0,0.0334 0.00804,0.008 0.1255956,-0.008 0.1336347,0 0.00787,0.008 0.00787,0.0255 0,0.0334 -0.015444,0.0154 -0.080055,-0.0101 -0.100226,0 -0.082566,0.0413 0.011533,0.0334 -0.066818,0.0334 -0.1893157,0 -0.3786317,0 -0.5679477,0 -0.08909,0 -0.1781797,0 -0.2672694,0 -0.011136,0 -0.025535,-0.008 -0.033409,0 -0.00787,0.008 0.00787,0.0255 0,0.0334 -0.00999,0.01 -0.2612125,-0.0274 -0.2004523,0.0334 0.00334,0.003 0.096885,0.003 0.100226,0 0.00787,-0.008 -0.00787,-0.0255 0,-0.0334 0.00884,-0.009 0.08647,0 0.1002263,0 0.030089,0 0.14585,0.0106 0.1670434,0 0.014086,-0.007 0.019323,-0.0264 0.033409,-0.0334 0.0161,-0.008 0.1105299,0 0.1336347,0 0.1002262,0 0.2004523,0 0.3006783,0 0.013756,0 0.091383,0.009 0.100226,0 0.00787,-0.008 -0.00787,-0.0255 0,-0.0334 0.011107,-0.0111 0.2632234,0.0125 0.3006783,0 0.023625,-0.008 0.043194,-0.0255 0.066817,-0.0334 0.033735,-0.0113 0.1628791,0 0.200452,0 0.1002263,0 0.2004523,0 0.3006784,0 0.022273,0 0.044545,0 0.066817,0 0.011136,0 0.033409,-0.0111 0.033409,0 0,0.004 -0.095313,-0.005 -0.100226,0 -0.00787,0.008 0.00787,0.0255 0,0.0334 -0.015748,0.0157 -0.046896,-0.01 -0.066817,0 -0.014086,0.007 -0.019323,0.0264 -0.033409,0.0334 -0.019717,0.01 -0.077771,0 -0.100226,0 -0.070337,0 -0.2987347,-0.0118 -0.334087,0 -0.023625,0.008 -0.0424,0.0285 -0.066817,0.0334 -9.79e-4,1.9e-4 -0.1550252,-0.006 -0.1670437,0 -0.014086,0.007 -0.018468,0.0284 -0.033409,0.0334 -0.046174,0.0154 -0.233271,-0.017 -0.2672694,0 -0.014086,0.007 -0.019323,0.0264 -0.033409,0.0334 -0.021193,0.0106 -0.1369547,0 -0.1670436,0 -0.033409,0 -0.066817,0 -0.1002261,0 -0.011136,0 -0.033409,0.0111 -0.033409,0 0,-0.0111 0.022273,0 0.033409,0 0.022273,0 0.044545,0 0.066817,0 0.07835,0 -0.015748,0.008 0.066817,-0.0334 0.01992,-0.01 0.045688,0.007 0.066818,0 0.023625,-0.008 0.043194,-0.0255 0.066817,-0.0334 0.04009,-0.0134 0.093544,0.0134 0.1336347,0 0.023625,-0.008 0.043194,-0.0255 0.066817,-0.0334 0.018894,-0.006 0.086808,0.0134 0.1002261,0 0.00787,-0.008 -0.00996,-0.0284 0,-0.0334 0.022431,-0.0112 0.2870784,0 0.334087,0 0.022273,0 0.046896,0.01 0.066817,0 0.014086,-0.007 0.019322,-0.0264 0.033409,-0.0334 0.020733,-0.0104 0.1187738,0 0.1336347,0 0.1113623,0 0.2227246,0 0.334087,0 0.055681,0 0.1113623,0 0.1670433,0 0.011136,0 0.025535,-0.008 0.033409,0 0.00787,0.008 -0.010565,0.0299 0,0.0334 0.031694,0.0106 0.066817,0 0.100226,0 0.072589,0 0.1619882,-0.012 0.2338607,0 0.2166576,0.0361 0.070203,0.0334 0.1670436,0.0334 0.256133,0 0.512267,0 0.7684,0 0.0239,0 0.229248,-0.005 0.233861,0 0.0079,0.008 -0.0079,0.0255 0,0.0334 0.0079,0.008 0.04454,0 0.03341,0 -0.02226,0 -0.126367,-0.007 -0.133635,0 -0.0079,0.008 0.01057,0.0299 0,0.0334 -0.03245,0.0108 -0.122579,0 -0.167044,0 -0.133634,0 -0.267269,0 -0.400904,0 -0.08909,0 -0.17818,0 -0.267269,0 -0.01486,0 -0.112903,-0.0104 -0.1336356,0 -0.014086,0.007 -0.019322,0.0264 -0.033409,0.0334 -0.019717,0.01 -0.077771,0 -0.100226,0 -0.08909,0 -0.1781797,0 -0.2672694,0 -0.030912,0 -0.318991,-0.008 -0.334087,0 -0.014086,0.007 -0.019323,0.0264 -0.033409,0.0334 -0.0161,0.008 -0.11053,0 -0.1336347,0 -0.012269,0 -0.1322904,0.001 -0.133635,0 -0.00787,-0.008 0.00787,-0.0255 0,-0.0334 -0.00787,-0.008 -0.022273,0 -0.033409,0 -0.011136,0 -0.044545,0 -0.033409,0 0.189316,0 0.011136,0.0223 0.066817,-0.0334 0.00787,-0.008 0.023447,0.005 0.033409,0 0.028173,-0.0141 0.038645,-0.0527 0.066818,-0.0668 0.01992,-0.01 0.046896,0.01 0.066817,0 0.028173,-0.0141 0.036936,-0.0569 0.066817,-0.0668 0.031694,-0.0106 0.070344,0.0149 0.100226,0 0.014086,-0.007 0.019323,-0.0264 0.033409,-0.0334 0.027466,-0.0137 0.1325973,0.0115 0.1670434,0 0.023625,-0.008 0.043194,-0.0255 0.066818,-0.0334 0.010565,-0.004 0.025535,0.008 0.033409,0 0.00787,-0.008 -0.00787,-0.0255 0,-0.0334 0.00787,-0.008 0.022489,0.002 0.033409,0 0.045024,-0.009 0.088611,-0.0244 0.1336347,-0.0334 0.058173,-0.0116 0.2003447,0 0.2672696,0 0.378631,0 0.757263,0 1.135895,0 0.144771,0 0.289542,0 0.434313,0 0.01114,0 0.02227,0 0.03341,0 0.01114,0 0.02553,-0.008 0.03341,0 0.0079,0.008 -0.0079,0.0255 0,0.0334 0.0155,0.0155 0.169777,-0.0153 0.200453,0 0.01409,0.007 0.01847,0.0284 0.03341,0.0334 0.03302,0.011 0.1398,-0.0136 0.167044,0 0.01409,0.007 0.01932,0.0264 0.03341,0.0334 0.01674,0.008 0.133472,0 0.167043,0 0.03747,0 0.100922,-0.0109 0.133635,0 0.02362,0.008 0.04319,0.0255 0.06682,0.0334 0.03066,0.0102 0.190383,0 0.233861,0 0.01114,0 0.02227,0 0.03341,0 0.01114,0 0.02553,-0.008 0.03341,0 0.0079,0.008 -0.0079,0.0255 0,0.0334 0.0079,0.008 0.02227,0 0.03341,0 0.01114,0 0.02345,0.005 0.03341,0 0.01409,-0.007 0.01932,-0.0264 0.03341,-0.0334 0.01,-0.005 0.03341,-0.0111 0.03341,0 0,0.0272 -0.04685,0.0434 -0.06682,0.0334 -0.01409,-0.007 -0.01932,-0.0264 -0.03341,-0.0334 -0.01,-0.005 -0.02227,0 -0.03341,0 -0.01114,0 -0.02345,-0.005 -0.03341,0 -0.01409,0.007 -0.01932,0.0264 -0.03341,0.0334 -0.03487,0.0174 -0.13174,-0.0177 -0.167043,0 -0.01409,0.007 -0.01932,0.0264 -0.03341,0.0334 -0.02673,0.0134 -0.0735,-0.0134 -0.100226,0 -0.01409,0.007 -0.01932,0.0264 -0.03341,0.0334 -0.03478,0.0174 -0.132267,-0.0174 -0.167043,0 -0.01409,0.007 -0.01932,0.0264 -0.03341,0.0334 -0.02673,0.0134 -0.0735,-0.0134 -0.100226,0 -0.01,0.005 0.0079,0.0255 0,0.0334 -0.01544,0.0154 -0.08005,-0.0101 -0.100226,0 -0.01409,0.007 -0.01932,0.0264 -0.03341,0.0334 -0.03516,0.0176 -0.23211,-0.0176 -0.26727,0 -0.02817,0.0141 -0.03693,0.0569 -0.06682,0.0668 -0.03553,0.0118 -0.135229,-0.0159 -0.167043,0 -0.01409,0.007 -0.01932,0.0264 -0.03341,0.0334 -0.0161,0.008 -0.11053,0 -0.133635,0 -0.04455,0 -0.08909,0 -0.133635,0 -0.01114,0 -0.02227,0 -0.03341,0 -0.01114,0 -0.03341,0.0111 -0.03341,0 0,-0.0111 0.02227,0 0.03341,0 0.04454,0 0.08909,0 0.133634,0 0.07835,0 -0.01575,0.008 0.06682,-0.0334 0.03564,-0.0178 0.098,0.0178 0.133635,0 0.01409,-0.007 0.01847,-0.0284 0.03341,-0.0334 0.08715,-0.029 0.06161,0.0386 0.133635,-0.0334 0.01114,-0.0111 0.01847,-0.0284 0.03341,-0.0334 0.01738,-0.006 0.193737,0.007 0.200452,0 0.0079,-0.008 -0.0079,-0.0255 0,-0.0334 0.0079,-0.008 0.02345,0.005 0.03341,0 0.01409,-0.007 0.01932,-0.0264 0.03341,-0.0334 0.03333,-0.0167 0.252493,0.0161 0.300679,0 0.02362,-0.008 0.04319,-0.0255 0.06682,-0.0334 0.03269,-0.0109 0.155792,0 0.200452,0 0.02227,0 0.04454,0 0.06682,0 0.01114,0 0.02553,-0.008 0.03341,0 0.0079,0.008 -0.0079,0.0255 0,0.0334 0.01018,0.0102 0.274902,-0.0129 0.300678,0 0.01409,0.007 0.01932,0.0264 0.03341,0.0334 0.0161,0.008 0.11053,0 0.133635,0 0.03005,0 0.286304,-0.007 0.300678,0 0.01409,0.007 0.01932,0.0264 0.03341,0.0334 0.01,0.005 0.02227,0 0.03341,0 0.01114,0 0.02345,0.005 0.03341,0 0.01409,-0.007 0.01932,-0.0264 0.03341,-0.0334 0.04233,-0.0212 0.102048,0.0229 0.133635,0.0334 0.03048,0.0102 0.154979,-0.0121 0.167043,0 0.0079,0.008 -0.0079,0.0255 0,0.0334 1.31e-4,1.3e-4 0.227813,0 0.233861,0 0.01114,0 0.02227,0 0.03341,0 0.01114,0 0.03341,-0.0111 0.03341,0 0,0.0111 -0.02227,0 -0.03341,0 -0.02227,0 -0.04454,0 -0.06682,0 -0.05568,0 -0.111362,0 -0.167043,0 -0.08909,0 -0.17818,0 -0.26727,0 -0.02245,0 -0.08051,0.01 -0.100226,0 -0.01409,-0.007 -0.01932,-0.0264 -0.03341,-0.0334 -0.03564,-0.0178 -0.098,0.0178 -0.133634,0 -0.01409,-0.007 -0.01932,-0.0264 -0.03341,-0.0334 -0.02017,-0.0101 -0.08478,0.0154 -0.100226,0 -0.0079,-0.008 0.0079,-0.0255 0,-0.0334 -0.01575,-0.0158 -0.05107,0.0157 -0.06682,0 -0.0079,-0.008 0.0079,-0.0255 0,-0.0334 -0.008,-0.008 -0.133635,0.008 -0.133635,0 0,-0.0111 0.02227,0 0.03341,0 0.01114,0 0.02227,0 0.03341,0 0.01114,0 0.02227,0 0.03341,0 0.01114,0 0.02554,0.008 0.03341,0 0.0079,-0.008 -0.0079,-0.0255 0,-0.0334 0.0013,-0.001 0.121365,0 0.133634,0 0.07835,0 -0.01575,0.008 0.06682,-0.0334 0.02815,-0.0141 0.185968,0.0145 0.200452,0 0.0079,-0.008 -0.01,-0.0284 0,-0.0334 0.02073,-0.0104 0.104034,0 0.133635,0 0.167043,0 0.334087,0 0.50113,0 0.01114,0 0.02227,0 0.03341,0 0.01114,0 0.02554,0.008 0.03341,0 0.0079,-0.008 -0.0079,-0.0255 0,-0.0334 0.0091,-0.009 0.115511,0.009 0.133635,0 0.07235,-0.0362 -0.01175,-0.0334 0.100226,-0.0334 0.01086,0 0.07615,0.009 0.03341,-0.0334 -0.0079,-0.008 -0.02227,0 -0.03341,0 -0.01114,0 -0.02553,-0.008 -0.03341,0 -0.0079,0.008 0.0079,0.0255 0,0.0334 -0.0079,0.008 -0.02227,0 -0.03341,0 -0.01114,0 -0.02227,0 -0.03341,0 -0.01227,0 -0.13229,-0.001 -0.133635,0 -0.0079,0.008 0.0079,0.0255 0,0.0334 -0.01333,0.0133 -0.235815,-0.0157 -0.267269,0 -0.01409,0.007 -0.01932,0.0264 -0.03341,0.0334 -0.02673,0.0134 -0.0735,-0.0134 -0.100226,0 -0.01409,0.007 -0.01932,0.0264 -0.03341,0.0334 -0.01992,0.01 -0.0469,-0.01 -0.06682,0 -0.01409,0.007 -0.01932,0.0264 -0.03341,0.0334 -0.02119,0.0106 -0.136954,0 -0.167043,0 -0.04199,0 -0.281306,-0.01 -0.300678,0 -0.08909,0.0445 0.100226,0.0334 -0.03341,0.0334 -0.03993,0 -0.250495,-0.008 -0.26727,0 -0.02817,0.0141 -0.03864,0.0527 -0.06682,0.0668 -0.01972,0.01 -0.07777,0 -0.100226,0 -0.08909,0 -0.17818,0 -0.26727,0 -0.01114,0 -0.02227,0 -0.03341,0 -0.01114,0 -0.02553,-0.008 -0.03341,0 -0.0079,0.008 0.0079,0.0255 0,0.0334 -0.0079,0.008 -0.02227,0 -0.03341,0 -0.01114,0 -0.02227,0 -0.03341,0 -0.144771,0 -0.289542,0 -0.434313,0 -1.069079,0 -2.1381562,0 -3.2072343,0"
       id="path67"
       inkscape:connector-curvature="0" />
    <path
       style="fill:none;stroke:#000000;stroke-width:0.26458335px;stroke-linecap:butt;stroke-linejoin:miter;stroke-opacity:1"
       d="m 1.737252,280.22882 c 0.1670434,0 0.3340869,0 0.5011304,0 0.023105,0 0.1175355,0.008 0.1336347,0 0.014087,-0.007 0.019322,-0.0264 0.033409,-0.0334 0.020764,-0.0104 0.2283388,0 0.2672694,0 0.2004523,0 0.4009044,0 0.6013567,0 0.100226,0 0.200452,0 0.300678,0 0.035097,0 0.104144,-0.01 0.133635,0 0.1474729,0.0492 -0.1213795,0.0334 0.100226,0.0334 0.012269,0 0.1322904,-10e-4 0.1336347,0 0.018981,0.019 -0.036239,0.0668 0.066817,0.0668 0.044545,0 0.08909,0 0.1336347,0 0.011136,0 0.033409,-0.0111 0.033409,0 0,0.0111 -0.022273,0 -0.033409,0 -0.033409,0 -0.066817,0 -0.1002261,0 -0.08909,0 -0.1781796,0 -0.2672693,0 -0.011136,0 -0.025535,0.008 -0.033409,0 -0.00787,-0.008 0.00787,-0.0255 0,-0.0334 -0.00135,-0.001 -0.121366,0 -0.133635,0 -0.023103,0 -0.1175353,0.008 -0.1336347,0 -0.014086,-0.007 -0.019323,-0.0264 -0.033409,-0.0334 -0.019717,-0.01 -0.077771,0 -0.100226,0 -0.04398,0 -0.2771627,0.0118 -0.3006783,0 -0.014086,-0.007 -0.019322,-0.0264 -0.033409,-0.0334 -0.021193,-0.0106 -0.1369547,0 -0.1670433,0 -0.1224987,0 -0.2449972,0 -0.3674957,0 -0.012269,0 -0.1322904,10e-4 -0.1336348,0 -0.00787,-0.008 0.00787,-0.0255 0,-0.0334 -0.016704,-0.0167 -0.083522,0.0167 -0.100226,0 -0.047972,-0.048 0.061678,-0.0308 0.066817,-0.0334 0.014086,-0.007 0.018468,-0.0284 0.033409,-0.0334 0.033143,-0.0111 0.187327,0 0.2338609,0 0.078349,0 -0.015749,0.008 0.066817,-0.0334 0.031498,-0.0158 0.066061,-0.0249 0.1002261,-0.0334 0.010803,-0.003 0.025535,0.008 0.033409,0 0.00787,-0.008 -0.00787,-0.0255 0,-0.0334 0.0065,-0.007 0.1548442,0.006 0.1670434,0 0.00996,-0.005 -0.00787,-0.0255 0,-0.0334 0.00135,-10e-4 0.1213659,0 0.1336347,0 0.023106,0 0.1175356,0.008 0.1336349,0 0.014086,-0.007 0.019323,-0.0264 0.033409,-0.0334 0.020172,-0.0101 0.084782,0.0154 0.100226,0 0.00787,-0.008 -0.00787,-0.0255 0,-0.0334 0.00198,-0.002 0.2115323,0 0.2338607,0 0.022273,0 0.044545,0 0.066817,0 0.011136,0 0.033409,-0.0111 0.033409,0 0,0.0111 -0.022273,0 -0.033409,0 -0.033409,0 -0.066817,0 -0.100226,0 -0.1119706,0 -0.027876,-0.003 -0.1002261,0.0334 -0.035015,0.0175 -0.299072,-0.0175 -0.334087,0 -0.014086,0.007 -0.019322,0.0264 -0.033409,0.0334 -0.019717,0.01 -0.077771,0 -0.100226,0 -0.08909,0 -0.1781797,0 -0.2672694,0 -0.055681,0 -0.1113625,0 -0.1670436,0 -0.022272,0 -0.044545,0 -0.066817,0 -0.011136,0 -0.033409,0.0111 -0.033409,0 0,-0.0111 0.022272,0 0.033409,0 0.078349,0 -0.015749,-0.008 0.066817,0.0334 0.016099,0.008 0.1105299,0 0.1336346,0 0.08909,0 0.17818,0 0.2672697,0 0.1670433,0 0.334087,0 0.5011303,0 0.013756,0 0.091383,-0.009 0.1002261,0 0.00787,0.008 -0.00996,0.0284 0,0.0334 0.019921,0.01 0.046896,-0.01 0.066817,0 0.00996,0.005 -0.00787,0.0255 0,0.0334 0.00787,0.008 0.023447,-0.005 0.033409,0 0.07235,0.0362 -0.011745,0.0334 0.1002263,0.0334"
       id="path69"
       inkscape:connector-curvature="0" />
  </g>
</svg>
