<?xml version="1.0" encoding="UTF-8" standalone="no"?>
<svg
   xmlns:dc="http://purl.org/dc/elements/1.1/"
   xmlns:cc="http://creativecommons.org/ns#"
   xmlns:rdf="http://www.w3.org/1999/02/22-rdf-syntax-ns#"
   xmlns:svg="http://www.w3.org/2000/svg"
   xmlns="http://www.w3.org/2000/svg"
   id="svg8"
   version="1.1"
   viewBox="0 0 16.933333 16.933333"
   height="64"
   width="64">
  <defs
     id="defs2" />
  <metadata
     id="metadata5">
    <rdf:RDF>
      <cc:Work
         rdf:about="">
        <dc:format>image/svg+xml</dc:format>
        <dc:type
           rdf:resource="http://purl.org/dc/dcmitype/StillImage" />
        <dc:title></dc:title>
      </cc:Work>
    </rdf:RDF>
  </metadata>
  <g
     transform="translate(0,-280.06667)"
     id="layer1">
    <path
       id="path12"
       d="m 9.2542073,281.39814 c -0.6875912,-0.44644 -1.5676536,-0.13491 -2.1047474,0.13364 -2.8401518,1.42008 1.7828508,3.71739 2.4722431,2.33861 0.33075,-0.6615 0.680764,-2.47225 -0.3674957,-2.47225 z"
       style="fill:none;stroke:#000000;stroke-width:0.26458332px;stroke-linecap:butt;stroke-linejoin:miter;stroke-opacity:1" />
    <path
       id="path16"
       d="m 8.519216,284.20447 c 0.1106768,2.00301 0.033409,3.68518 0.033409,5.54585"
       style="fill:none;stroke:#000000;stroke-width:0.26458332px;stroke-linecap:butt;stroke-linejoin:miter;stroke-opacity:1" />
    <path
       id="path18"
       d="m 8.5526252,289.75032 c -1.4673151,1.01752 -1.9433479,3.65328 -2.204974,5.74629"
       style="fill:none;stroke:#000000;stroke-width:0.26458332px;stroke-linecap:butt;stroke-linejoin:miter;stroke-opacity:1" />
    <path
       id="path20"
       d="m 8.5526252,289.75032 c 1.166472,0.42168 0.6442075,4.29035 1.1024864,5.51243"
       style="fill:none;stroke:#000000;stroke-width:0.26458332px;stroke-linecap:butt;stroke-linejoin:miter;stroke-opacity:1" />
    <path
       id="path24"
       d="m 8.5526249,285.97514 c 0.2830841,0.28554 0.7061578,0.15262 1.0022607,0.30067 0.9024694,0.45124 1.4699824,2.47768 1.4699824,3.64155"
       style="fill:none;stroke:#000000;stroke-width:0.26458332px;stroke-linecap:butt;stroke-linejoin:miter;stroke-opacity:1" />
    <path
       id="path36"
       d="m 7.8510423,281.76564 c -0.012198,0.4036 -0.095102,0.72133 -0.2004521,1.00226"
       style="fill:none;stroke:#000000;stroke-width:0.26458332px;stroke-linecap:butt;stroke-linejoin:miter;stroke-opacity:1" />
    <path
       id="path44"
       d="m 7.1992653,281.83371 c -0.1508411,0.20792 -0.1733661,0.55483 -0.2775765,0.83273"
       style="fill:none;stroke:#000000;stroke-width:0.26458332px;stroke-linecap:butt;stroke-linejoin:miter;stroke-opacity:1" />
    <path
       id="path48"
       d="m 7.0367056,283.29409 c 0.4870608,0.14029 0.9374293,0.28053 1.4282213,0.11693"
       style="fill:none;stroke:#000000;stroke-width:0.26458332px;stroke-linecap:butt;stroke-linejoin:miter;stroke-opacity:1" />
    <path
       id="path54"
       d="m 8.5302826,286.08133 c -0.8705575,-1.1e-4 -1.3800108,1.25734 -1.8453324,2.13251 -0.1831188,0.3444 -0.6302341,0.53882 -0.7823531,0.7677"
       style="fill:none;stroke:#000000;stroke-width:0.30164865px;stroke-linecap:butt;stroke-linejoin:miter;stroke-opacity:1" />
  </g>
</svg>
